<?xml version="1.0" standalone="no"?>
<!DOCTYPE svg PUBLIC "-//W3C//DTD SVG 1.1//EN" "http://www.w3.org/Graphics/SVG/1.1/DTD/svg11.dtd" >
<svg xmlns="http://www.w3.org/2000/svg" xmlns:xlink="http://www.w3.org/1999/xlink" version="1.1">
<metadata>
Created by FontForge 20161013 at Thu Oct  6 17:43:02 2016
 By ,,,
Copyright 2016 The Muli Project Authors (contact@sansoxygen.com)
</metadata>
<defs>
<font id="Muli-Bold" horiz-adv-x="0" >
  <font-face 
    font-family="Muli"
    font-weight="700"
    font-stretch="normal"
    units-per-em="1000"
    panose-1="0 0 8 0 0 0 0 0 0 0"
    ascent="800"
    descent="-200"
    x-height="504"
    cap-height="712"
    bbox="-347 -273 1319 1090"
    underline-thickness="50"
    underline-position="-150"
    unicode-range="U+000D-FB02"
  />
<missing-glyph horiz-adv-x="476" 
d="M390 736v-952h-301v952h301zM317 672h-157v-31h62v-35h-63v-32h158v32h-63v35h63v31zM254 549h-95v-99h158v33h-63v66zM222 517v-34h-32v34h32zM317 425h-158v-32h63v-35h-63v-31h95v66h63v32zM317 368h-31v-63h-127v-33h158v96zM317 251h-95v-53h32v22h32v-45h-96v76
h-31v-107h158v107zM317 87h-158v-108h158v108zM286 55v-44h-96v44h96zM317 -43h-158v-31h67l-67 -45v-31h158v31h-97l67 45h30v31z" />
    <glyph glyph-name="fi" unicode="fi" horiz-adv-x="626" 
d="M227 505h332v-505h-125v411h-207v-411h-125v411h-97v94h97v51q0 68 21 107.5t68.5 57.5t129.5 18h37v-92h-24q-47 0 -69 -7.5t-30 -29t-8 -68.5v-37zM426 739h141v-126h-141v126z" />
    <glyph glyph-name="fl" unicode="fl" horiz-adv-x="628" 
d="M226 548v-43h113v-94h-113v-411h-125v411h-96v94h96v49q0 90 45.5 138.5t130.5 48.5q47 0 79 -12v-99q-28 7 -49 7q-81 0 -81 -89zM435 0v736h124v-736h-124z" />
    <glyph glyph-name=".notdef" horiz-adv-x="476" 
d="M390 736v-952h-301v952h301zM317 672h-157v-31h62v-35h-63v-32h158v32h-63v35h63v31zM254 549h-95v-99h158v33h-63v66zM222 517v-34h-32v34h32zM317 425h-158v-32h63v-35h-63v-31h95v66h63v32zM317 368h-31v-63h-127v-33h158v96zM317 251h-95v-53h32v22h32v-45h-96v76
h-31v-107h158v107zM317 87h-158v-108h158v108zM286 55v-44h-96v44h96zM317 -43h-158v-31h67l-67 -45v-31h158v31h-97l67 45h30v31z" />
    <glyph glyph-name=".null" 
 />
    <glyph glyph-name="nonmarkingreturn" unicode="&#xd;" horiz-adv-x="274" 
 />
    <glyph glyph-name="NULL" 
 />
    <glyph glyph-name="NULL" 
 />
    <glyph glyph-name="space" unicode=" " horiz-adv-x="274" 
 />
    <glyph glyph-name="exclam" unicode="!" horiz-adv-x="251" 
d="M87 214l-40 499l155 -1l-39 -498h-76zM55 140h140v-140h-140v140z" />
    <glyph glyph-name="quotedbl" unicode="&#x22;" horiz-adv-x="455" 
d="M81 419l-32 293h145l-30 -293h-83zM292 419l-32 293h145l-30 -293h-83z" />
    <glyph glyph-name="numbersign" unicode="#" horiz-adv-x="606" 
d="M563 466h-87l-42 -211h106v-82h-122l-34 -173h-87l34 173h-128l-34 -173h-87l34 173h-72v82h88l42 211h-108v81h124l32 165h87l-32 -165h128l32 165h87l-32 -165h71v-81zM347 255l42 211h-128l-42 -211h128z" />
    <glyph glyph-name="dollar" unicode="$" horiz-adv-x="600" 
d="M512.5 64.5q-56.5 -55.5 -151.5 -69.5v-111h-102v109q-67 5 -124.5 26t-100.5 57l44 94q87 -68 188 -75v208q-67 17 -113 37.5t-77 61t-31 105.5q0 54 27 98.5t75.5 74t111.5 37.5v111h102v-110q58 -7 109 -28t86 -53l-44 -94q-73 60 -158 72v-217q67 -17 111 -36.5
t74 -58.5t30 -102q0 -81 -56.5 -136.5zM198 457.5q24 -21.5 68 -36.5v193q-43 -9 -67.5 -35t-24.5 -65q0 -35 24 -56.5zM418 133.5q22 24.5 22 63.5q0 31 -22 50t-64 32v-179q42 9 64 33.5z" />
    <glyph glyph-name="percent" unicode="%" horiz-adv-x="955" 
d="M91.5 342.5q-47.5 55.5 -47.5 162.5q0 106 47.5 161.5t131.5 55.5q85 0 133 -55.5t48 -161.5q0 -107 -48 -162.5t-133 -55.5q-84 0 -131.5 55.5zM326 0h-110l412 712h111zM280 400q18 32 18 105q0 71 -18.5 103.5t-56.5 32.5q-37 0 -55 -32.5t-18 -103.5q0 -72 18 -104.5
t55 -32.5q39 0 57 32zM598.5 48.5q-47.5 55.5 -47.5 163.5q0 106 47.5 161t132.5 55t132.5 -55t47.5 -162t-47.5 -162.5t-132.5 -55.5t-132.5 55.5zM787 106.5q18 32.5 18 104.5q0 71 -18.5 103.5t-55.5 32.5q-38 0 -56 -32.5t-18 -103.5q0 -72 18 -104.5t56 -32.5t56 32.5z
" />
    <glyph glyph-name="ampersand" unicode="&#x26;" horiz-adv-x="688" 
d="M646 -9q-86 30 -148 86q-93 -85 -214 -85q-72 0 -127.5 24.5t-86 68.5t-30.5 101q0 65 36 115t115 94q-40 44 -58 81t-18 76q0 75 54 121t141 46q80 0 128 -42t48 -112q0 -54 -31.5 -98t-103.5 -86l141 -146q42 85 46 193h106q-7 -156 -78 -269q59 -55 142 -82z
M251.5 611q-22.5 -22 -22.5 -59q0 -23 12.5 -45t46.5 -60q53 31 74.5 56.5t21.5 56.5q0 33 -20 53t-53 20q-37 0 -59.5 -22zM196 117q34 -28 92 -28q78 0 141 58l-175 181q-48 -30 -70 -62t-22 -73q0 -48 34 -76z" />
    <glyph glyph-name="quotesingle" unicode="'" horiz-adv-x="244" 
d="M81 419l-32 293h145l-30 -293h-83z" />
    <glyph glyph-name="parenleft" unicode="(" horiz-adv-x="355" 
d="M130.5 43q-28.5 106 -28.5 223t29 224.5t95 221.5h102q-55 -133 -76 -236t-21 -210q0 -106 21 -209.5t74 -238.5h-100q-67 119 -95.5 225z" />
    <glyph glyph-name="parenright" unicode=")" horiz-adv-x="355" 
d="M29 -182q53 135 74 238.5t21 209.5q0 107 -21 210t-75 236h100q66 -114 95.5 -221.5t29.5 -224.5q0 -116 -29 -222.5t-95 -225.5h-100z" />
    <glyph glyph-name="asterisk" unicode="*" horiz-adv-x="457" 
d="M148 346l-71 52l92 113l-142 39l28 84l136 -52l-7 146h88l-7 -145l137 51l27 -84l-141 -38l92 -114l-72 -52l-80 122z" />
    <glyph glyph-name="plus" unicode="+" horiz-adv-x="600" 
d="M546 333v-89h-202v-202h-88v202h-202v89h202v202h88v-202h202z" />
    <glyph glyph-name="comma" unicode="," horiz-adv-x="251" 
d="M195 140v-92q0 -53 -18 -96t-61 -86l-51 41q47 50 54 93h-64v140h140z" />
    <glyph glyph-name="hyphen" unicode="-" horiz-adv-x="438" 
d="M69 220v100h301v-100h-301z" />
    <glyph glyph-name="period" unicode="." horiz-adv-x="251" 
d="M55 140h140v-140h-140v140z" />
    <glyph glyph-name="slash" unicode="/" horiz-adv-x="315" 
d="M80 -59h-105l259 812h107z" />
    <glyph glyph-name="zero" unicode="0" horiz-adv-x="600" 
d="M106.5 84.5q-66.5 93.5 -66.5 272.5q0 176 66.5 269t193.5 93t193.5 -92.5t66.5 -269.5q0 -178 -66.5 -272t-193.5 -94t-193.5 93.5zM400.5 155.5q31.5 63.5 31.5 201.5q0 136 -31.5 198.5t-100.5 62.5t-100.5 -62.5t-31.5 -198.5q0 -138 31.5 -201.5t100.5 -63.5
t100.5 63.5z" />
    <glyph glyph-name="one" unicode="1" horiz-adv-x="600" 
d="M396 105h155v-105h-439v105h156v459l-145 -87v115l198 120h75v-607z" />
    <glyph glyph-name="two" unicode="2" horiz-adv-x="601" 
d="M549 105v-105h-478v95l242 261q43 47 63 86t20 77q0 49 -28.5 74t-81.5 25q-94 0 -193 -74l-43 94q42 38 108 60.5t133 22.5q107 0 169.5 -52.5t62.5 -141.5q0 -61 -26.5 -115t-88.5 -121l-175 -186h316z" />
    <glyph glyph-name="three" unicode="3" horiz-adv-x="600" 
d="M506.5 304q33.5 -45 33.5 -111q0 -93 -68.5 -147t-184.5 -54q-72 0 -138.5 22t-109.5 61l44 94q95 -74 199 -74q68 0 101.5 27t33.5 82q0 54 -34 79.5t-105 25.5h-94v103h77q138 0 138 105q0 49 -30 75t-84 26q-96 0 -192 -74l-43 94q43 38 108.5 60.5t134.5 22.5
q105 0 167.5 -51.5t62.5 -137.5q-1 -59 -30.5 -102.5t-82.5 -63.5q63 -17 96.5 -62z" />
    <glyph glyph-name="four" unicode="4" horiz-adv-x="600" 
d="M576 240v-101h-101v-139h-126v139h-310v96l333 477h103v-472h101zM161 240h188v271z" />
    <glyph glyph-name="five" unicode="5" horiz-adv-x="600" 
d="M456 426.5q51 -28.5 79 -80t28 -118.5q0 -70 -32 -123.5t-92 -83t-139 -29.5q-67 0 -132 22.5t-107 60.5l43 94q97 -74 198 -74q67 0 102.5 33.5t35.5 95.5q0 59 -36.5 94.5t-97.5 35.5q-42 0 -79 -15.5t-65 -45.5h-78v419h446v-100h-320v-194q54 37 128 37
q67 0 118 -28.5z" />
    <glyph glyph-name="six" unicode="6" horiz-adv-x="600" 
d="M456.5 428q49.5 -29 77.5 -81t28 -119q0 -68 -30.5 -122t-85 -84.5t-123.5 -30.5q-135 0 -208 91.5t-73 260.5q0 118 34.5 203t100 130t155.5 45q64 0 124.5 -21.5t105.5 -61.5l-44 -94q-94 74 -181 74q-79 0 -122 -67t-45 -192q23 45 70 71.5t104 26.5q63 0 112.5 -29z
M405.5 129q33.5 36 33.5 95t-33.5 94.5t-89.5 35.5t-91 -36t-35 -94t35.5 -94.5t91.5 -36.5q55 0 88.5 36z" />
    <glyph glyph-name="seven" unicode="7" horiz-adv-x="600" 
d="M52 712h496v-96l-323 -616h-138l322 607h-357v105z" />
    <glyph glyph-name="eight" unicode="8" horiz-adv-x="600" 
d="M528 303q39 -46 39 -111q0 -61 -33.5 -106.5t-94 -69.5t-139.5 -24t-139.5 24t-94 69.5t-33.5 106.5q0 65 39 111t108 63q-60 20 -94.5 63t-34.5 100q0 58 32 101.5t88.5 67t128.5 23.5t128.5 -23.5t88.5 -67t32 -101.5t-34.5 -101.5t-94.5 -61.5q69 -17 108 -63z
M207 593q-34 -27 -34 -77q0 -47 34.5 -76.5t92.5 -38.5q58 9 92.5 38.5t34.5 76.5q0 50 -34 77t-93 27t-93 -27zM406.5 121q38.5 28 38.5 80q0 49 -39.5 79t-105.5 39q-66 -9 -105.5 -39t-39.5 -79q0 -52 38.5 -80t106.5 -28t106.5 28z" />
    <glyph glyph-name="nine" unicode="9" horiz-adv-x="600" 
d="M485.5 629.5q73.5 -91.5 73.5 -260.5q0 -118 -35 -203t-100.5 -130t-155.5 -45q-64 0 -124.5 21.5t-104.5 61.5l43 94q95 -74 181 -74q79 0 122.5 67.5t45.5 193.5q-23 -46 -69.5 -73t-105.5 -27q-63 0 -112.5 29t-77.5 81t-28 119q0 68 30.5 122t85 84.5t123.5 30.5
q135 0 208.5 -91.5zM375 394q35 36 35 94t-35 94.5t-91 36.5t-89.5 -36t-33.5 -95t33.5 -94.5t89.5 -35.5t91 36z" />
    <glyph glyph-name="colon" unicode=":" horiz-adv-x="251" 
d="M55 494h140v-139h-140v139zM55 140h140v-140h-140v140z" />
    <glyph glyph-name="semicolon" unicode=";" horiz-adv-x="251" 
d="M55 494h140v-139h-140v139zM55 140h140v-92q0 -53 -18 -96t-61 -86l-51 41q47 50 54 93h-64v140z" />
    <glyph glyph-name="less" unicode="&#x3c;" horiz-adv-x="600" 
d="M546 545v-96l-382 -160l382 -161v-96l-492 209v96z" />
    <glyph glyph-name="equal" unicode="=" horiz-adv-x="600" 
d="M546 434v-89h-492v89h492zM546 232v-89h-492v89h492z" />
    <glyph glyph-name="greater" unicode="&#x3e;" horiz-adv-x="600" 
d="M54 545l492 -208v-96l-492 -209v96l382 161l-382 160v96z" />
    <glyph glyph-name="question" unicode="?" horiz-adv-x="463" 
d="M237 720q62 0 110 -21t74.5 -58t26.5 -86q0 -53 -24.5 -91t-73.5 -88q-41 -42 -62 -71.5t-26 -66.5l-4 -28h-74v41q0 56 20 94.5t58 83.5q29 34 43.5 59t14.5 56q0 35 -24.5 54.5t-67.5 19.5q-70 0 -140 -43v106q64 39 149 39zM152 0v140h141v-140h-141z" />
    <glyph glyph-name="at" unicode="@" horiz-adv-x="943" 
d="M250 -104q-99 54 -152.5 151t-53.5 224q0 137 57 238t156.5 155t225.5 54q131 0 225 -50.5t142.5 -135.5t48.5 -187q0 -92 -28 -155t-75 -94.5t-104 -31.5q-54 0 -86 23t-38 64h-2q-57 -87 -149 -87q-72 0 -113.5 48.5t-41.5 131.5q0 71 27 130.5t75.5 94.5t110.5 35
q43 0 76 -19.5t45 -52.5h2l11 62h93l-45 -251q-4 -21 -4 -43q0 -32 13.5 -46.5t42.5 -14.5q23 0 46.5 20.5t39.5 66.5t16 119q0 83 -37 149t-111 105t-180 39q-99 0 -177.5 -43.5t-123.5 -126.5t-45 -197q0 -105 41.5 -183.5t119 -121.5t184.5 -43q79 0 135.5 20.5
t84.5 56.5h121q-41 -72 -129.5 -115t-211.5 -43q-133 0 -232 54zM513 166q32 27 48.5 70t16.5 91q0 50 -23.5 76t-64.5 26q-42 0 -72.5 -27t-46.5 -69.5t-16 -87.5q0 -49 22.5 -77.5t59.5 -28.5q44 0 76 27z" />
    <glyph glyph-name="A" unicode="A" horiz-adv-x="750" 
d="M621 0l-71 167h-348l-72 -167h-130l322 712h105l323 -712h-129zM245 267h262l-131 305z" />
    <glyph glyph-name="B" unicode="B" horiz-adv-x="690" 
d="M610.5 305q33.5 -45 33.5 -111q0 -91 -64.5 -142.5t-179.5 -51.5h-323v712h313q110 0 173 -49.5t63 -136.5q0 -56 -29.5 -97.5t-81.5 -60.5q62 -18 95.5 -63zM203 412h166q134 0 134 100q0 50 -33 75t-101 25h-166v-200zM488.5 125q32.5 25 32.5 79q0 55 -32.5 81
t-102.5 26h-183v-211h183q70 0 102.5 25z" />
    <glyph glyph-name="C" unicode="C" horiz-adv-x="685" 
d="M216.5 36q-78.5 45 -120.5 127.5t-42 193.5q0 110 42 192.5t120.5 127t183.5 44.5q72 0 135.5 -22.5t105.5 -62.5l-42 -94q-48 39 -95.5 56.5t-101.5 17.5q-103 0 -159.5 -67t-56.5 -192q0 -126 56 -193.5t160 -67.5q54 0 101.5 17.5t95.5 56.5l42 -94
q-42 -40 -105.5 -62.5t-135.5 -22.5q-105 0 -183.5 45z" />
    <glyph glyph-name="D" unicode="D" horiz-adv-x="762" 
d="M77 712h262q175 0 271.5 -93t96.5 -262q0 -170 -96.5 -263.5t-271.5 -93.5h-262v712zM331 105q246 0 246 252q0 250 -246 250h-125v-502h125z" />
    <glyph glyph-name="E" unicode="E" horiz-adv-x="595" 
d="M77 0v712h476v-102h-350v-197h329v-102h-329v-209h350v-102h-476z" />
    <glyph glyph-name="F" unicode="F" horiz-adv-x="572" 
d="M77 0v712h465v-103h-337v-195h317v-104h-317v-310h-128z" />
    <glyph glyph-name="G" unicode="G" horiz-adv-x="739" 
d="M671 385v-342q-49 -24 -118 -38t-141 -14q-110 0 -191 44t-124 126t-43 196q0 112 43 194t122.5 126t186.5 44q75 0 140.5 -22t109.5 -62l-44 -94q-50 39 -98 56t-105 17q-110 0 -166.5 -66t-56.5 -193q0 -131 58 -197.5t173 -66.5q70 0 138 19v180h-154v93h270z" />
    <glyph glyph-name="H" unicode="H" horiz-adv-x="774" 
d="M569 712h128v-712h-128v309h-365v-309h-127v712h127v-298h365v298z" />
    <glyph glyph-name="I" unicode="I" horiz-adv-x="283" 
d="M77 0v712h129v-712h-129z" />
    <glyph glyph-name="J" unicode="J" horiz-adv-x="361" 
d="M-2 -73q51 -7 72 -7q49 0 67 24t18 86v682h129v-682q0 -114 -43 -165.5t-147 -51.5q-48 0 -96 8v106z" />
    <glyph glyph-name="K" unicode="K" horiz-adv-x="666" 
d="M695 0h-158l-331 333v-333h-129v712h129v-319l318 319h155l-346 -342z" />
    <glyph glyph-name="L" unicode="L" horiz-adv-x="560" 
d="M77 0v712h129v-606h333v-106h-462z" />
    <glyph glyph-name="M" unicode="M" horiz-adv-x="850" 
d="M669 712h102v-712h-114v442l-189 -442h-85l-190 437v-437h-114v712h102l245 -557z" />
    <glyph glyph-name="N" unicode="N" horiz-adv-x="755" 
d="M556 712h121v-712h-96l-384 499v-499h-120v712h96l383 -498v498z" />
    <glyph glyph-name="O" unicode="O" horiz-adv-x="786" 
d="M213.5 35.5q-76.5 44.5 -118 127t-41.5 194.5q0 111 41 193.5t117.5 126.5t180.5 44t180.5 -44t117 -126.5t40.5 -193.5q0 -112 -41 -194.5t-117 -127t-180 -44.5q-103 0 -179.5 44.5zM547 162q55 68 55 195q0 126 -55 193.5t-154 67.5t-154 -67t-55 -194t55 -195
t154 -68t154 68z" />
    <glyph glyph-name="P" unicode="P" horiz-adv-x="666" 
d="M77 712h309q115 0 179 -55.5t64 -151.5t-64.5 -152t-178.5 -56h-180v-297h-129v712zM371 397q67 0 101.5 27.5t34.5 79.5q0 53 -34 80.5t-102 27.5h-165v-215h165z" />
    <glyph glyph-name="Q" unicode="Q" horiz-adv-x="786" 
d="M599 -52q32 -34 75 -69l-87 -70q-48 34 -90.5 81.5t-74.5 101.5q-9 -1 -29 -1q-103 0 -179.5 44.5t-118 127t-41.5 194.5q0 111 41 193.5t117.5 126.5t180.5 44t180.5 -44t117 -126.5t40.5 -193.5q0 -122 -48.5 -209t-137.5 -127q22 -39 54 -73zM239 162q55 -68 154 -68
t154 68t55 195q0 126 -55 193.5t-154 67.5t-154 -67t-55 -194t55 -195z" />
    <glyph glyph-name="R" unicode="R" horiz-adv-x="702" 
d="M663 0h-136l-91 237q-12 33 -37 46t-65 13h-129v-296h-128v712h305q121 0 184 -53t63 -152q0 -71 -37.5 -120.5t-106.5 -70.5q63 -13 91 -88zM364 396q73 0 108 27t35 82q0 54 -34.5 80.5t-108.5 26.5h-161v-216h161z" />
    <glyph glyph-name="S" unicode="S" horiz-adv-x="644" 
d="M164.5 13q-71.5 22 -121.5 63l44 94q52 -39 108.5 -57.5t123.5 -18.5q74 0 114.5 26t40.5 73q0 40 -37.5 61.5t-123.5 40.5q-134 29 -195 75t-61 134q0 63 34 112t96.5 77t144.5 28q75 0 142.5 -22.5t110.5 -62.5l-43 -94q-95 76 -210 76q-69 0 -109 -28.5t-40 -77.5
q0 -42 35.5 -64t121.5 -41q89 -21 145 -45.5t86 -63t30 -96.5q0 -64 -34 -111.5t-98 -73.5t-151 -26q-82 0 -153.5 22z" />
    <glyph glyph-name="T" unicode="T" horiz-adv-x="619" 
d="M244 0v606h-232v106h595v-106h-233v-606h-130z" />
    <glyph glyph-name="U" unicode="U" horiz-adv-x="740" 
d="M148.5 66.5q-75.5 75.5 -75.5 221.5v424h127v-431q0 -92 43 -139.5t128 -47.5q83 0 126.5 48t43.5 139v431h127v-424q0 -145 -76 -221t-221 -76q-147 0 -222.5 75.5z" />
    <glyph glyph-name="V" unicode="V" horiz-adv-x="721" 
d="M599 712h131l-317 -712h-105l-317 712h134l237 -550z" />
    <glyph glyph-name="W" unicode="W" horiz-adv-x="1120" 
d="M973 712h124l-252 -712h-105l-179 512l-181 -512h-105l-251 712h131l178 -531l185 531h92l181 -535z" />
    <glyph glyph-name="X" unicode="X" horiz-adv-x="671" 
d="M408 362l271 -362h-151l-193 266l-193 -266h-151l271 363l-262 349h151l184 -255l186 255h150z" />
    <glyph glyph-name="Y" unicode="Y" horiz-adv-x="629" 
d="M668 712l-289 -430v-282h-129v282l-289 430h147l206 -322l207 322h147z" />
    <glyph glyph-name="Z" unicode="Z" horiz-adv-x="608" 
d="M193 103h379v-103h-523v94l366 515h-366v103h512v-93z" />
    <glyph glyph-name="bracketleft" unicode="[" horiz-adv-x="354" 
d="M107 -182v894h235v-95h-112v-704h112v-95h-235z" />
    <glyph glyph-name="backslash" unicode="\" horiz-adv-x="315" 
d="M234 -59l-259 812h105l260 -812h-106z" />
    <glyph glyph-name="bracketright" unicode="]" horiz-adv-x="354" 
d="M247 -182h-235v95h112v704h-112v95h235v-894z" />
    <glyph glyph-name="asciicircum" unicode="^" horiz-adv-x="600" 
d="M557 143h-97l-160 381l-160 -381h-97l209 493h96z" />
    <glyph glyph-name="underscore" unicode="_" horiz-adv-x="505" 
d="M12 -75v75h481v-75h-481z" />
    <glyph glyph-name="grave" unicode="`" horiz-adv-x="300" 
d="M111 559l-147 206h128l100 -206h-81z" />
    <glyph glyph-name="a" unicode="a" horiz-adv-x="619" 
d="M551 505v-505h-123v81q-23 -42 -66 -65.5t-98 -23.5q-66 0 -117 32t-79 91t-28 137t28.5 138.5t79.5 94t116 33.5q55 0 98 -23.5t66 -65.5v76h123zM394 133q34 43 34 121q0 80 -34 123t-97 43q-62 0 -96.5 -44.5t-34.5 -123.5q0 -78 34.5 -120t97.5 -42q62 0 96 43z" />
    <glyph glyph-name="b" unicode="b" horiz-adv-x="620" 
d="M472.5 485.5q50.5 -32.5 78.5 -91.5t28 -137t-28.5 -138.5t-79 -93.5t-115.5 -33q-56 0 -99.5 24t-65.5 67v-83h-123v736h124v-307q23 42 66 65.5t98 23.5q66 0 116.5 -32.5zM419 134q34 44 34 123q0 78 -34 120.5t-97 42.5t-97 -43t-34 -122q0 -80 34 -122.5t98 -42.5
q62 0 96 44z" />
    <glyph glyph-name="c" unicode="c" horiz-adv-x="503" 
d="M160 24q-58 32 -89 90.5t-31 137.5t32.5 139t92 93.5t137.5 33.5q54 0 104.5 -17t80.5 -47l-35 -88q-32 26 -68 39.5t-71 13.5q-68 0 -106 -42.5t-38 -122.5t37.5 -122t106.5 -42q35 0 71 14t68 40l35 -88q-32 -30 -83 -47t-107 -17q-79 0 -137 32z" />
    <glyph glyph-name="d" unicode="d" horiz-adv-x="619" 
d="M551 736v-736h-123v81q-23 -42 -66 -65.5t-98 -23.5q-65 0 -116 33t-79.5 93.5t-28.5 138.5t28 137t79 91.5t117 32.5q54 0 96.5 -22.5t65.5 -63.5v304h125zM393.5 133q34.5 43 34.5 122t-34 122t-96 43q-63 0 -97.5 -42.5t-34.5 -120.5q0 -79 34.5 -123t96.5 -44
t96.5 43z" />
    <glyph glyph-name="e" unicode="e" horiz-adv-x="548" 
d="M510 246h-348q4 -81 40.5 -119.5t108.5 -38.5q83 0 154 54l36 -86q-36 -29 -88.5 -46.5t-106.5 -17.5q-124 0 -195 70t-71 192q0 77 31 137t87 93.5t127 33.5q104 0 164.5 -67.5t60.5 -185.5v-19zM206.5 398.5q-31.5 -29.5 -40.5 -85.5h235q-6 57 -34.5 86t-78.5 29
t-81.5 -29.5z" />
    <glyph glyph-name="f" unicode="f" horiz-adv-x="367" 
d="M226 548v-43h113v-94h-113v-411h-125v411h-96v94h96v49q0 90 45.5 138.5t130.5 48.5q47 0 79 -12v-99q-28 7 -49 7q-81 0 -81 -89z" />
    <glyph glyph-name="g" unicode="g" horiz-adv-x="623" 
d="M556 505v-489q0 -118 -65 -179t-191 -61q-117 0 -206 49l20 95q92 -48 183 -48q135 0 135 134v100q-23 -41 -67 -66.5t-99 -25.5q-66 0 -117.5 31.5t-80 89t-28.5 131.5t28.5 131.5t80 89t117.5 31.5q56 0 99.5 -23.5t66.5 -65.5v76h124zM396.5 153q35.5 41 35.5 113
t-35 113t-98 41q-62 0 -97.5 -41t-35.5 -113t35.5 -113t97.5 -41t97.5 41z" />
    <glyph glyph-name="h" unicode="h" horiz-adv-x="603" 
d="M538 310v-310h-125v304q0 60 -23 87.5t-71 27.5q-57 0 -92 -36.5t-35 -96.5v-286h-124v736h124v-304q26 41 69 63.5t96 22.5q181 0 181 -208z" />
    <glyph glyph-name="i" unicode="i" horiz-adv-x="261" 
d="M68 0v505h124v-505h-124zM60 734h139v-123h-139v123z" />
    <glyph glyph-name="j" unicode="j" horiz-adv-x="261" 
d="M-12 -119q36 0 58 21t22 68v535h124v-541q0 -90 -45.5 -138t-129.5 -48q-45 0 -78 11v100q27 -8 49 -8zM60 734h139v-123h-139v123z" />
    <glyph glyph-name="k" unicode="k" horiz-adv-x="551" 
d="M569 0h-156l-221 233v-233h-124v736h124v-454l208 222h151l-227 -241z" />
    <glyph glyph-name="l" unicode="l" horiz-adv-x="261" 
d="M68 0v736h124v-736h-124z" />
    <glyph glyph-name="m" unicode="m" horiz-adv-x="899" 
d="M792 466.5q42 -51.5 42 -156.5v-310h-125v306q0 60 -19.5 86.5t-64.5 26.5q-52 0 -81.5 -36.5t-29.5 -100.5v-282h-125v306q0 59 -20.5 86t-64.5 27q-52 0 -82 -36.5t-30 -100.5v-282h-124v362q0 80 -8 143h117l9 -80q22 45 63.5 69t95.5 24q116 0 151 -96
q24 45 68.5 70.5t99.5 25.5q86 0 128 -51.5z" />
    <glyph glyph-name="n" unicode="n" horiz-adv-x="603" 
d="M538 310v-310h-125v304q0 60 -23 87.5t-71 27.5q-57 0 -92 -36.5t-35 -96.5v-286h-124v362q0 80 -8 143h117l9 -83q26 46 70.5 71t100.5 25q181 0 181 -208z" />
    <glyph glyph-name="o" unicode="o" horiz-adv-x="592" 
d="M161.5 24q-58.5 32 -90 91.5t-31.5 139.5t31.5 139.5t90 91.5t135.5 32q76 0 134 -32t89.5 -91.5t31.5 -139.5t-31.5 -139.5t-89.5 -91.5t-134 -32q-77 0 -135.5 32zM393.5 131.5q33.5 41.5 33.5 123.5q0 81 -34 123.5t-96 42.5q-63 0 -97 -42.5t-34 -123.5
q0 -82 33.5 -123.5t96.5 -41.5q64 0 97.5 41.5z" />
    <glyph glyph-name="p" unicode="p" horiz-adv-x="620" 
d="M471.5 484.5q50.5 -33.5 79 -94t28.5 -138.5t-28 -137t-78.5 -91t-116.5 -32q-55 0 -98 23.5t-66 65.5v-297h-124v578q0 80 -8 143h117l10 -87q20 47 65 73.5t104 26.5q65 0 115.5 -33.5zM419 132q34 42 34 120q0 79 -34 123.5t-96 44.5q-64 0 -98 -43t-34 -123
q0 -79 34 -121.5t97 -42.5t97 42z" />
    <glyph glyph-name="q" unicode="q" horiz-adv-x="619" 
d="M560 505q-9 -60 -9 -143v-578h-125v293q-23 -41 -65.5 -63t-96.5 -22q-66 0 -117 32t-79 91t-28 137t28.5 138.5t79.5 94t116 33.5q58 0 103 -26t66 -73l9 86h118zM394 133q34 43 34 121q0 80 -34 123t-97 43q-62 0 -96.5 -44.5t-34.5 -123.5q0 -78 34.5 -120t97.5 -42
q62 0 96 43z" />
    <glyph glyph-name="r" unicode="r" horiz-adv-x="392" 
d="M390 509l-1 -114q-32 13 -66 13q-64 0 -97.5 -37t-33.5 -98v-273h-124v362q0 80 -8 143h117l10 -89q19 49 60 75t93 26q29 0 50 -8z" />
    <glyph glyph-name="s" unicode="s" horiz-adv-x="501" 
d="M35 56l35 88q81 -60 185 -60q45 0 69.5 15t24.5 42q0 23 -17 36.5t-58 23.5l-84 19q-138 30 -138 141q0 46 26 81.5t73 55.5t109 20q54 0 104 -16.5t88 -47.5l-37 -85q-76 56 -156 56q-43 0 -67 -16t-24 -44q0 -22 14.5 -35t49.5 -22l86 -19q75 -17 109.5 -52.5
t34.5 -92.5q0 -70 -56 -111t-153 -41q-137 0 -218 64z" />
    <glyph glyph-name="t" unicode="t" horiz-adv-x="379" 
d="M227 411v-226q0 -89 83 -89q23 0 50 8v-99q-33 -12 -80 -12q-86 0 -132 48t-46 138v232h-97v94h97v123l125 42v-165h134v-94h-134z" />
    <glyph glyph-name="u" unicode="u" horiz-adv-x="596" 
d="M528 505v-505h-122v78q-24 -42 -64 -64t-92 -22q-185 0 -185 208v305h124v-306q0 -55 22.5 -81t69.5 -26q55 0 88 36t33 96v281h126z" />
    <glyph glyph-name="v" unicode="v" horiz-adv-x="543" 
d="M422 504h124l-221 -504h-109l-218 504h131l145 -362z" />
    <glyph glyph-name="w" unicode="w" horiz-adv-x="883" 
d="M750 505h122l-198 -505h-109l-125 331l-122 -331h-110l-198 505h128l130 -356l131 356h90l131 -359z" />
    <glyph glyph-name="x" unicode="x" horiz-adv-x="549" 
d="M347 260l212 -260h-149l-136 171l-136 -171h-148l212 260l-199 245h148l123 -157l123 157h149z" />
    <glyph glyph-name="y" unicode="y" horiz-adv-x="543" 
d="M546 505l-235 -539q-40 -94 -102 -137t-153 -57l-28 96q71 16 106.5 40.5t57.5 72.5l16 37l-210 487h131l145 -363l148 363h124z" />
    <glyph glyph-name="z" unicode="z" horiz-adv-x="526" 
d="M197 95h291v-95h-439v87l279 324h-273v94h422v-85z" />
    <glyph glyph-name="braceleft" unicode="{" horiz-adv-x="391" 
d="M243.5 302.5q-23.5 -30.5 -56.5 -37.5q33 -7 56.5 -37.5t23.5 -76.5v-150q0 -42 20 -65t50 -23h42v-95h-62q-84 0 -128.5 41t-44.5 119v145q0 49 -14 70.5t-50 31.5l-37 11v58l37 11q36 10 50 31.5t14 70.5v145q0 78 45.5 119t127.5 41h62v-95h-42q-30 0 -50 -23t-20 -65
v-150q0 -46 -23.5 -76.5z" />
    <glyph glyph-name="bar" unicode="|" horiz-adv-x="282" 
d="M82 -182v894h117v-894h-117z" />
    <glyph glyph-name="braceright" unicode="}" horiz-adv-x="391" 
d="M348 294v-58l-37 -11q-36 -10 -50 -31.5t-14 -70.5v-145q0 -78 -44.5 -119t-128.5 -41h-62v95h43q29 0 49 23t20 65v150q0 46 23.5 76.5t56.5 37.5q-33 7 -56.5 37.5t-23.5 76.5v150q0 42 -20 65t-49 23h-43v95h62q82 0 127.5 -41t45.5 -119v-145q0 -49 14 -70.5
t50 -31.5z" />
    <glyph glyph-name="asciitilde" unicode="~" horiz-adv-x="600" 
d="M546 315q-17 -49 -53 -77t-82 -28q-30 0 -59 11t-70 32q-34 17 -51 24t-34 7q-28 0 -46 -16t-30 -48l-67 43q17 49 53 77t82 28q31 0 60.5 -11t68.5 -31q34 -17 51 -24t34 -7q28 0 46 15.5t30 46.5z" />
    <glyph glyph-name="uni00A0" unicode="&#xa0;" horiz-adv-x="274" 
 />
    <glyph glyph-name="exclamdown" unicode="&#xa1;" horiz-adv-x="251" 
d="M55 355v139h140v-139h-140zM87 280h76l39 -461l-155 -1z" />
    <glyph glyph-name="cent" unicode="&#xa2;" horiz-adv-x="600" 
d="M530 56q-47 -43 -129 -59v-116h-102v113q-99 13 -157.5 82t-58.5 176q0 106 59 177t157 86v113h102v-115q39 -7 72.5 -22t56.5 -37l-35 -88q-43 34 -94 47v-317q52 13 94 48zM234.5 154.5q22.5 -39.5 64.5 -55.5v311q-42 -16 -64.5 -56t-22.5 -100t22.5 -99.5z" />
    <glyph glyph-name="sterling" unicode="&#xa3;" horiz-adv-x="600" 
d="M240.5 157q-11.5 -32 -40.5 -52h369v-105h-528v87q47 23 65.5 52.5t18.5 80.5v96h-84v81h84v125q0 59 27 104.5t76.5 70t114.5 24.5q67 0 127 -21.5t106 -62.5l-43 -94q-46 37 -92.5 56t-88.5 19q-48 0 -74 -27t-26 -78v-116h170v-81h-170v-76q0 -51 -11.5 -83z" />
    <glyph glyph-name="currency" unicode="&#xa4;" horiz-adv-x="600" 
d="M494 97l54 -56l-50 -50l-54 56q-30 -24 -67.5 -37t-77.5 -13q-82 0 -145 49l-55 -55l-51 50l55 57q-48 67 -48 149q0 83 48 150l-55 56l52 52l54 -56q65 49 145 49q79 0 143 -48l54 56l54 -54l-55 -56q47 -68 47 -149q0 -83 -48 -150zM369.5 116.5q32.5 20.5 51.5 55
t19 75.5t-19 76t-51.5 55.5t-70.5 20.5q-39 0 -72 -20.5t-52 -55.5t-19 -76t19 -75.5t51.5 -55t72.5 -20.5q38 0 70.5 20.5z" />
    <glyph glyph-name="yen" unicode="&#xa5;" horiz-adv-x="600" 
d="M619 712l-216 -312h131v-80h-170v-74h170v-80h-170v-166h-129v166h-169v80h169v74h-169v80h131l-216 312h140l179 -267l179 267h140z" />
    <glyph glyph-name="brokenbar" unicode="&#xa6;" horiz-adv-x="282" 
d="M82 375v337h117v-337h-117zM82 -182v338h117v-338h-117z" />
    <glyph glyph-name="section" unicode="&#xa7;" horiz-adv-x="569" 
d="M517.5 141q-16.5 -35 -46.5 -61q23 -38 23 -82q0 -88 -58.5 -137.5t-163.5 -49.5q-131 0 -212 63l35 88q83 -56 172 -56q48 0 76.5 21.5t28.5 60.5q0 30 -17.5 51t-57.5 41l-119 54q-76 35 -109.5 78t-33.5 103q0 40 16.5 75.5t46.5 61.5q-22 35 -22 80q0 86 61 136.5
t165 50.5q54 0 102 -16t84 -45l-35 -85q-72 52 -148 52q-51 0 -79 -21.5t-28 -61.5q0 -29 17.5 -50.5t56.5 -40.5l118 -55q75 -35 109.5 -78.5t34.5 -102.5q0 -39 -16.5 -74zM407 145q14 23 14 48q0 31 -22 57t-69 50l-119 59q-14 7 -49 28q-14 -23 -14 -50q0 -31 21.5 -56
t68.5 -50l120 -57q28 -14 49 -29z" />
    <glyph glyph-name="dieresis" unicode="&#xa8;" horiz-adv-x="300" 
d="M-1 719h120v-115h-120v115zM184 719h120v-115h-120v115z" />
    <glyph glyph-name="copyright" unicode="&#xa9;" horiz-adv-x="823" 
d="M228.5 43q-82.5 48 -130 130.5t-47.5 183.5t47.5 183t130 129.5t183.5 47.5t183.5 -47.5t130 -130t47.5 -182.5q0 -101 -47.5 -183.5t-130.5 -130.5t-183 -48q-101 0 -183.5 48zM566 91q69 40 108 110t39 156q0 85 -39 154.5t-108 109.5t-154 40q-86 0 -155 -40
t-108 -109.5t-39 -154.5q0 -86 39 -156t108 -110t155 -40q85 0 154 40zM267.5 197q-57.5 59 -57.5 160q0 99 57.5 158t156.5 59q45 0 85.5 -13t69.5 -38l-31 -78q-22 18 -51 29t-58 11q-54 0 -84 -33.5t-30 -94.5q0 -63 30 -96.5t84 -33.5q29 0 58 11t51 29l31 -78
q-30 -24 -70 -37.5t-85 -13.5q-99 0 -156.5 59z" />
    <glyph glyph-name="ordfeminine" unicode="&#xaa;" horiz-adv-x="339" 
d="M275.5 685q34.5 -32 34.5 -101v-172h-100v48q-11 -26 -33.5 -39.5t-51.5 -13.5q-45 0 -74.5 28.5t-29.5 66.5q0 45 38 65.5t130 20.5h20v13q0 21 -11.5 30t-37.5 9q-49 0 -97 -25l-22 73q27 13 60.5 21t69.5 8q70 0 104.5 -32zM194 490.5q15 14.5 15 38.5v10h-10
q-48 0 -65 -8t-17 -24q0 -13 10.5 -22t28.5 -9q23 0 38 14.5z" />
    <glyph glyph-name="guillemotleft" unicode="&#xab;" horiz-adv-x="497" 
d="M158 86l-135 181l135 183h107l-130 -182l128 -182h-105zM366 86l-135 181l135 183h107l-130 -182l128 -182h-105z" />
    <glyph glyph-name="logicalnot" unicode="&#xac;" horiz-adv-x="600" 
d="M546 435v-293h-89v205h-403v88h492z" />
    <glyph glyph-name="uni00AD" unicode="&#xad;" horiz-adv-x="438" 
d="M69 220v100h301v-100h-301z" />
    <glyph glyph-name="registered" unicode="&#xae;" horiz-adv-x="823" 
d="M595.5 669.5q82.5 -47.5 130 -130t47.5 -182.5q0 -101 -47.5 -183.5t-130.5 -130.5t-183 -48q-101 0 -183.5 48t-130 130.5t-47.5 183.5t47.5 183t130 129.5t183.5 47.5t183.5 -47.5zM566 91q69 40 108 110t39 156q0 85 -39 154.5t-108 109.5t-154 40q-86 0 -155 -40
t-108 -109.5t-39 -154.5q0 -86 39 -156t108 -110t155 -40q85 0 154 40zM559 262l66 -119h-125l-73 137q-7 12 -15 17.5t-21 5.5h-35v-160h-111v427h195q75 0 115.5 -35.5t40.5 -96.5q0 -47 -26 -80.5t-74 -45.5q40 -10 63 -50zM473.5 394.5q15.5 11.5 15.5 38.5
q0 28 -15.5 40t-48.5 12h-69v-102h69q33 0 48.5 11.5z" />
    <glyph glyph-name="macron" unicode="&#xaf;" horiz-adv-x="300" 
d="M-4 620v82h311v-82h-311z" />
    <glyph glyph-name="degree" unicode="&#xb0;" horiz-adv-x="371" 
d="M108 436.5q-35 19.5 -55 54t-20 76.5t20 76.5t55 54t77 19.5t77 -19.5t55 -54t20 -76.5t-20 -76.5t-55 -54t-77 -19.5t-77 19.5zM241.5 508q22.5 23 22.5 59t-22.5 59t-56.5 23t-56 -23t-22 -59t22 -59t56 -23t56.5 23z" />
    <glyph glyph-name="plusminus" unicode="&#xb1;" horiz-adv-x="600" 
d="M344 380h202v-88h-202v-156h-88v156h-202v88h202v155h88v-155zM54 0v88h492v-88h-492z" />
    <glyph glyph-name="uni00B2" unicode="&#xb2;" horiz-adv-x="380" 
d="M345 371v-86h-299v80l138 147q41 46 41 77q0 21 -14 32.5t-41 11.5q-26 0 -56 -10.5t-59 -28.5l-23 78q30 20 72 32t84 12q67 0 106.5 -33t39.5 -87q0 -37 -17.5 -70t-61.5 -74l-83 -81h173z" />
    <glyph glyph-name="uni00B3" unicode="&#xb3;" horiz-adv-x="380" 
d="M324.5 467.5q20.5 -26.5 20.5 -65.5q0 -53 -42.5 -87t-119.5 -34q-42 0 -84.5 12t-71.5 32l22 78q62 -39 126 -39q68 0 68 47q0 48 -67 48h-65v83h54q66 0 66 48q0 20 -14.5 31.5t-41.5 11.5q-58 0 -120 -39l-23 78q29 19 71 31.5t79 12.5q72 0 112 -33t40 -84
q0 -33 -17.5 -58t-48.5 -36q36 -11 56.5 -37.5z" />
    <glyph glyph-name="acute" unicode="&#xb4;" horiz-adv-x="300" 
d="M192 559h-81l100 206h128z" />
    <glyph glyph-name="uni00B5" unicode="&#xb5;" horiz-adv-x="596" 
d="M528 505v-505h-122v78q-24 -42 -64 -64t-92 -22q-33 0 -61 11v-219h-124v721h124v-306q0 -55 22.5 -81t69.5 -26q55 0 88 36t33 96v281h126z" />
    <glyph glyph-name="paragraph" unicode="&#xb6;" horiz-adv-x="619" 
d="M541 -182h-89v814h-112v-814h-89v467q-64 0 -112.5 27t-75 75.5t-26.5 111.5t27 111t76 75t114 27h287v-894z" />
    <glyph glyph-name="periodcentered" unicode="&#xb7;" horiz-adv-x="251" 
d="M55 340h140v-140h-140v140z" />
    <glyph glyph-name="cedilla" unicode="&#xb8;" horiz-adv-x="300" 
d="M249.5 -58.5q22.5 -18.5 22.5 -51.5q0 -39 -34 -63t-95 -24q-22 0 -47.5 4.5t-44.5 13.5l12 53q43 -14 78 -14q50 0 50 30q0 22 -34 22q-14 0 -40 -7l-19 19l11 96h73l-8 -61q6 1 17 1q36 0 58.5 -18.5z" />
    <glyph glyph-name="uni00B9" unicode="&#xb9;" horiz-adv-x="380" 
d="M271 371h79v-86h-267v86h79v224l-74 -42v101l105 58h78v-341z" />
    <glyph glyph-name="ordmasculine" unicode="&#xba;" horiz-adv-x="365" 
d="M60.5 451q-42.5 44 -42.5 112q0 67 42.5 110.5t122.5 43.5q79 0 121.5 -43.5t42.5 -110.5q0 -68 -42.5 -112t-121.5 -44q-80 0 -122.5 44zM228 509q16 19 16 54t-16 53.5t-45 18.5t-45 -18.5t-16 -53.5t16 -54t45 -19t45 19z" />
    <glyph glyph-name="guillemotright" unicode="&#xbb;" horiz-adv-x="497" 
d="M132 86h-106l129 182l-131 182h108l134 -183zM340 86h-106l129 182l-131 182h108l134 -183z" />
    <glyph glyph-name="onequarter" unicode="&#xbc;" horiz-adv-x="952" 
d="M271 371h79v-86h-267v86h79v224l-74 -42v101l105 58h78v-341zM309 -28l-84 48l418 720l83 -48zM941 152v-80h-61v-72h-98v72h-191v76l203 279h86v-275h61zM682 152h100v137z" />
    <glyph glyph-name="onehalf" unicode="&#xbd;" horiz-adv-x="952" 
d="M271 371h79v-86h-267v86h79v224l-74 -42v101l105 58h78v-341zM309 -28l-84 48l418 720l83 -48zM917 86v-86h-299v80l138 147q41 46 41 77q0 21 -14 32.5t-41 11.5q-26 0 -56 -10.5t-59 -28.5l-23 78q30 20 72 32t84 12q67 0 106.5 -33t39.5 -87q0 -37 -17.5 -70
t-61.5 -74l-83 -81h173z" />
    <glyph glyph-name="threequarters" unicode="&#xbe;" horiz-adv-x="952" 
d="M324.5 467.5q20.5 -26.5 20.5 -65.5q0 -53 -42.5 -87t-119.5 -34q-42 0 -84.5 12t-71.5 32l22 78q62 -39 126 -39q68 0 68 47q0 48 -67 48h-65v83h54q66 0 66 48q0 20 -14.5 31.5t-41.5 11.5q-58 0 -120 -39l-23 78q29 19 71 31.5t79 12.5q72 0 112 -33t40 -84
q0 -33 -17.5 -58t-48.5 -36q36 -11 56.5 -37.5zM309 -28l-84 48l418 720l83 -48zM941 152v-80h-61v-72h-98v72h-191v76l203 279h86v-275h61zM682 152h100v137z" />
    <glyph glyph-name="questiondown" unicode="&#xbf;" horiz-adv-x="463" 
d="M170 355v139h140v-139h-140zM119 -170q-48 20 -76 57.5t-28 87.5q0 35 13.5 62.5t32.5 48t51 47.5q42 36 63 61.5t26 61.5l4 28h74v-41q0 -54 -20.5 -88.5t-58.5 -71.5q-29 -28 -43 -48.5t-14 -48.5q0 -33 23.5 -53t67.5 -20q70 0 141 43v-106q-67 -40 -150 -40
q-58 0 -106 20z" />
    <glyph glyph-name="Agrave" unicode="&#xc0;" horiz-adv-x="750" 
d="M621 0l-71 167h-348l-72 -167h-130l322 712h105l323 -712h-129zM245 267h262l-131 305zM334 773l-143 155h121l103 -155h-81z" />
    <glyph glyph-name="Aacute" unicode="&#xc1;" horiz-adv-x="750" 
d="M621 0l-71 167h-348l-72 -167h-130l322 712h105l323 -712h-129zM245 267h262l-131 305zM415 773h-81l103 155h121z" />
    <glyph glyph-name="Acircumflex" unicode="&#xc2;" horiz-adv-x="750" 
d="M621 0l-71 167h-348l-72 -167h-130l322 712h105l323 -712h-129zM245 267h262l-131 305zM308 773h-99l128 155h75l128 -155h-99l-66 92z" />
    <glyph glyph-name="Atilde" unicode="&#xc3;" horiz-adv-x="750" 
d="M621 0l-71 167h-348l-72 -167h-130l322 712h105l323 -712h-129zM245 267h262l-131 305zM232 886q28 34 74 34q19 0 35.5 -7t44.5 -23q37 -24 57 -24t31.5 14t13.5 37h57q0 -66 -28 -100t-74 -34q-19 0 -35.5 7t-44.5 23q-37 24 -57 24t-31.5 -14t-13.5 -37h-57
q0 66 28 100z" />
    <glyph glyph-name="Adieresis" unicode="&#xc4;" horiz-adv-x="750" 
d="M621 0l-71 167h-348l-72 -167h-130l322 712h105l323 -712h-129zM245 267h262l-131 305zM222 909h120v-115h-120v115zM407 909h120v-115h-120v115z" />
    <glyph glyph-name="Aring" unicode="&#xc5;" horiz-adv-x="750" 
d="M550 167h-348l-72 -167h-130l315 697q-21 14 -34 37t-13 50q0 44 31.5 74.5t75.5 30.5q45 0 76.5 -30.5t31.5 -74.5q0 -28 -13 -51t-36 -37l316 -696h-129zM342.5 817.5q-13.5 -13.5 -13.5 -33.5t13.5 -34t32.5 -14q20 0 33 14t13 34t-13 33.5t-33 13.5
q-19 0 -32.5 -13.5zM245 267h262l-131 305z" />
    <glyph glyph-name="AE" unicode="&#xc6;" horiz-adv-x="1007" 
d="M965 610h-343l15 -197h307v-102h-299l17 -209h303v-102h-412l-13 167h-321l-99 -167h-140l442 712h543v-102zM533 267l-27 343h-24l-204 -343h255z" />
    <glyph glyph-name="Ccedilla" unicode="&#xc7;" horiz-adv-x="685" 
d="M544.5 17q-57.5 -22 -124.5 -26l-4 -32q6 1 17 1q36 0 58.5 -18.5t22.5 -51.5q0 -39 -34 -63t-95 -24q-22 0 -47.5 4.5t-44.5 13.5l12 53q43 -14 78 -14q50 0 50 30q0 22 -34 22q-14 0 -40 -7l-19 19l8 70q-90 11 -156.5 58.5t-102 125.5t-35.5 179q0 110 42 192.5
t120.5 127t183.5 44.5q72 0 135.5 -22.5t105.5 -62.5l-42 -94q-48 39 -95.5 56.5t-101.5 17.5q-103 0 -159.5 -67t-56.5 -192q0 -126 56 -193.5t160 -67.5q54 0 101.5 17.5t95.5 56.5l42 -94q-39 -37 -96.5 -59z" />
    <glyph glyph-name="Egrave" unicode="&#xc8;" horiz-adv-x="595" 
d="M77 0v712h476v-102h-350v-197h329v-102h-329v-209h350v-102h-476zM290 773l-143 155h121l103 -155h-81z" />
    <glyph glyph-name="Eacute" unicode="&#xc9;" horiz-adv-x="595" 
d="M77 0v712h476v-102h-350v-197h329v-102h-329v-209h350v-102h-476zM371 773h-81l103 155h121z" />
    <glyph glyph-name="Ecircumflex" unicode="&#xca;" horiz-adv-x="595" 
d="M77 0v712h476v-102h-350v-197h329v-102h-329v-209h350v-102h-476zM264 773h-99l128 155h75l128 -155h-99l-66 92z" />
    <glyph glyph-name="Edieresis" unicode="&#xcb;" horiz-adv-x="595" 
d="M77 0v712h476v-102h-350v-197h329v-102h-329v-209h350v-102h-476zM178 909h120v-115h-120v115zM363 909h120v-115h-120v115z" />
    <glyph glyph-name="Igrave" unicode="&#xcc;" horiz-adv-x="283" 
d="M77 0v712h129v-712h-129zM100 773l-143 155h121l103 -155h-81z" />
    <glyph glyph-name="Iacute" unicode="&#xcd;" horiz-adv-x="283" 
d="M77 0v712h129v-712h-129zM181 773h-81l103 155h121z" />
    <glyph glyph-name="Icircumflex" unicode="&#xce;" horiz-adv-x="283" 
d="M77 0v712h129v-712h-129zM74 773h-99l128 155h75l128 -155h-99l-66 92z" />
    <glyph glyph-name="Idieresis" unicode="&#xcf;" horiz-adv-x="283" 
d="M77 0v712h129v-712h-129zM-12 909h120v-115h-120v115zM173 909h120v-115h-120v115z" />
    <glyph glyph-name="Eth" unicode="&#xd0;" horiz-adv-x="785" 
d="M633.5 619q96.5 -93 96.5 -262t-96.5 -263t-270.5 -94h-262v310h-89v100h89v302h262q174 0 270.5 -93zM601 357q0 250 -246 250h-125v-197h190v-100h-190v-205h125q246 0 246 252z" />
    <glyph glyph-name="Ntilde" unicode="&#xd1;" horiz-adv-x="755" 
d="M556 712h121v-712h-96l-384 499v-499h-120v712h96l383 -498v498zM234 886q28 34 74 34q19 0 35.5 -7t44.5 -23q37 -24 57 -24t31.5 14t13.5 37h57q0 -66 -28 -100t-74 -34q-19 0 -35.5 7t-44.5 23q-37 24 -57 24t-31.5 -14t-13.5 -37h-57q0 66 28 100z" />
    <glyph glyph-name="Ograve" unicode="&#xd2;" horiz-adv-x="786" 
d="M213.5 35.5q-76.5 44.5 -118 127t-41.5 194.5q0 111 41 193.5t117.5 126.5t180.5 44t180.5 -44t117 -126.5t40.5 -193.5q0 -112 -41 -194.5t-117 -127t-180 -44.5q-103 0 -179.5 44.5zM547 162q55 68 55 195q0 126 -55 193.5t-154 67.5t-154 -67t-55 -194t55 -195
t154 -68t154 68zM352 773l-143 155h121l103 -155h-81z" />
    <glyph glyph-name="Oacute" unicode="&#xd3;" horiz-adv-x="786" 
d="M213.5 35.5q-76.5 44.5 -118 127t-41.5 194.5q0 111 41 193.5t117.5 126.5t180.5 44t180.5 -44t117 -126.5t40.5 -193.5q0 -112 -41 -194.5t-117 -127t-180 -44.5q-103 0 -179.5 44.5zM547 162q55 68 55 195q0 126 -55 193.5t-154 67.5t-154 -67t-55 -194t55 -195
t154 -68t154 68zM433 773h-81l103 155h121z" />
    <glyph glyph-name="Ocircumflex" unicode="&#xd4;" horiz-adv-x="786" 
d="M213.5 35.5q-76.5 44.5 -118 127t-41.5 194.5q0 111 41 193.5t117.5 126.5t180.5 44t180.5 -44t117 -126.5t40.5 -193.5q0 -112 -41 -194.5t-117 -127t-180 -44.5q-103 0 -179.5 44.5zM547 162q55 68 55 195q0 126 -55 193.5t-154 67.5t-154 -67t-55 -194t55 -195
t154 -68t154 68zM326 773h-99l128 155h75l128 -155h-99l-66 92z" />
    <glyph glyph-name="Otilde" unicode="&#xd5;" horiz-adv-x="786" 
d="M213.5 35.5q-76.5 44.5 -118 127t-41.5 194.5q0 111 41 193.5t117.5 126.5t180.5 44t180.5 -44t117 -126.5t40.5 -193.5q0 -112 -41 -194.5t-117 -127t-180 -44.5q-103 0 -179.5 44.5zM547 162q55 68 55 195q0 126 -55 193.5t-154 67.5t-154 -67t-55 -194t55 -195
t154 -68t154 68zM250 886q28 34 74 34q19 0 35.5 -7t44.5 -23q37 -24 57 -24t31.5 14t13.5 37h57q0 -66 -28 -100t-74 -34q-19 0 -35.5 7t-44.5 23q-37 24 -57 24t-31.5 -14t-13.5 -37h-57q0 66 28 100z" />
    <glyph glyph-name="Odieresis" unicode="&#xd6;" horiz-adv-x="786" 
d="M213.5 35.5q-76.5 44.5 -118 127t-41.5 194.5q0 111 41 193.5t117.5 126.5t180.5 44t180.5 -44t117 -126.5t40.5 -193.5q0 -112 -41 -194.5t-117 -127t-180 -44.5q-103 0 -179.5 44.5zM547 162q55 68 55 195q0 126 -55 193.5t-154 67.5t-154 -67t-55 -194t55 -195
t154 -68t154 68zM240 909h120v-115h-120v115zM425 909h120v-115h-120v115z" />
    <glyph glyph-name="multiply" unicode="&#xd7;" horiz-adv-x="600" 
d="M536 462l-174 -173l174 -174l-62 -62l-174 174l-174 -174l-62 62l174 174l-174 173l62 63l174 -174l174 174z" />
    <glyph glyph-name="Oslash" unicode="&#xd8;" horiz-adv-x="786" 
d="M702 524q29 -73 29 -167q0 -112 -41 -194.5t-117 -127t-180 -44.5q-78 0 -141 26l-45 -77l-84 50l45 78q-55 48 -84.5 121.5t-29.5 167.5q0 111 41 193.5t117.5 126.5t180.5 44q77 0 141 -25l45 76l84 -50l-45 -77q55 -48 84 -121zM230 174l250 428q-42 16 -87 16
q-99 0 -154 -67t-55 -194q0 -116 46 -183zM547 162q55 68 55 195q0 115 -46 182l-250 -428q40 -17 87 -17q99 0 154 68z" />
    <glyph glyph-name="Ugrave" unicode="&#xd9;" horiz-adv-x="740" 
d="M148.5 66.5q-75.5 75.5 -75.5 221.5v424h127v-431q0 -92 43 -139.5t128 -47.5q83 0 126.5 48t43.5 139v431h127v-424q0 -145 -76 -221t-221 -76q-147 0 -222.5 75.5zM330 773l-143 155h121l103 -155h-81z" />
    <glyph glyph-name="Uacute" unicode="&#xda;" horiz-adv-x="740" 
d="M148.5 66.5q-75.5 75.5 -75.5 221.5v424h127v-431q0 -92 43 -139.5t128 -47.5q83 0 126.5 48t43.5 139v431h127v-424q0 -145 -76 -221t-221 -76q-147 0 -222.5 75.5zM411 773h-81l103 155h121z" />
    <glyph glyph-name="Ucircumflex" unicode="&#xdb;" horiz-adv-x="740" 
d="M148.5 66.5q-75.5 75.5 -75.5 221.5v424h127v-431q0 -92 43 -139.5t128 -47.5q83 0 126.5 48t43.5 139v431h127v-424q0 -145 -76 -221t-221 -76q-147 0 -222.5 75.5zM304 773h-99l128 155h75l128 -155h-99l-66 92z" />
    <glyph glyph-name="Udieresis" unicode="&#xdc;" horiz-adv-x="740" 
d="M148.5 66.5q-75.5 75.5 -75.5 221.5v424h127v-431q0 -92 43 -139.5t128 -47.5q83 0 126.5 48t43.5 139v431h127v-424q0 -145 -76 -221t-221 -76q-147 0 -222.5 75.5zM218 909h120v-115h-120v115zM403 909h120v-115h-120v115z" />
    <glyph glyph-name="Yacute" unicode="&#xdd;" horiz-adv-x="629" 
d="M668 712l-289 -430v-282h-129v282l-289 430h147l206 -322l207 322h147zM354 773h-81l103 155h121z" />
    <glyph glyph-name="Thorn" unicode="&#xde;" horiz-adv-x="667" 
d="M566.5 511q62.5 -53 62.5 -148q0 -96 -63.5 -149.5t-174.5 -53.5h-187v-160h-127v712h127v-148h187q113 0 175.5 -53zM474 285.5q33 24.5 33 77.5q0 52 -33 76t-102 24h-168v-202h168q69 0 102 24.5z" />
    <glyph glyph-name="germandbls" unicode="&#xdf;" horiz-adv-x="673" 
d="M592 292.5q56 -51.5 56 -131.5q0 -77 -55.5 -123t-149.5 -46q-59 0 -110.5 16.5t-86.5 47.5l36 90q75 -59 161 -59q44 0 66.5 21t22.5 58q0 48 -54.5 84.5t-182.5 68.5v93q82 28 115 63t33 84q0 45 -27.5 68.5t-78.5 23.5q-71 0 -108 -40t-37 -120v-491h-124v474
q0 132 69 200.5t199 68.5q105 0 164.5 -47t59.5 -132q0 -62 -32 -108.5t-113 -80.5q121 -31 177 -82.5z" />
    <glyph glyph-name="agrave" unicode="&#xe0;" horiz-adv-x="619" 
d="M551 505v-505h-123v81q-23 -42 -66 -65.5t-98 -23.5q-66 0 -117 32t-79 91t-28 137t28.5 138.5t79.5 94t116 33.5q55 0 98 -23.5t66 -65.5v76h123zM394 133q34 43 34 121q0 80 -34 123t-97 43q-62 0 -96.5 -44.5t-34.5 -123.5q0 -78 34.5 -120t97.5 -42q62 0 96 43z
M268 570l-147 206h128l100 -206h-81z" />
    <glyph glyph-name="aacute" unicode="&#xe1;" horiz-adv-x="619" 
d="M551 505v-505h-123v81q-23 -42 -66 -65.5t-98 -23.5q-66 0 -117 32t-79 91t-28 137t28.5 138.5t79.5 94t116 33.5q55 0 98 -23.5t66 -65.5v76h123zM394 133q34 43 34 121q0 80 -34 123t-97 43q-62 0 -96.5 -44.5t-34.5 -123.5q0 -78 34.5 -120t97.5 -42q62 0 96 43z
M349 570h-81l100 206h128z" />
    <glyph glyph-name="acircumflex" unicode="&#xe2;" horiz-adv-x="619" 
d="M551 505v-505h-123v81q-23 -42 -66 -65.5t-98 -23.5q-66 0 -117 32t-79 91t-28 137t28.5 138.5t79.5 94t116 33.5q55 0 98 -23.5t66 -65.5v76h123zM394 133q34 43 34 121q0 80 -34 123t-97 43q-62 0 -96.5 -44.5t-34.5 -123.5q0 -78 34.5 -120t97.5 -42q62 0 96 43z
M245 570h-102l126 206h79l126 -206h-102l-63 128z" />
    <glyph glyph-name="atilde" unicode="&#xe3;" horiz-adv-x="619" 
d="M551 505v-505h-123v81q-23 -42 -66 -65.5t-98 -23.5q-66 0 -117 32t-79 91t-28 137t28.5 138.5t79.5 94t116 33.5q55 0 98 -23.5t66 -65.5v76h123zM394 133q34 43 34 121q0 80 -34 123t-97 43q-62 0 -96.5 -44.5t-34.5 -123.5q0 -78 34.5 -120t97.5 -42q62 0 96 43z
M166 708.5q28 34.5 74 34.5q19 0 36.5 -7.5t43.5 -23.5q20 -12 33 -18t24 -6q20 0 31.5 14.5t13.5 37.5h57q0 -66 -28 -100.5t-74 -34.5q-19 0 -35.5 7t-44.5 23q-37 24 -57 24t-31.5 -14t-13.5 -37h-57q0 66 28 100.5z" />
    <glyph glyph-name="adieresis" unicode="&#xe4;" horiz-adv-x="619" 
d="M551 505v-505h-123v81q-23 -42 -66 -65.5t-98 -23.5q-66 0 -117 32t-79 91t-28 137t28.5 138.5t79.5 94t116 33.5q55 0 98 -23.5t66 -65.5v76h123zM394 133q34 43 34 121q0 80 -34 123t-97 43q-62 0 -96.5 -44.5t-34.5 -123.5q0 -78 34.5 -120t97.5 -42q62 0 96 43z
M156 730h120v-115h-120v115zM341 730h120v-115h-120v115z" />
    <glyph glyph-name="aring" unicode="&#xe5;" horiz-adv-x="619" 
d="M551 505v-505h-123v81q-23 -42 -66 -65.5t-98 -23.5q-66 0 -117 32t-79 91t-28 137t28.5 138.5t79.5 94t116 33.5q55 0 98 -23.5t66 -65.5v76h123zM394 133q34 43 34 121q0 80 -34 123t-97 43q-62 0 -96.5 -44.5t-34.5 -123.5q0 -78 34.5 -120t97.5 -42q62 0 96 43z
M232.5 598.5q-31.5 30.5 -31.5 75.5q0 43 31.5 73.5t76.5 30.5q44 0 75.5 -30.5t31.5 -73.5q0 -45 -31 -75.5t-76 -30.5t-76.5 30.5zM341 639q13 14 13 35q0 20 -13 33.5t-32 13.5q-20 0 -33 -13.5t-13 -33.5q0 -21 13 -35t33 -14q19 0 32 14z" />
    <glyph glyph-name="ae" unicode="&#xe6;" horiz-adv-x="872" 
d="M833 246h-341q2 -75 38.5 -116.5t108.5 -41.5q38 0 76.5 14t73.5 40l35 -86q-34 -29 -86.5 -46.5t-104.5 -17.5q-74 0 -127.5 28.5t-83.5 83.5q-22 -54 -68.5 -83t-109.5 -29q-56 0 -100.5 20.5t-70 57.5t-25.5 85q0 56 28.5 90.5t91 51t166.5 16.5h38v8q0 53 -21.5 76.5
t-71.5 23.5q-88 0 -175 -52l-35 86q41 28 101 45.5t114 17.5q120 0 166 -74q31 36 74.5 55t95.5 19q64 0 112 -31.5t74.5 -89t26.5 -133.5v-18zM497 313h228q-5 56 -33 85.5t-75 29.5q-99 0 -120 -115zM341.5 118q30.5 36 30.5 93v36h-32q-92 0 -130.5 -20.5t-38.5 -65.5
q0 -36 24.5 -57.5t63.5 -21.5q52 0 82.5 36z" />
    <glyph glyph-name="ccedilla" unicode="&#xe7;" horiz-adv-x="503" 
d="M412.5 11.5q-45.5 -16.5 -96.5 -18.5l-4 -34q6 1 17 1q36 0 58.5 -18.5t22.5 -51.5q0 -39 -34 -63t-95 -24q-22 0 -47.5 4.5t-44.5 13.5l12 53q43 -14 78 -14q50 0 50 30q0 22 -34 22q-14 0 -40 -7l-19 19l8 72q-96 15 -150 83t-54 173q0 79 32.5 139t92 93.5t137.5 33.5
q54 0 104.5 -17t80.5 -47l-35 -88q-32 26 -68 39.5t-71 13.5q-68 0 -106 -42.5t-38 -122.5t37.5 -122t106.5 -42q35 0 71 14t68 40l35 -88q-29 -28 -74.5 -44.5z" />
    <glyph glyph-name="egrave" unicode="&#xe8;" horiz-adv-x="548" 
d="M510 246h-348q4 -81 40.5 -119.5t108.5 -38.5q83 0 154 54l36 -86q-36 -29 -88.5 -46.5t-106.5 -17.5q-124 0 -195 70t-71 192q0 77 31 137t87 93.5t127 33.5q104 0 164.5 -67.5t60.5 -185.5v-19zM206.5 398.5q-31.5 -29.5 -40.5 -85.5h235q-6 57 -34.5 86t-78.5 29
t-81.5 -29.5zM244 570l-147 206h128l100 -206h-81z" />
    <glyph glyph-name="eacute" unicode="&#xe9;" horiz-adv-x="548" 
d="M510 246h-348q4 -81 40.5 -119.5t108.5 -38.5q83 0 154 54l36 -86q-36 -29 -88.5 -46.5t-106.5 -17.5q-124 0 -195 70t-71 192q0 77 31 137t87 93.5t127 33.5q104 0 164.5 -67.5t60.5 -185.5v-19zM206.5 398.5q-31.5 -29.5 -40.5 -85.5h235q-6 57 -34.5 86t-78.5 29
t-81.5 -29.5zM325 570h-81l100 206h128z" />
    <glyph glyph-name="ecircumflex" unicode="&#xea;" horiz-adv-x="548" 
d="M510 246h-348q4 -81 40.5 -119.5t108.5 -38.5q83 0 154 54l36 -86q-36 -29 -88.5 -46.5t-106.5 -17.5q-124 0 -195 70t-71 192q0 77 31 137t87 93.5t127 33.5q104 0 164.5 -67.5t60.5 -185.5v-19zM206.5 398.5q-31.5 -29.5 -40.5 -85.5h235q-6 57 -34.5 86t-78.5 29
t-81.5 -29.5zM221 570h-102l126 206h79l126 -206h-102l-63 128z" />
    <glyph glyph-name="edieresis" unicode="&#xeb;" horiz-adv-x="548" 
d="M510 246h-348q4 -81 40.5 -119.5t108.5 -38.5q83 0 154 54l36 -86q-36 -29 -88.5 -46.5t-106.5 -17.5q-124 0 -195 70t-71 192q0 77 31 137t87 93.5t127 33.5q104 0 164.5 -67.5t60.5 -185.5v-19zM206.5 398.5q-31.5 -29.5 -40.5 -85.5h235q-6 57 -34.5 86t-78.5 29
t-81.5 -29.5zM132 730h120v-115h-120v115zM317 730h120v-115h-120v115z" />
    <glyph glyph-name="igrave" unicode="&#xec;" horiz-adv-x="261" 
d="M68 0v505h124v-505h-124zM89 570l-147 206h128l100 -206h-81z" />
    <glyph glyph-name="iacute" unicode="&#xed;" horiz-adv-x="261" 
d="M68 0v505h124v-505h-124zM170 570h-81l100 206h128z" />
    <glyph glyph-name="icircumflex" unicode="&#xee;" horiz-adv-x="261" 
d="M68 0v505h124v-505h-124zM66 570h-102l126 206h79l126 -206h-102l-63 128z" />
    <glyph glyph-name="idieresis" unicode="&#xef;" horiz-adv-x="261" 
d="M68 0v505h124v-505h-124zM-23 730h120v-115h-120v115zM162 730h120v-115h-120v115z" />
    <glyph glyph-name="eth" unicode="&#xf0;" horiz-adv-x="599" 
d="M533 457.5q25 -73.5 25 -154.5q0 -150 -69 -230.5t-197 -80.5q-74 0 -131.5 30t-89 84.5t-31.5 125.5q0 70 30.5 124t85.5 84t126 30q97 0 148 -56q-21 85 -79 143l-173 -53l-19 68l125 38q-57 34 -128 48l29 88q129 -24 219 -99l131 40l18 -68l-93 -29q48 -59 73 -132.5
zM392.5 127q34.5 37 34.5 105q0 69 -34 106t-96 37q-64 0 -97.5 -37t-33.5 -106q0 -70 33 -106t97 -36q62 0 96.5 37z" />
    <glyph glyph-name="ntilde" unicode="&#xf1;" horiz-adv-x="603" 
d="M538 310v-310h-125v304q0 60 -23 87.5t-71 27.5q-57 0 -92 -36.5t-35 -96.5v-286h-124v362q0 80 -8 143h117l9 -83q26 46 70.5 71t100.5 25q181 0 181 -208zM159 708.5q28 34.5 74 34.5q19 0 36.5 -7.5t43.5 -23.5q20 -12 33 -18t24 -6q20 0 31.5 14.5t13.5 37.5h57
q0 -66 -28 -100.5t-74 -34.5q-19 0 -35.5 7t-44.5 23q-37 24 -57 24t-31.5 -14t-13.5 -37h-57q0 66 28 100.5z" />
    <glyph glyph-name="ograve" unicode="&#xf2;" horiz-adv-x="592" 
d="M161.5 24q-58.5 32 -90 91.5t-31.5 139.5t31.5 139.5t90 91.5t135.5 32q76 0 134 -32t89.5 -91.5t31.5 -139.5t-31.5 -139.5t-89.5 -91.5t-134 -32q-77 0 -135.5 32zM393.5 131.5q33.5 41.5 33.5 123.5q0 81 -34 123.5t-96 42.5q-63 0 -97 -42.5t-34 -123.5
q0 -82 33.5 -123.5t96.5 -41.5q64 0 97.5 41.5zM256 570l-147 206h128l100 -206h-81z" />
    <glyph glyph-name="oacute" unicode="&#xf3;" horiz-adv-x="592" 
d="M161.5 24q-58.5 32 -90 91.5t-31.5 139.5t31.5 139.5t90 91.5t135.5 32q76 0 134 -32t89.5 -91.5t31.5 -139.5t-31.5 -139.5t-89.5 -91.5t-134 -32q-77 0 -135.5 32zM393.5 131.5q33.5 41.5 33.5 123.5q0 81 -34 123.5t-96 42.5q-63 0 -97 -42.5t-34 -123.5
q0 -82 33.5 -123.5t96.5 -41.5q64 0 97.5 41.5zM337 570h-81l100 206h128z" />
    <glyph glyph-name="ocircumflex" unicode="&#xf4;" horiz-adv-x="592" 
d="M161.5 24q-58.5 32 -90 91.5t-31.5 139.5t31.5 139.5t90 91.5t135.5 32q76 0 134 -32t89.5 -91.5t31.5 -139.5t-31.5 -139.5t-89.5 -91.5t-134 -32q-77 0 -135.5 32zM393.5 131.5q33.5 41.5 33.5 123.5q0 81 -34 123.5t-96 42.5q-63 0 -97 -42.5t-34 -123.5
q0 -82 33.5 -123.5t96.5 -41.5q64 0 97.5 41.5zM233 570h-102l126 206h79l126 -206h-102l-63 128z" />
    <glyph glyph-name="otilde" unicode="&#xf5;" horiz-adv-x="592" 
d="M161.5 24q-58.5 32 -90 91.5t-31.5 139.5t31.5 139.5t90 91.5t135.5 32q76 0 134 -32t89.5 -91.5t31.5 -139.5t-31.5 -139.5t-89.5 -91.5t-134 -32q-77 0 -135.5 32zM393.5 131.5q33.5 41.5 33.5 123.5q0 81 -34 123.5t-96 42.5q-63 0 -97 -42.5t-34 -123.5
q0 -82 33.5 -123.5t96.5 -41.5q64 0 97.5 41.5zM154 708.5q28 34.5 74 34.5q19 0 36.5 -7.5t43.5 -23.5q20 -12 33 -18t24 -6q20 0 31.5 14.5t13.5 37.5h57q0 -66 -28 -100.5t-74 -34.5q-19 0 -35.5 7t-44.5 23q-37 24 -57 24t-31.5 -14t-13.5 -37h-57q0 66 28 100.5z" />
    <glyph glyph-name="odieresis" unicode="&#xf6;" horiz-adv-x="592" 
d="M161.5 24q-58.5 32 -90 91.5t-31.5 139.5t31.5 139.5t90 91.5t135.5 32q76 0 134 -32t89.5 -91.5t31.5 -139.5t-31.5 -139.5t-89.5 -91.5t-134 -32q-77 0 -135.5 32zM393.5 131.5q33.5 41.5 33.5 123.5q0 81 -34 123.5t-96 42.5q-63 0 -97 -42.5t-34 -123.5
q0 -82 33.5 -123.5t96.5 -41.5q64 0 97.5 41.5zM144 730h120v-115h-120v115zM329 730h120v-115h-120v115z" />
    <glyph glyph-name="divide" unicode="&#xf7;" horiz-adv-x="600" 
d="M239 428v111h110v-111h-110zM546 333v-89h-492v89h492zM239 34v112h110v-112h-110z" />
    <glyph glyph-name="oslash" unicode="&#xf8;" horiz-adv-x="592" 
d="M528.5 377q23.5 -54 23.5 -122q0 -80 -31.5 -139.5t-89.5 -91.5t-134 -32q-54 0 -102 17l-38 -66l-63 37l37 64q-44 34 -67.5 88t-23.5 123q0 80 31.5 139.5t90 91.5t135.5 32q54 0 100 -17l38 65l64 -36l-38 -64q44 -35 67.5 -89zM189 143l157 270q-24 8 -49 8
q-65 0 -99.5 -42t-34.5 -124q0 -71 26 -112zM395 130.5q34 41.5 34 124.5q0 69 -25 111l-158 -270q21 -7 50 -7q65 0 99 41.5z" />
    <glyph glyph-name="ugrave" unicode="&#xf9;" horiz-adv-x="596" 
d="M528 505v-505h-122v78q-24 -42 -64 -64t-92 -22q-185 0 -185 208v305h124v-306q0 -55 22.5 -81t69.5 -26q55 0 88 36t33 96v281h126zM256 570l-147 206h128l100 -206h-81z" />
    <glyph glyph-name="uacute" unicode="&#xfa;" horiz-adv-x="596" 
d="M528 505v-505h-122v78q-24 -42 -64 -64t-92 -22q-185 0 -185 208v305h124v-306q0 -55 22.5 -81t69.5 -26q55 0 88 36t33 96v281h126zM337 570h-81l100 206h128z" />
    <glyph glyph-name="ucircumflex" unicode="&#xfb;" horiz-adv-x="596" 
d="M528 505v-505h-122v78q-24 -42 -64 -64t-92 -22q-185 0 -185 208v305h124v-306q0 -55 22.5 -81t69.5 -26q55 0 88 36t33 96v281h126zM233 570h-102l126 206h79l126 -206h-102l-63 128z" />
    <glyph glyph-name="udieresis" unicode="&#xfc;" horiz-adv-x="596" 
d="M528 505v-505h-122v78q-24 -42 -64 -64t-92 -22q-185 0 -185 208v305h124v-306q0 -55 22.5 -81t69.5 -26q55 0 88 36t33 96v281h126zM144 730h120v-115h-120v115zM329 730h120v-115h-120v115z" />
    <glyph glyph-name="yacute" unicode="&#xfd;" horiz-adv-x="543" 
d="M546 505l-235 -539q-40 -94 -102 -137t-153 -57l-28 96q71 16 106.5 40.5t57.5 72.5l16 37l-210 487h131l145 -363l148 363h124zM312 570h-81l100 206h128z" />
    <glyph glyph-name="thorn" unicode="&#xfe;" horiz-adv-x="620" 
d="M471.5 485q50.5 -33 79 -93.5t28.5 -139.5t-28.5 -137.5t-79 -90.5t-115.5 -32q-55 0 -98 23.5t-66 65.5v-297h-124v952h124v-307q23 42 66 65.5t98 23.5q65 0 115.5 -33zM419 132q34 42 34 120q0 79 -34 123.5t-96 44.5q-64 0 -98 -43t-34 -123q0 -79 34 -121.5
t97 -42.5t97 42z" />
    <glyph glyph-name="ydieresis" unicode="&#xff;" horiz-adv-x="543" 
d="M546 505l-235 -539q-40 -94 -102 -137t-153 -57l-28 96q71 16 106.5 40.5t57.5 72.5l16 37l-210 487h131l145 -363l148 363h124zM119 730h120v-115h-120v115zM304 730h120v-115h-120v115z" />
    <glyph glyph-name="Amacron" unicode="&#x100;" horiz-adv-x="750" 
d="M621 0l-71 167h-348l-72 -167h-130l322 712h105l323 -712h-129zM245 267h262l-131 305zM219 810v82h311v-82h-311z" />
    <glyph glyph-name="amacron" unicode="&#x101;" horiz-adv-x="619" 
d="M551 505v-505h-123v81q-23 -42 -66 -65.5t-98 -23.5q-66 0 -117 32t-79 91t-28 137t28.5 138.5t79.5 94t116 33.5q55 0 98 -23.5t66 -65.5v76h123zM394 133q34 43 34 121q0 80 -34 123t-97 43q-62 0 -96.5 -44.5t-34.5 -123.5q0 -78 34.5 -120t97.5 -42q62 0 96 43z
M153 631v82h311v-82h-311z" />
    <glyph glyph-name="Abreve" unicode="&#x102;" horiz-adv-x="750" 
d="M621 0l-71 167h-348l-72 -167h-130l322 712h105l323 -712h-129zM245 267h262l-131 305zM267 810q-46 27 -66 82l62 27q20 -32 47.5 -45t64.5 -13q36 0 63.5 13t47.5 45l62 -27q-20 -54 -65.5 -81.5t-107.5 -27.5t-108 27z" />
    <glyph glyph-name="abreve" unicode="&#x103;" horiz-adv-x="619" 
d="M551 505v-505h-123v81q-23 -42 -66 -65.5t-98 -23.5q-66 0 -117 32t-79 91t-28 137t28.5 138.5t79.5 94t116 33.5q55 0 98 -23.5t66 -65.5v76h123zM394 133q34 43 34 121q0 80 -34 123t-97 43q-62 0 -96.5 -44.5t-34.5 -123.5q0 -78 34.5 -120t97.5 -42q62 0 96 43z
M197.5 630.5q-49.5 34.5 -68.5 103.5l63 28q43 -84 117 -84q73 0 116 84l63 -27q-19 -69 -68 -104t-111 -35t-111.5 34.5z" />
    <glyph glyph-name="Aogonek" unicode="&#x104;" horiz-adv-x="750" 
d="M766 -176q-45 -21 -96 -21q-54 0 -89.5 30t-35.5 79q0 34 17.5 62.5t49.5 46.5l-62 146h-348l-72 -167h-130l322 712h105l323 -712h-40q-37 0 -58.5 -19.5t-21.5 -51.5q0 -27 16.5 -42t46.5 -15q25 0 56 14zM245 267h262l-131 305z" />
    <glyph glyph-name="aogonek" unicode="&#x105;" horiz-adv-x="619" 
d="M594 -180q-44 -22 -98 -22q-55 0 -90.5 31.5t-35.5 81.5q0 31 15 58t43 45v67q-23 -42 -66 -65.5t-98 -23.5q-66 0 -117 32.5t-79 91t-28 136.5t28.5 138.5t79.5 94t116 33.5q55 0 98 -23.5t66 -65.5v76h123v-505h-7q-40 0 -65 -20t-25 -53q0 -28 17 -43.5t48 -15.5
q27 0 57 15zM394 133q34 43 34 121q0 80 -34 123t-97 43q-62 0 -96.5 -44.5t-34.5 -123.5q0 -78 34.5 -120t97.5 -42q62 0 96 43z" />
    <glyph glyph-name="Cacute" unicode="&#x106;" horiz-adv-x="685" 
d="M216.5 36q-78.5 45 -120.5 127.5t-42 193.5q0 110 42 192.5t120.5 127t183.5 44.5q72 0 135.5 -22.5t105.5 -62.5l-42 -94q-48 39 -95.5 56.5t-101.5 17.5q-103 0 -159.5 -67t-56.5 -192q0 -126 56 -193.5t160 -67.5q54 0 101.5 17.5t95.5 56.5l42 -94
q-42 -40 -105.5 -62.5t-135.5 -22.5q-105 0 -183.5 45zM435 773h-81l103 155h121z" />
    <glyph glyph-name="cacute" unicode="&#x107;" horiz-adv-x="503" 
d="M160 24q-58 32 -89 90.5t-31 137.5t32.5 139t92 93.5t137.5 33.5q54 0 104.5 -17t80.5 -47l-35 -88q-32 26 -68 39.5t-71 13.5q-68 0 -106 -42.5t-38 -122.5t37.5 -122t106.5 -42q35 0 71 14t68 40l35 -88q-32 -30 -83 -47t-107 -17q-79 0 -137 32zM338 570h-81l100 206
h128z" />
    <glyph glyph-name="Ccircumflex" unicode="&#x108;" horiz-adv-x="685" 
d="M216.5 36q-78.5 45 -120.5 127.5t-42 193.5q0 110 42 192.5t120.5 127t183.5 44.5q72 0 135.5 -22.5t105.5 -62.5l-42 -94q-48 39 -95.5 56.5t-101.5 17.5q-103 0 -159.5 -67t-56.5 -192q0 -126 56 -193.5t160 -67.5q54 0 101.5 17.5t95.5 56.5l42 -94
q-42 -40 -105.5 -62.5t-135.5 -22.5q-105 0 -183.5 45zM328 773h-99l128 155h75l128 -155h-99l-66 92z" />
    <glyph glyph-name="ccircumflex" unicode="&#x109;" horiz-adv-x="503" 
d="M160 24q-58 32 -89 90.5t-31 137.5t32.5 139t92 93.5t137.5 33.5q54 0 104.5 -17t80.5 -47l-35 -88q-32 26 -68 39.5t-71 13.5q-68 0 -106 -42.5t-38 -122.5t37.5 -122t106.5 -42q35 0 71 14t68 40l35 -88q-32 -30 -83 -47t-107 -17q-79 0 -137 32zM234 570h-102l126 206
h79l126 -206h-102l-63 128z" />
    <glyph glyph-name="Cdotaccent" unicode="&#x10a;" horiz-adv-x="685" 
d="M216.5 36q-78.5 45 -120.5 127.5t-42 193.5q0 110 42 192.5t120.5 127t183.5 44.5q72 0 135.5 -22.5t105.5 -62.5l-42 -94q-48 39 -95.5 56.5t-101.5 17.5q-103 0 -159.5 -67t-56.5 -192q0 -126 56 -193.5t160 -67.5q54 0 101.5 17.5t95.5 56.5l42 -94
q-42 -40 -105.5 -62.5t-135.5 -22.5q-105 0 -183.5 45zM325 913h139v-123h-139v123z" />
    <glyph glyph-name="cdotaccent" unicode="&#x10b;" horiz-adv-x="503" 
d="M160 24q-58 32 -89 90.5t-31 137.5t32.5 139t92 93.5t137.5 33.5q54 0 104.5 -17t80.5 -47l-35 -88q-32 26 -68 39.5t-71 13.5q-68 0 -106 -42.5t-38 -122.5t37.5 -122t106.5 -42q35 0 71 14t68 40l35 -88q-32 -30 -83 -47t-107 -17q-79 0 -137 32zM228 734h139v-123
h-139v123z" />
    <glyph glyph-name="Ccaron" unicode="&#x10c;" horiz-adv-x="685" 
d="M216.5 36q-78.5 45 -120.5 127.5t-42 193.5q0 110 42 192.5t120.5 127t183.5 44.5q72 0 135.5 -22.5t105.5 -62.5l-42 -94q-48 39 -95.5 56.5t-101.5 17.5q-103 0 -159.5 -67t-56.5 -192q0 -126 56 -193.5t160 -67.5q54 0 101.5 17.5t95.5 56.5l42 -94
q-42 -40 -105.5 -62.5t-135.5 -22.5q-105 0 -183.5 45zM461 928h99l-128 -155h-75l-128 155h99l67 -93z" />
    <glyph glyph-name="ccaron" unicode="&#x10d;" horiz-adv-x="503" 
d="M160 24q-58 32 -89 90.5t-31 137.5t32.5 139t92 93.5t137.5 33.5q54 0 104.5 -17t80.5 -47l-35 -88q-32 26 -68 39.5t-71 13.5q-68 0 -106 -42.5t-38 -122.5t37.5 -122t106.5 -42q35 0 71 14t68 40l35 -88q-32 -30 -83 -47t-107 -17q-79 0 -137 32zM361 776h102
l-126 -206h-79l-126 206h102l64 -128z" />
    <glyph glyph-name="Dcaron" unicode="&#x10e;" horiz-adv-x="762" 
d="M77 712h262q175 0 271.5 -93t96.5 -262q0 -170 -96.5 -263.5t-271.5 -93.5h-262v712zM331 105q246 0 246 252q0 250 -246 250h-125v-502h125zM446 928h99l-128 -155h-75l-128 155h99l67 -93z" />
    <glyph glyph-name="dcaron" unicode="&#x10f;" horiz-adv-x="619" 
d="M426 736h125v-736h-123v81q-23 -42 -66 -65.5t-98 -23.5q-65 0 -116 33t-79.5 93.5t-28.5 138.5t28 137t79 91.5t117 32.5q54 0 96.5 -22.5t65.5 -63.5v304zM581 736h75l-27 -198h-48v198zM393.5 133q34.5 43 34.5 122t-34 122t-96 43q-63 0 -97.5 -42.5t-34.5 -120.5
q0 -79 34.5 -123t96.5 -44t96.5 43z" />
    <glyph glyph-name="Dcroat" unicode="&#x110;" horiz-adv-x="785" 
d="M633.5 619q96.5 -93 96.5 -262t-96.5 -263t-270.5 -94h-262v310h-89v100h89v302h262q174 0 270.5 -93zM601 357q0 250 -246 250h-125v-197h190v-100h-190v-205h125q246 0 246 252z" />
    <glyph glyph-name="dcroat" unicode="&#x111;" horiz-adv-x="619" 
d="M643 568h-92v-568h-123v81q-23 -42 -66 -65.5t-98 -23.5q-65 0 -116 33t-79.5 93.5t-28.5 138.5t28 137t79 91.5t117 32.5q54 0 96.5 -22.5t65.5 -63.5v136h-194v89h194v79h125v-79h92v-89zM393.5 133q34.5 43 34.5 122t-34 122t-96 43q-63 0 -97.5 -42.5t-34.5 -120.5
q0 -79 34.5 -123t96.5 -44t96.5 43z" />
    <glyph glyph-name="Emacron" unicode="&#x112;" horiz-adv-x="595" 
d="M77 0v712h476v-102h-350v-197h329v-102h-329v-209h350v-102h-476zM175 810v82h311v-82h-311z" />
    <glyph glyph-name="emacron" unicode="&#x113;" horiz-adv-x="548" 
d="M510 246h-348q4 -81 40.5 -119.5t108.5 -38.5q83 0 154 54l36 -86q-36 -29 -88.5 -46.5t-106.5 -17.5q-124 0 -195 70t-71 192q0 77 31 137t87 93.5t127 33.5q104 0 164.5 -67.5t60.5 -185.5v-19zM206.5 398.5q-31.5 -29.5 -40.5 -85.5h235q-6 57 -34.5 86t-78.5 29
t-81.5 -29.5zM129 631v82h311v-82h-311z" />
    <glyph glyph-name="Ebreve" unicode="&#x114;" horiz-adv-x="595" 
d="M77 0v712h476v-102h-350v-197h329v-102h-329v-209h350v-102h-476zM223 810q-46 27 -66 82l62 27q20 -32 47.5 -45t64.5 -13q36 0 63.5 13t47.5 45l62 -27q-20 -54 -65.5 -81.5t-107.5 -27.5t-108 27z" />
    <glyph glyph-name="ebreve" unicode="&#x115;" horiz-adv-x="548" 
d="M510 246h-348q4 -81 40.5 -119.5t108.5 -38.5q83 0 154 54l36 -86q-36 -29 -88.5 -46.5t-106.5 -17.5q-124 0 -195 70t-71 192q0 77 31 137t87 93.5t127 33.5q104 0 164.5 -67.5t60.5 -185.5v-19zM206.5 398.5q-31.5 -29.5 -40.5 -85.5h235q-6 57 -34.5 86t-78.5 29
t-81.5 -29.5zM173.5 630.5q-49.5 34.5 -68.5 103.5l63 28q43 -84 117 -84q73 0 116 84l63 -27q-19 -69 -68 -104t-111 -35t-111.5 34.5z" />
    <glyph glyph-name="Edotaccent" unicode="&#x116;" horiz-adv-x="595" 
d="M77 0v712h476v-102h-350v-197h329v-102h-329v-209h350v-102h-476zM261 913h139v-123h-139v123z" />
    <glyph glyph-name="edotaccent" unicode="&#x117;" horiz-adv-x="548" 
d="M510 246h-348q4 -81 40.5 -119.5t108.5 -38.5q83 0 154 54l36 -86q-36 -29 -88.5 -46.5t-106.5 -17.5q-124 0 -195 70t-71 192q0 77 31 137t87 93.5t127 33.5q104 0 164.5 -67.5t60.5 -185.5v-19zM206.5 398.5q-31.5 -29.5 -40.5 -85.5h235q-6 57 -34.5 86t-78.5 29
t-81.5 -29.5zM215 734h139v-123h-139v123z" />
    <glyph glyph-name="Eogonek" unicode="&#x118;" horiz-adv-x="595" 
d="M590 -176q-44 -21 -95 -21q-55 0 -90 30.5t-35 78.5q0 53 39 88h-332v712h476v-102h-350v-197h329v-102h-329v-209h350v-102h-20q-37 0 -57.5 -19t-20.5 -52q0 -28 16.5 -42.5t45.5 -14.5q26 0 56 14z" />
    <glyph glyph-name="eogonek" unicode="&#x119;" horiz-adv-x="548" 
d="M510 246h-348q4 -81 40.5 -119.5t108.5 -38.5q83 0 154 54l36 -85q-8 -8 -19.5 -15t-37.5 -19q-45 -24 -63.5 -45.5t-18.5 -50.5q0 -28 16.5 -43.5t46.5 -15.5q28 0 58 15l17 -63q-44 -22 -97 -22q-56 0 -91.5 31.5t-35.5 80.5t35 82h-5q-124 0 -195 70t-71 192
q0 77 31 137t87 93.5t127 33.5q104 0 164.5 -67.5t60.5 -185.5v-19zM207.5 398q-31.5 -30 -41.5 -85h235q-6 57 -34.5 86t-78.5 29q-49 0 -80.5 -30z" />
    <glyph glyph-name="Ecaron" unicode="&#x11a;" horiz-adv-x="595" 
d="M77 0v712h476v-102h-350v-197h329v-102h-329v-209h350v-102h-476zM397 928h99l-128 -155h-75l-128 155h99l67 -93z" />
    <glyph glyph-name="ecaron" unicode="&#x11b;" horiz-adv-x="548" 
d="M510 246h-348q4 -81 40.5 -119.5t108.5 -38.5q83 0 154 54l36 -86q-36 -29 -88.5 -46.5t-106.5 -17.5q-124 0 -195 70t-71 192q0 77 31 137t87 93.5t127 33.5q104 0 164.5 -67.5t60.5 -185.5v-19zM206.5 398.5q-31.5 -29.5 -40.5 -85.5h235q-6 57 -34.5 86t-78.5 29
t-81.5 -29.5zM348 776h102l-126 -206h-79l-126 206h102l64 -128z" />
    <glyph glyph-name="Gcircumflex" unicode="&#x11c;" horiz-adv-x="739" 
d="M671 385v-342q-49 -24 -118 -38t-141 -14q-110 0 -191 44t-124 126t-43 196q0 112 43 194t122.5 126t186.5 44q75 0 140.5 -22t109.5 -62l-44 -94q-50 39 -98 56t-105 17q-110 0 -166.5 -66t-56.5 -193q0 -131 58 -197.5t173 -66.5q70 0 138 19v180h-154v93h270zM338 773
h-99l128 155h75l128 -155h-99l-66 92z" />
    <glyph glyph-name="gcircumflex" unicode="&#x11d;" horiz-adv-x="623" 
d="M556 505v-489q0 -118 -65 -179t-191 -61q-117 0 -206 49l20 95q92 -48 183 -48q135 0 135 134v100q-23 -41 -67 -66.5t-99 -25.5q-66 0 -117.5 31.5t-80 89t-28.5 131.5t28.5 131.5t80 89t117.5 31.5q56 0 99.5 -23.5t66.5 -65.5v76h124zM396.5 153q35.5 41 35.5 113
t-35 113t-98 41q-62 0 -97.5 -41t-35.5 -113t35.5 -113t97.5 -41t97.5 41zM249 570h-102l126 206h79l126 -206h-102l-63 128z" />
    <glyph glyph-name="Gbreve" unicode="&#x11e;" horiz-adv-x="739" 
d="M671 385v-342q-49 -24 -118 -38t-141 -14q-110 0 -191 44t-124 126t-43 196q0 112 43 194t122.5 126t186.5 44q75 0 140.5 -22t109.5 -62l-44 -94q-50 39 -98 56t-105 17q-110 0 -166.5 -66t-56.5 -193q0 -131 58 -197.5t173 -66.5q70 0 138 19v180h-154v93h270zM297 810
q-46 27 -66 82l62 27q20 -32 47.5 -45t64.5 -13q36 0 63.5 13t47.5 45l62 -27q-20 -54 -65.5 -81.5t-107.5 -27.5t-108 27z" />
    <glyph glyph-name="gbreve" unicode="&#x11f;" horiz-adv-x="623" 
d="M556 505v-489q0 -118 -65 -179t-191 -61q-117 0 -206 49l20 95q92 -48 183 -48q135 0 135 134v100q-23 -41 -67 -66.5t-99 -25.5q-66 0 -117.5 31.5t-80 89t-28.5 131.5t28.5 131.5t80 89t117.5 31.5q56 0 99.5 -23.5t66.5 -65.5v76h124zM396.5 153q35.5 41 35.5 113
t-35 113t-98 41q-62 0 -97.5 -41t-35.5 -113t35.5 -113t97.5 -41t97.5 41zM201.5 630.5q-49.5 34.5 -68.5 103.5l63 28q43 -84 117 -84q73 0 116 84l63 -27q-19 -69 -68 -104t-111 -35t-111.5 34.5z" />
    <glyph glyph-name="Gdotaccent" unicode="&#x120;" horiz-adv-x="739" 
d="M671 385v-342q-49 -24 -118 -38t-141 -14q-110 0 -191 44t-124 126t-43 196q0 112 43 194t122.5 126t186.5 44q75 0 140.5 -22t109.5 -62l-44 -94q-50 39 -98 56t-105 17q-110 0 -166.5 -66t-56.5 -193q0 -131 58 -197.5t173 -66.5q70 0 138 19v180h-154v93h270zM335 913
h139v-123h-139v123z" />
    <glyph glyph-name="gdotaccent" unicode="&#x121;" horiz-adv-x="623" 
d="M556 505v-489q0 -118 -65 -179t-191 -61q-117 0 -206 49l20 95q92 -48 183 -48q135 0 135 134v100q-23 -41 -67 -66.5t-99 -25.5q-66 0 -117.5 31.5t-80 89t-28.5 131.5t28.5 131.5t80 89t117.5 31.5q56 0 99.5 -23.5t66.5 -65.5v76h124zM396.5 153q35.5 41 35.5 113
t-35 113t-98 41q-62 0 -97.5 -41t-35.5 -113t35.5 -113t97.5 -41t97.5 41zM243 734h139v-123h-139v123z" />
    <glyph glyph-name="Gcommaaccent" unicode="&#x122;" horiz-adv-x="739" 
d="M671 385v-342q-49 -24 -118 -38t-141 -14q-110 0 -191 44t-124 126t-43 196q0 112 43 194t122.5 126t186.5 44q75 0 140.5 -22t109.5 -62l-44 -94q-50 39 -98 56t-105 17q-110 0 -166.5 -66t-56.5 -193q0 -131 58 -197.5t173 -66.5q70 0 138 19v180h-154v93h270zM477 -69
v-62q0 -44 -12.5 -78t-44.5 -63l-48 34q30 30 35 66h-61v103h131z" />
    <glyph glyph-name="gcommaaccent" unicode="&#x123;" horiz-adv-x="623" 
d="M556 505v-489q0 -118 -65 -179t-191 -61q-117 0 -206 49l20 95q92 -48 183 -48q135 0 135 134v100q-23 -41 -67 -66.5t-99 -25.5q-66 0 -117.5 31.5t-80 89t-28.5 131.5t28.5 131.5t80 89t117.5 31.5q56 0 99.5 -23.5t66.5 -65.5v76h124zM396.5 153q35.5 41 35.5 113
t-35 113t-98 41q-62 0 -97.5 -41t-35.5 -113t35.5 -113t97.5 -41t97.5 41zM378 702v-103h-131v62q0 45 12.5 78.5t44.5 62.5l48 -33q-31 -31 -36 -67h62z" />
    <glyph glyph-name="Hcircumflex" unicode="&#x124;" horiz-adv-x="774" 
d="M569 712h128v-712h-128v309h-365v-309h-127v712h127v-298h365v298zM320 773h-99l128 155h75l128 -155h-99l-66 92z" />
    <glyph glyph-name="hcircumflex" unicode="&#x125;" horiz-adv-x="603" 
d="M538 310v-310h-125v304q0 60 -23 87.5t-71 27.5q-57 0 -92 -36.5t-35 -96.5v-286h-124v736h124v-304q26 41 69 63.5t96 22.5q181 0 181 -208zM65 797h-99l128 155h75l128 -155h-99l-66 92z" />
    <glyph glyph-name="Hbar" unicode="&#x126;" horiz-adv-x="821" 
d="M809 614v-96h-89v-518h-127v309h-365v-309h-127v518h-89v96h89v98h127v-98h365v98h127v-98h89zM593 414v104h-365v-104h365z" />
    <glyph glyph-name="hbar" unicode="&#x127;" horiz-adv-x="603" 
d="M538 310v-310h-125v304q0 60 -23 87.5t-71 27.5q-57 0 -92 -36.5t-35 -96.5v-286h-124v568h-91v89h91v79h124v-79h195v-89h-195v-136q26 41 69 63.5t96 22.5q181 0 181 -208z" />
    <glyph glyph-name="Itilde" unicode="&#x128;" horiz-adv-x="283" 
d="M77 0v712h129v-712h-129zM-2 886q28 34 74 34q19 0 35.5 -7t44.5 -23q37 -24 57 -24t31.5 14t13.5 37h57q0 -66 -28 -100t-74 -34q-19 0 -35.5 7t-44.5 23q-37 24 -57 24t-31.5 -14t-13.5 -37h-57q0 66 28 100z" />
    <glyph glyph-name="itilde" unicode="&#x129;" horiz-adv-x="261" 
d="M68 0v505h124v-505h-124zM-13 708.5q28 34.5 74 34.5q19 0 36.5 -7.5t43.5 -23.5q20 -12 33 -18t24 -6q20 0 31.5 14.5t13.5 37.5h57q0 -66 -28 -100.5t-74 -34.5q-19 0 -35.5 7t-44.5 23q-37 24 -57 24t-31.5 -14t-13.5 -37h-57q0 66 28 100.5z" />
    <glyph glyph-name="Imacron" unicode="&#x12a;" horiz-adv-x="283" 
d="M77 0v712h129v-712h-129zM-15 810v82h311v-82h-311z" />
    <glyph glyph-name="imacron" unicode="&#x12b;" horiz-adv-x="261" 
d="M68 0v505h124v-505h-124zM-26 631v82h311v-82h-311z" />
    <glyph glyph-name="Ibreve" unicode="&#x12c;" horiz-adv-x="283" 
d="M77 0v712h129v-712h-129zM33 810q-46 27 -66 82l62 27q20 -32 47.5 -45t64.5 -13q36 0 63.5 13t47.5 45l62 -27q-20 -54 -65.5 -81.5t-107.5 -27.5t-108 27z" />
    <glyph glyph-name="ibreve" unicode="&#x12d;" horiz-adv-x="261" 
d="M68 0v505h124v-505h-124zM18.5 630.5q-49.5 34.5 -68.5 103.5l63 28q43 -84 117 -84q73 0 116 84l63 -27q-19 -69 -68 -104t-111 -35t-111.5 34.5z" />
    <glyph glyph-name="Iogonek" unicode="&#x12e;" horiz-adv-x="283" 
d="M244 -176q-45 -21 -96 -21q-55 0 -90 30t-35 80q0 61 54 99v700h129v-712h-12q-39 0 -62.5 -20t-23.5 -51q0 -27 16.5 -42t45.5 -15q26 0 56 14z" />
    <glyph glyph-name="iogonek" unicode="&#x12f;" horiz-adv-x="261" 
d="M200 738v-124h-139v124h139zM234 -180q-46 -22 -97 -22q-55 0 -90.5 31.5t-35.5 81.5q0 30 14.5 57t42.5 46v491h124v-505h-7q-41 0 -65 -20.5t-24 -52.5q0 -28 17 -43.5t47 -15.5q27 0 57 15z" />
    <glyph glyph-name="Idotaccent" unicode="&#x130;" horiz-adv-x="283" 
d="M77 0v712h129v-712h-129zM71 913h139v-123h-139v123z" />
    <glyph glyph-name="dotlessi" unicode="&#x131;" horiz-adv-x="261" 
d="M68 0v505h124v-505h-124z" />
    <glyph glyph-name="Jcircumflex" unicode="&#x134;" horiz-adv-x="361" 
d="M-2 -73q51 -7 72 -7q49 0 67 24t18 86v682h129v-682q0 -114 -43 -165.5t-147 -51.5q-48 0 -96 8v106zM152 773h-99l128 155h75l128 -155h-99l-66 92z" />
    <glyph glyph-name="jcircumflex" unicode="&#x135;" horiz-adv-x="261" 
d="M-12 -119q36 0 58 21t22 68v535h124v-541q0 -90 -45.5 -138t-129.5 -48q-45 0 -78 11v100q27 -8 49 -8zM66 570h-102l126 206h79l126 -206h-102l-63 128z" />
    <glyph glyph-name="Kcommaaccent" unicode="&#x136;" horiz-adv-x="666" 
d="M695 0h-158l-331 333v-333h-129v712h129v-319l318 319h155l-346 -342zM400 -69v-62q0 -44 -12.5 -78t-44.5 -63l-48 34q30 30 35 66h-61v103h131z" />
    <glyph glyph-name="kcommaaccent" unicode="&#x137;" horiz-adv-x="551" 
d="M569 0h-156l-221 233v-233h-124v736h124v-454l208 222h151l-227 -241zM340 -69v-62q0 -44 -12.5 -78t-44.5 -63l-48 34q30 30 35 66h-61v103h131z" />
    <glyph glyph-name="kgreenlandic" unicode="&#x138;" horiz-adv-x="551" 
d="M569 0h-156l-221 233v-233h-124v505h124v-223l208 222h151l-227 -241z" />
    <glyph glyph-name="Lacute" unicode="&#x139;" horiz-adv-x="560" 
d="M77 0v712h129v-606h333v-106h-462zM181 773h-81l103 155h121z" />
    <glyph glyph-name="lacute" unicode="&#x13a;" horiz-adv-x="261" 
d="M68 0v736h124v-736h-124zM170 797h-81l103 155h121z" />
    <glyph glyph-name="Lcommaaccent" unicode="&#x13b;" horiz-adv-x="560" 
d="M77 0v712h129v-606h333v-106h-462zM379 -69v-62q0 -44 -12.5 -78t-44.5 -63l-48 34q30 30 35 66h-61v103h131z" />
    <glyph glyph-name="lcommaaccent" unicode="&#x13c;" horiz-adv-x="261" 
d="M68 0v736h124v-736h-124zM195 -69v-62q0 -44 -12.5 -78t-44.5 -63l-48 34q30 30 35 66h-61v103h131z" />
    <glyph glyph-name="Lcaron" unicode="&#x13d;" horiz-adv-x="560" 
d="M77 0v712h129v-606h333v-106h-462zM355 518h-61v194h87z" />
    <glyph glyph-name="lcaron" unicode="&#x13e;" horiz-adv-x="261" 
d="M68 0v736h124v-736h-124zM272 538h-48v198h74z" />
    <glyph glyph-name="Ldot" unicode="&#x13f;" horiz-adv-x="560" 
d="M77 0v712h129v-606h333v-106h-462zM309 418h140v-123h-140v123z" />
    <glyph glyph-name="ldot" unicode="&#x140;" horiz-adv-x="338" 
d="M68 0v736h124v-736h-124zM225 419h140v-123h-140v123z" />
    <glyph glyph-name="Lslash" unicode="&#x141;" horiz-adv-x="584" 
d="M230 106h333v-106h-462v267l-92 -53v112l92 53v333h129v-258l186 107v-113l-186 -107v-235z" />
    <glyph glyph-name="lslash" unicode="&#x142;" horiz-adv-x="332" 
d="M346 413l-118 -68v-345h-125v273l-68 -39l-48 85l116 68v349h125v-276l69 40z" />
    <glyph glyph-name="Nacute" unicode="&#x143;" horiz-adv-x="755" 
d="M556 712h121v-712h-96l-384 499v-499h-120v712h96l383 -498v498zM417 773h-81l103 155h121z" />
    <glyph glyph-name="nacute" unicode="&#x144;" horiz-adv-x="603" 
d="M538 310v-310h-125v304q0 60 -23 87.5t-71 27.5q-57 0 -92 -36.5t-35 -96.5v-286h-124v362q0 80 -8 143h117l9 -83q26 46 70.5 71t100.5 25q181 0 181 -208zM342 570h-81l100 206h128z" />
    <glyph glyph-name="Ncommaaccent" unicode="&#x145;" horiz-adv-x="755" 
d="M556 712h121v-712h-96l-384 499v-499h-120v712h96l383 -498v498zM443 -69v-62q0 -44 -12.5 -78t-44.5 -63l-48 34q30 30 35 66h-61v103h131z" />
    <glyph glyph-name="ncommaaccent" unicode="&#x146;" horiz-adv-x="603" 
d="M538 310v-310h-125v304q0 60 -23 87.5t-71 27.5q-57 0 -92 -36.5t-35 -96.5v-286h-124v362q0 80 -8 143h117l9 -83q26 46 70.5 71t100.5 25q181 0 181 -208zM367 -69v-62q0 -44 -12.5 -78t-44.5 -63l-48 34q30 30 35 66h-61v103h131z" />
    <glyph glyph-name="Ncaron" unicode="&#x147;" horiz-adv-x="755" 
d="M556 712h121v-712h-96l-384 499v-499h-120v712h96l383 -498v498zM443 928h99l-128 -155h-75l-128 155h99l67 -93z" />
    <glyph glyph-name="ncaron" unicode="&#x148;" horiz-adv-x="603" 
d="M538 310v-310h-125v304q0 60 -23 87.5t-71 27.5q-57 0 -92 -36.5t-35 -96.5v-286h-124v362q0 80 -8 143h117l9 -83q26 46 70.5 71t100.5 25q181 0 181 -208zM365 776h102l-126 -206h-79l-126 206h102l64 -128z" />
    <glyph glyph-name="napostrophe" unicode="&#x149;" horiz-adv-x="603" 
d="M214 765v-63q0 -44 -13 -77.5t-44 -62.5l-48 34q31 30 36 66h-62v103h131zM538 310v-310h-125v304q0 60 -23 87.5t-71 27.5q-57 0 -92 -36.5t-35 -96.5v-286h-124v362q0 80 -8 143h117l9 -83q26 46 70.5 71t100.5 25q181 0 181 -208z" />
    <glyph glyph-name="Eng" unicode="&#x14a;" horiz-adv-x="755" 
d="M677 712v-694q0 -94 -49.5 -145.5t-148.5 -57.5l-83 -4l-8 99l70 4q47 3 72 28.5t25 70.5v21l-358 465v-499h-120v712h96l383 -498v498h121z" />
    <glyph glyph-name="eng" unicode="&#x14b;" horiz-adv-x="603" 
d="M538 310v-325q0 -207 -175 -207q-41 0 -79 9v102q27 -8 49 -8q37 0 58.5 24.5t21.5 85.5v313q0 60 -23 87.5t-71 27.5q-57 0 -92 -36.5t-35 -96.5v-286h-124v362q0 80 -8 143h117l9 -83q26 46 70.5 71t100.5 25q181 0 181 -208z" />
    <glyph glyph-name="Omacron" unicode="&#x14c;" horiz-adv-x="786" 
d="M213.5 35.5q-76.5 44.5 -118 127t-41.5 194.5q0 111 41 193.5t117.5 126.5t180.5 44t180.5 -44t117 -126.5t40.5 -193.5q0 -112 -41 -194.5t-117 -127t-180 -44.5q-103 0 -179.5 44.5zM547 162q55 68 55 195q0 126 -55 193.5t-154 67.5t-154 -67t-55 -194t55 -195
t154 -68t154 68zM237 810v82h311v-82h-311z" />
    <glyph glyph-name="omacron" unicode="&#x14d;" horiz-adv-x="592" 
d="M161.5 24q-58.5 32 -90 91.5t-31.5 139.5t31.5 139.5t90 91.5t135.5 32q76 0 134 -32t89.5 -91.5t31.5 -139.5t-31.5 -139.5t-89.5 -91.5t-134 -32q-77 0 -135.5 32zM393.5 131.5q33.5 41.5 33.5 123.5q0 81 -34 123.5t-96 42.5q-63 0 -97 -42.5t-34 -123.5
q0 -82 33.5 -123.5t96.5 -41.5q64 0 97.5 41.5zM141 631v82h311v-82h-311z" />
    <glyph glyph-name="Obreve" unicode="&#x14e;" horiz-adv-x="786" 
d="M213.5 35.5q-76.5 44.5 -118 127t-41.5 194.5q0 111 41 193.5t117.5 126.5t180.5 44t180.5 -44t117 -126.5t40.5 -193.5q0 -112 -41 -194.5t-117 -127t-180 -44.5q-103 0 -179.5 44.5zM547 162q55 68 55 195q0 126 -55 193.5t-154 67.5t-154 -67t-55 -194t55 -195
t154 -68t154 68zM285 810q-46 27 -66 82l62 27q20 -32 47.5 -45t64.5 -13q36 0 63.5 13t47.5 45l62 -27q-20 -54 -65.5 -81.5t-107.5 -27.5t-108 27z" />
    <glyph glyph-name="obreve" unicode="&#x14f;" horiz-adv-x="592" 
d="M161.5 24q-58.5 32 -90 91.5t-31.5 139.5t31.5 139.5t90 91.5t135.5 32q76 0 134 -32t89.5 -91.5t31.5 -139.5t-31.5 -139.5t-89.5 -91.5t-134 -32q-77 0 -135.5 32zM393.5 131.5q33.5 41.5 33.5 123.5q0 81 -34 123.5t-96 42.5q-63 0 -97 -42.5t-34 -123.5
q0 -82 33.5 -123.5t96.5 -41.5q64 0 97.5 41.5zM185.5 630.5q-49.5 34.5 -68.5 103.5l63 28q43 -84 117 -84q73 0 116 84l63 -27q-19 -69 -68 -104t-111 -35t-111.5 34.5z" />
    <glyph glyph-name="Ohungarumlaut" unicode="&#x150;" horiz-adv-x="786" 
d="M213.5 35.5q-76.5 44.5 -118 127t-41.5 194.5q0 111 41 193.5t117.5 126.5t180.5 44t180.5 -44t117 -126.5t40.5 -193.5q0 -112 -41 -194.5t-117 -127t-180 -44.5q-103 0 -179.5 44.5zM547 162q55 68 55 195q0 126 -55 193.5t-154 67.5t-154 -67t-55 -194t55 -195
t154 -68t154 68zM294 773l73 155h91l-100 -155h-64zM427 773l74 155h90l-100 -155h-64z" />
    <glyph glyph-name="ohungarumlaut" unicode="&#x151;" horiz-adv-x="592" 
d="M161.5 24q-58.5 32 -90 91.5t-31.5 139.5t31.5 139.5t90 91.5t135.5 32q76 0 134 -32t89.5 -91.5t31.5 -139.5t-31.5 -139.5t-89.5 -91.5t-134 -32q-77 0 -135.5 32zM393.5 131.5q33.5 41.5 33.5 123.5q0 81 -34 123.5t-96 42.5q-63 0 -97 -42.5t-34 -123.5
q0 -82 33.5 -123.5t96.5 -41.5q64 0 97.5 41.5zM258 570h-56l39 206h96zM391 570h-56l39 206h96z" />
    <glyph glyph-name="OE" unicode="&#x152;" horiz-adv-x="1055" 
d="M664 610v-197h329v-102h-329v-209h349v-102h-468v40q-63 -49 -165 -49q-96 0 -170 46t-115 129t-41 191q0 107 41 190t115 128.5t170 45.5q104 0 165 -48v39h468v-102h-349zM239 162.5q55 -68.5 154 -68.5q90 0 144 42v440q-54 42 -144 42q-100 0 -154.5 -68t-54.5 -193
q0 -126 55 -194.5z" />
    <glyph glyph-name="oe" unicode="&#x153;" horiz-adv-x="931" 
d="M892 230h-341q7 -73 41 -107.5t99 -34.5q85 0 156 54l37 -86q-35 -29 -88 -46.5t-106 -17.5q-68 0 -119 25t-82 73q-31 -48 -80.5 -73t-114.5 -25q-76 0 -133.5 32.5t-89 92t-31.5 138.5t31.5 138.5t89 92t133.5 32.5q65 0 114.5 -25t80.5 -73q30 47 78.5 72.5
t110.5 25.5q64 0 112.5 -31.5t75 -88.5t26.5 -133v-35zM590 394q-32 -34 -38 -96h233q-3 64 -31.5 97t-78.5 33q-53 0 -85 -34zM391 131.5q33 41.5 33 123.5q0 81 -33.5 123.5t-95.5 42.5t-95.5 -42.5t-33.5 -123.5q0 -82 33 -123.5t96 -41.5t96 41.5z" />
    <glyph glyph-name="Racute" unicode="&#x154;" horiz-adv-x="702" 
d="M663 0h-136l-91 237q-12 33 -37 46t-65 13h-129v-296h-128v712h305q121 0 184 -53t63 -152q0 -71 -37.5 -120.5t-106.5 -70.5q63 -13 91 -88zM364 396q73 0 108 27t35 82q0 54 -34.5 80.5t-108.5 26.5h-161v-216h161zM391 773h-81l103 155h121z" />
    <glyph glyph-name="racute" unicode="&#x155;" horiz-adv-x="392" 
d="M390 509l-1 -114q-32 13 -66 13q-64 0 -97.5 -37t-33.5 -98v-273h-124v362q0 80 -8 143h117l10 -89q19 49 60 75t93 26q29 0 50 -8zM273 570h-81l100 206h128z" />
    <glyph glyph-name="Rcommaaccent" unicode="&#x156;" horiz-adv-x="702" 
d="M663 0h-136l-91 237q-12 33 -37 46t-65 13h-129v-296h-128v712h305q121 0 184 -53t63 -152q0 -71 -37.5 -120.5t-106.5 -70.5q63 -13 91 -88zM364 396q73 0 108 27t35 82q0 54 -34.5 80.5t-108.5 26.5h-161v-216h161zM417 -69v-62q0 -44 -12.5 -78t-44.5 -63l-48 34
q30 30 35 66h-61v103h131z" />
    <glyph glyph-name="rcommaaccent" unicode="&#x157;" horiz-adv-x="392" 
d="M390 509l-1 -114q-32 13 -66 13q-64 0 -97.5 -37t-33.5 -98v-273h-124v362q0 80 -8 143h117l10 -89q19 49 60 75t93 26q29 0 50 -8zM195 -69v-62q0 -44 -12.5 -78t-44.5 -63l-48 34q30 30 35 66h-61v103h131z" />
    <glyph glyph-name="Rcaron" unicode="&#x158;" horiz-adv-x="702" 
d="M663 0h-136l-91 237q-12 33 -37 46t-65 13h-129v-296h-128v712h305q121 0 184 -53t63 -152q0 -71 -37.5 -120.5t-106.5 -70.5q63 -13 91 -88zM364 396q73 0 108 27t35 82q0 54 -34.5 80.5t-108.5 26.5h-161v-216h161zM417 928h99l-128 -155h-75l-128 155h99l67 -93z" />
    <glyph glyph-name="rcaron" unicode="&#x159;" horiz-adv-x="392" 
d="M390 509l-1 -114q-32 13 -66 13q-64 0 -97.5 -37t-33.5 -98v-273h-124v362q0 80 -8 143h117l10 -89q19 49 60 75t93 26q29 0 50 -8zM296 776h102l-126 -206h-79l-126 206h102l64 -128z" />
    <glyph glyph-name="Sacute" unicode="&#x15a;" horiz-adv-x="644" 
d="M164.5 13q-71.5 22 -121.5 63l44 94q52 -39 108.5 -57.5t123.5 -18.5q74 0 114.5 26t40.5 73q0 40 -37.5 61.5t-123.5 40.5q-134 29 -195 75t-61 134q0 63 34 112t96.5 77t144.5 28q75 0 142.5 -22.5t110.5 -62.5l-43 -94q-95 76 -210 76q-69 0 -109 -28.5t-40 -77.5
q0 -42 35.5 -64t121.5 -41q89 -21 145 -45.5t86 -63t30 -96.5q0 -64 -34 -111.5t-98 -73.5t-151 -26q-82 0 -153.5 22zM364 773h-81l103 155h121z" />
    <glyph glyph-name="sacute" unicode="&#x15b;" horiz-adv-x="501" 
d="M35 56l35 88q81 -60 185 -60q45 0 69.5 15t24.5 42q0 23 -17 36.5t-58 23.5l-84 19q-138 30 -138 141q0 46 26 81.5t73 55.5t109 20q54 0 104 -16.5t88 -47.5l-37 -85q-76 56 -156 56q-43 0 -67 -16t-24 -44q0 -22 14.5 -35t49.5 -22l86 -19q75 -17 109.5 -52.5
t34.5 -92.5q0 -70 -56 -111t-153 -41q-137 0 -218 64zM299 570h-81l100 206h128z" />
    <glyph glyph-name="Scircumflex" unicode="&#x15c;" horiz-adv-x="644" 
d="M164.5 13q-71.5 22 -121.5 63l44 94q52 -39 108.5 -57.5t123.5 -18.5q74 0 114.5 26t40.5 73q0 40 -37.5 61.5t-123.5 40.5q-134 29 -195 75t-61 134q0 63 34 112t96.5 77t144.5 28q75 0 142.5 -22.5t110.5 -62.5l-43 -94q-95 76 -210 76q-69 0 -109 -28.5t-40 -77.5
q0 -42 35.5 -64t121.5 -41q89 -21 145 -45.5t86 -63t30 -96.5q0 -64 -34 -111.5t-98 -73.5t-151 -26q-82 0 -153.5 22zM257 773h-99l128 155h75l128 -155h-99l-66 92z" />
    <glyph glyph-name="scircumflex" unicode="&#x15d;" horiz-adv-x="501" 
d="M35 56l35 88q81 -60 185 -60q45 0 69.5 15t24.5 42q0 23 -17 36.5t-58 23.5l-84 19q-138 30 -138 141q0 46 26 81.5t73 55.5t109 20q54 0 104 -16.5t88 -47.5l-37 -85q-76 56 -156 56q-43 0 -67 -16t-24 -44q0 -22 14.5 -35t49.5 -22l86 -19q75 -17 109.5 -52.5
t34.5 -92.5q0 -70 -56 -111t-153 -41q-137 0 -218 64zM195 570h-102l126 206h79l126 -206h-102l-63 128z" />
    <glyph glyph-name="Scedilla" unicode="&#x15e;" horiz-adv-x="644" 
d="M533.5 54.5q-67.5 -56.5 -186.5 -62.5l-4 -33q6 1 17 1q36 0 58.5 -18.5t22.5 -51.5q0 -39 -34 -63t-95 -24q-22 0 -47.5 4.5t-44.5 13.5l12 53q43 -14 78 -14q50 0 50 30q0 22 -34 22q-14 0 -40 -7l-19 19l8 69q-69 5 -129 26.5t-103 56.5l44 94q52 -39 108.5 -57.5
t123.5 -18.5q74 0 114.5 26t40.5 73q0 40 -37.5 61.5t-123.5 40.5q-134 29 -195 75t-61 134q0 63 34 112t96.5 77t144.5 28q75 0 142.5 -22.5t110.5 -62.5l-43 -94q-95 76 -210 76q-69 0 -109 -28.5t-40 -77.5q0 -42 35.5 -64t121.5 -41q89 -21 145 -45.5t86 -63t30 -96.5
q0 -91 -67.5 -147.5z" />
    <glyph glyph-name="scedilla" unicode="&#x15f;" horiz-adv-x="501" 
d="M412.5 37.5q-49.5 -40.5 -137.5 -44.5l-4 -34q6 1 17 1q36 0 58.5 -18.5t22.5 -51.5q0 -39 -34 -63t-95 -24q-22 0 -47.5 4.5t-44.5 13.5l12 53q43 -14 78 -14q50 0 50 30q0 22 -34 22q-14 0 -40 -7l-19 19l8 70q-103 11 -168 62l35 88q81 -60 185 -60q45 0 69.5 15
t24.5 42q0 23 -17 36.5t-58 23.5l-84 19q-138 30 -138 141q0 46 26 81.5t73 55.5t109 20q54 0 104 -16.5t88 -47.5l-37 -85q-76 56 -156 56q-43 0 -67 -16t-24 -44q0 -22 14.5 -35t49.5 -22l86 -19q75 -17 109.5 -52.5t34.5 -92.5q0 -66 -49.5 -106.5z" />
    <glyph glyph-name="Scaron" unicode="&#x160;" horiz-adv-x="644" 
d="M164.5 13q-71.5 22 -121.5 63l44 94q52 -39 108.5 -57.5t123.5 -18.5q74 0 114.5 26t40.5 73q0 40 -37.5 61.5t-123.5 40.5q-134 29 -195 75t-61 134q0 63 34 112t96.5 77t144.5 28q75 0 142.5 -22.5t110.5 -62.5l-43 -94q-95 76 -210 76q-69 0 -109 -28.5t-40 -77.5
q0 -42 35.5 -64t121.5 -41q89 -21 145 -45.5t86 -63t30 -96.5q0 -64 -34 -111.5t-98 -73.5t-151 -26q-82 0 -153.5 22zM390 928h99l-128 -155h-75l-128 155h99l67 -93z" />
    <glyph glyph-name="scaron" unicode="&#x161;" horiz-adv-x="501" 
d="M35 56l35 88q81 -60 185 -60q45 0 69.5 15t24.5 42q0 23 -17 36.5t-58 23.5l-84 19q-138 30 -138 141q0 46 26 81.5t73 55.5t109 20q54 0 104 -16.5t88 -47.5l-37 -85q-76 56 -156 56q-43 0 -67 -16t-24 -44q0 -22 14.5 -35t49.5 -22l86 -19q75 -17 109.5 -52.5
t34.5 -92.5q0 -70 -56 -111t-153 -41q-137 0 -218 64zM322 776h102l-126 -206h-79l-126 206h102l64 -128z" />
    <glyph glyph-name="uni0162" unicode="&#x162;" horiz-adv-x="619" 
d="M335 0l-5 -41q6 1 17 1q36 0 58.5 -18.5t22.5 -51.5q0 -39 -34 -63t-95 -24q-22 0 -47.5 4.5t-44.5 13.5l12 53q43 -14 78 -14q50 0 50 30q0 22 -34 22q-14 0 -40 -7l-19 19l9 76h-19v606h-232v106h595v-106h-233v-606h-39z" />
    <glyph glyph-name="uni0163" unicode="&#x163;" horiz-adv-x="379" 
d="M227 411v-226q0 -89 83 -89q23 0 50 8v-99q-33 -12 -80 -12h-14l-4 -34q6 1 17 1q36 0 58.5 -18.5t22.5 -51.5q0 -39 -34 -63t-95 -24q-22 0 -47.5 4.5t-44.5 13.5l12 53q43 -14 78 -14q50 0 50 30q0 22 -34 22q-14 0 -40 -7l-19 19l10 85q-46 20 -70 63t-24 107v232h-97
v94h97v123l125 42v-165h134v-94h-134z" />
    <glyph glyph-name="Tcaron" unicode="&#x164;" horiz-adv-x="619" 
d="M244 0v606h-232v106h595v-106h-233v-606h-130zM375 928h99l-128 -155h-75l-128 155h99l67 -93z" />
    <glyph glyph-name="tcaron" unicode="&#x165;" horiz-adv-x="379" 
d="M370 714l-29 -175h-69v175h98zM227 505h134v-94h-134v-226q0 -89 83 -89q23 0 50 8v-99q-33 -12 -80 -12q-86 0 -132 48t-46 138v232h-97v94h97v123l125 42v-165z" />
    <glyph glyph-name="Tbar" unicode="&#x166;" horiz-adv-x="619" 
d="M607 606h-233v-196h140v-100h-140v-310h-130v310h-139v100h139v196h-232v106h595v-106z" />
    <glyph glyph-name="tbar" unicode="&#x167;" horiz-adv-x="390" 
d="M233 411v-78h113v-90h-113v-58q0 -89 82 -89q23 0 51 8v-99q-33 -12 -81 -12q-86 0 -132 48t-46 138v64h-76v90h76v78h-97v94h97v123l126 42v-165h134v-94h-134z" />
    <glyph glyph-name="Utilde" unicode="&#x168;" horiz-adv-x="740" 
d="M148.5 66.5q-75.5 75.5 -75.5 221.5v424h127v-431q0 -92 43 -139.5t128 -47.5q83 0 126.5 48t43.5 139v431h127v-424q0 -145 -76 -221t-221 -76q-147 0 -222.5 75.5zM228 886q28 34 74 34q19 0 35.5 -7t44.5 -23q37 -24 57 -24t31.5 14t13.5 37h57q0 -66 -28 -100
t-74 -34q-19 0 -35.5 7t-44.5 23q-37 24 -57 24t-31.5 -14t-13.5 -37h-57q0 66 28 100z" />
    <glyph glyph-name="utilde" unicode="&#x169;" horiz-adv-x="596" 
d="M528 505v-505h-122v78q-24 -42 -64 -64t-92 -22q-185 0 -185 208v305h124v-306q0 -55 22.5 -81t69.5 -26q55 0 88 36t33 96v281h126zM154 708.5q28 34.5 74 34.5q19 0 36.5 -7.5t43.5 -23.5q20 -12 33 -18t24 -6q20 0 31.5 14.5t13.5 37.5h57q0 -66 -28 -100.5t-74 -34.5
q-19 0 -35.5 7t-44.5 23q-37 24 -57 24t-31.5 -14t-13.5 -37h-57q0 66 28 100.5z" />
    <glyph glyph-name="Umacron" unicode="&#x16a;" horiz-adv-x="740" 
d="M148.5 66.5q-75.5 75.5 -75.5 221.5v424h127v-431q0 -92 43 -139.5t128 -47.5q83 0 126.5 48t43.5 139v431h127v-424q0 -145 -76 -221t-221 -76q-147 0 -222.5 75.5zM215 810v82h311v-82h-311z" />
    <glyph glyph-name="umacron" unicode="&#x16b;" horiz-adv-x="596" 
d="M528 505v-505h-122v78q-24 -42 -64 -64t-92 -22q-185 0 -185 208v305h124v-306q0 -55 22.5 -81t69.5 -26q55 0 88 36t33 96v281h126zM141 631v82h311v-82h-311z" />
    <glyph glyph-name="Ubreve" unicode="&#x16c;" horiz-adv-x="740" 
d="M148.5 66.5q-75.5 75.5 -75.5 221.5v424h127v-431q0 -92 43 -139.5t128 -47.5q83 0 126.5 48t43.5 139v431h127v-424q0 -145 -76 -221t-221 -76q-147 0 -222.5 75.5zM263 810q-46 27 -66 82l62 27q20 -32 47.5 -45t64.5 -13q36 0 63.5 13t47.5 45l62 -27
q-20 -54 -65.5 -81.5t-107.5 -27.5t-108 27z" />
    <glyph glyph-name="ubreve" unicode="&#x16d;" horiz-adv-x="596" 
d="M528 505v-505h-122v78q-24 -42 -64 -64t-92 -22q-185 0 -185 208v305h124v-306q0 -55 22.5 -81t69.5 -26q55 0 88 36t33 96v281h126zM185.5 630.5q-49.5 34.5 -68.5 103.5l63 28q43 -84 117 -84q73 0 116 84l63 -27q-19 -69 -68 -104t-111 -35t-111.5 34.5z" />
    <glyph glyph-name="Uring" unicode="&#x16e;" horiz-adv-x="740" 
d="M148.5 66.5q-75.5 75.5 -75.5 221.5v424h127v-431q0 -92 43 -139.5t128 -47.5q83 0 126.5 48t43.5 139v431h127v-424q0 -145 -76 -221t-221 -76q-147 0 -222.5 75.5zM294.5 798q-31.5 30 -31.5 75q0 44 31.5 75t76.5 31q44 0 75.5 -31t31.5 -75q0 -45 -31 -75t-76 -30
t-76.5 30zM403 839q13 14 13 34t-13 33.5t-32 13.5q-20 0 -33 -13.5t-13 -33.5t13 -34t33 -14q19 0 32 14z" />
    <glyph glyph-name="uring" unicode="&#x16f;" horiz-adv-x="596" 
d="M528 505v-505h-122v78q-24 -42 -64 -64t-92 -22q-185 0 -185 208v305h124v-306q0 -55 22.5 -81t69.5 -26q55 0 88 36t33 96v281h126zM220.5 598.5q-31.5 30.5 -31.5 75.5q0 43 31.5 73.5t76.5 30.5q44 0 75.5 -30.5t31.5 -73.5q0 -45 -31 -75.5t-76 -30.5t-76.5 30.5z
M329 639q13 14 13 35q0 20 -13 33.5t-32 13.5q-20 0 -33 -13.5t-13 -33.5q0 -21 13 -35t33 -14q19 0 32 14z" />
    <glyph glyph-name="Uhungarumlaut" unicode="&#x170;" horiz-adv-x="740" 
d="M148.5 66.5q-75.5 75.5 -75.5 221.5v424h127v-431q0 -92 43 -139.5t128 -47.5q83 0 126.5 48t43.5 139v431h127v-424q0 -145 -76 -221t-221 -76q-147 0 -222.5 75.5zM272 773l73 155h91l-100 -155h-64zM405 773l74 155h90l-100 -155h-64z" />
    <glyph glyph-name="uhungarumlaut" unicode="&#x171;" horiz-adv-x="596" 
d="M528 505v-505h-122v78q-24 -42 -64 -64t-92 -22q-185 0 -185 208v305h124v-306q0 -55 22.5 -81t69.5 -26q55 0 88 36t33 96v281h126zM258 570h-56l39 206h96zM391 570h-56l39 206h96z" />
    <glyph glyph-name="Uogonek" unicode="&#x172;" horiz-adv-x="740" 
d="M668 712v-424q0 -114 -47 -185.5t-138 -97.5q-70 -19 -70 -76q0 -27 16.5 -42t46.5 -15q25 0 56 14l17 -62q-42 -21 -95 -21q-55 0 -90 30.5t-35 78.5q0 47 34 79q-143 2 -216.5 77.5t-73.5 219.5v424h127v-431q0 -92 43 -139.5t128 -47.5q83 0 126.5 48t43.5 139v431
h127z" />
    <glyph glyph-name="uogonek" unicode="&#x173;" horiz-adv-x="596" 
d="M570 -180q-44 -22 -97 -22q-56 0 -91.5 31.5t-35.5 81.5q0 32 15.5 59t44.5 46v62q-24 -42 -64 -64t-92 -22q-185 0 -185 208v305h124v-306q0 -55 22.5 -81t69.5 -26q55 0 88 36t33 96v281h126v-505h-8q-40 0 -64.5 -20t-24.5 -53q0 -28 17 -43.5t48 -15.5q28 0 56 15z
" />
    <glyph glyph-name="Wcircumflex" unicode="&#x174;" horiz-adv-x="1120" 
d="M973 712h124l-252 -712h-105l-179 512l-181 -512h-105l-251 712h131l178 -531l185 531h92l181 -535zM493 773h-99l128 155h75l128 -155h-99l-66 92z" />
    <glyph glyph-name="wcircumflex" unicode="&#x175;" horiz-adv-x="883" 
d="M750 505h122l-198 -505h-109l-125 331l-122 -331h-110l-198 505h128l130 -356l131 356h90l131 -359zM377 570h-102l126 206h79l126 -206h-102l-63 128z" />
    <glyph glyph-name="Ycircumflex" unicode="&#x176;" horiz-adv-x="629" 
d="M668 712l-289 -430v-282h-129v282l-289 430h147l206 -322l207 322h147zM247 773h-99l128 155h75l128 -155h-99l-66 92z" />
    <glyph glyph-name="ycircumflex" unicode="&#x177;" horiz-adv-x="543" 
d="M546 505l-235 -539q-40 -94 -102 -137t-153 -57l-28 96q71 16 106.5 40.5t57.5 72.5l16 37l-210 487h131l145 -363l148 363h124zM208 570h-102l126 206h79l126 -206h-102l-63 128z" />
    <glyph glyph-name="Ydieresis" unicode="&#x178;" horiz-adv-x="629" 
d="M668 712l-289 -430v-282h-129v282l-289 430h147l206 -322l207 322h147zM161 909h120v-115h-120v115zM346 909h120v-115h-120v115z" />
    <glyph glyph-name="Zacute" unicode="&#x179;" horiz-adv-x="608" 
d="M193 103h379v-103h-523v94l366 515h-366v103h512v-93zM345 773h-81l103 155h121z" />
    <glyph glyph-name="zacute" unicode="&#x17a;" horiz-adv-x="526" 
d="M197 95h291v-95h-439v87l279 324h-273v94h422v-85zM310 570h-81l100 206h128z" />
    <glyph glyph-name="Zdotaccent" unicode="&#x17b;" horiz-adv-x="608" 
d="M193 103h379v-103h-523v94l366 515h-366v103h512v-93zM235 913h139v-123h-139v123z" />
    <glyph glyph-name="zdotaccent" unicode="&#x17c;" horiz-adv-x="526" 
d="M197 95h291v-95h-439v87l279 324h-273v94h422v-85zM200 734h139v-123h-139v123z" />
    <glyph glyph-name="Zcaron" unicode="&#x17d;" horiz-adv-x="608" 
d="M193 103h379v-103h-523v94l366 515h-366v103h512v-93zM371 928h99l-128 -155h-75l-128 155h99l67 -93z" />
    <glyph glyph-name="zcaron" unicode="&#x17e;" horiz-adv-x="526" 
d="M197 95h291v-95h-439v87l279 324h-273v94h422v-85zM333 776h102l-126 -206h-79l-126 206h102l64 -128z" />
    <glyph glyph-name="uni018F" unicode="&#x18f;" horiz-adv-x="766" 
d="M545.5 676.5q79.5 -44.5 122.5 -126.5t43 -193q0 -108 -40 -191t-113 -129t-168 -46q-104 0 -179.5 43.5t-116 126t-40.5 197.5v53h525q-12 100 -69 153t-154 53q-121 0 -214 -75l-44 94q47 39 117.5 62t143.5 23q107 0 186.5 -44.5zM521.5 149q49.5 55 58.5 161h-395
q8 -105 60.5 -160.5t141.5 -55.5q85 0 134.5 55z" />
    <glyph glyph-name="florin" unicode="&#x192;" horiz-adv-x="600" 
d="M418 529l-7 -31h116v-78h-132l-90 -424q-20 -95 -76.5 -139t-133.5 -44h-65v99h63q72 0 88 88l90 420h-115v78h132l7 35q20 95 76 139.5t133 44.5h66v-100h-64q-71 0 -88 -88z" />
    <glyph glyph-name="Ohorn" unicode="&#x1a0;" horiz-adv-x="786" 
d="M698.5 700.5q-32.5 -40.5 -89.5 -50.5q60 -46 91 -120.5t31 -172.5q0 -112 -41 -194.5t-117 -127t-180 -44.5q-103 0 -179.5 44.5t-118 127t-41.5 194.5q0 111 41.5 193.5t118.5 126.5t182 44q32 0 69 -5q40 -4 61 -4q53 0 75 24t22 82v18h108v-34q0 -61 -32.5 -101.5z
M547 162q55 68 55 195q0 126 -55 193.5t-154 67.5t-154 -67t-55 -194t55 -195t154 -68t154 68z" />
    <glyph glyph-name="ohorn" unicode="&#x1a1;" horiz-adv-x="592" 
d="M542.5 509q-25.5 -39 -71.5 -55q40 -34 60.5 -85t20.5 -115q0 -79 -31.5 -138.5t-89.5 -91.5t-134 -32q-77 0 -135.5 32t-90 91.5t-31.5 138.5q0 80 31.5 139.5t89 92t133.5 32.5q13 0 56 -5q16 -3 25 -3q41 0 63 23.5t22 84.5v18h108v-34q0 -54 -25.5 -93zM393.5 131.5
q33.5 41.5 33.5 123.5q0 81 -34 123.5t-96 42.5q-63 0 -97 -42.5t-34 -123.5q0 -82 33.5 -123.5t96.5 -41.5q64 0 97.5 41.5z" />
    <glyph glyph-name="Uhorn" unicode="&#x1af;" horiz-adv-x="740" 
d="M783 836v-34q0 -59 -30.5 -99t-84.5 -52v-363q0 -145 -76 -221t-221 -76q-147 0 -222.5 75.5t-75.5 221.5v424h127v-431q0 -92 43 -139.5t128 -47.5q83 0 126.5 48t43.5 139v431h37q53 0 74.5 24t21.5 82v18h109z" />
    <glyph glyph-name="uhorn" unicode="&#x1b0;" horiz-adv-x="616" 
d="M646 636v-34q0 -61 -31.5 -102.5t-86.5 -52.5v-447h-122v78q-24 -42 -64 -64t-92 -22q-185 0 -185 208v305h124v-306q0 -55 22.5 -81t69.5 -26q55 0 88 36t33 96v281h36q53 0 76 26t23 87v18h109z" />
    <glyph glyph-name="uni01C4" unicode="&#x1c4;" horiz-adv-x="1355" 
d="M77 712h262q175 0 271.5 -93t96.5 -262q0 -170 -96.5 -263.5t-271.5 -93.5h-262v712zM331 105q246 0 246 252q0 250 -246 250h-125v-502h125zM940 103h379v-103h-523v94l366 515h-366v103h512v-93zM1118 928h99l-128 -155h-75l-128 155h99l67 -93z" />
    <glyph glyph-name="uni01C5" unicode="&#x1c5;" horiz-adv-x="1288" 
d="M77 712h262q175 0 271.5 -93t96.5 -262q0 -170 -96.5 -263.5t-271.5 -93.5h-262v712zM331 105q246 0 246 252q0 250 -246 250h-125v-502h125zM959 95h291v-95h-439v87l279 324h-273v94h422v-85zM1095 776h102l-126 -206h-79l-126 206h102l64 -128z" />
    <glyph glyph-name="uni01C6" unicode="&#x1c6;" horiz-adv-x="1145" 
d="M551 736v-736h-123v81q-23 -42 -66 -65.5t-98 -23.5q-65 0 -116 33t-79.5 93.5t-28.5 138.5t28 137t79 91.5t117 32.5q54 0 96.5 -22.5t65.5 -63.5v304h125zM393.5 133q34.5 43 34.5 122t-34 122t-96 43q-63 0 -97.5 -42.5t-34.5 -120.5q0 -79 34.5 -123t96.5 -44
t96.5 43zM816 95h291v-95h-439v87l279 324h-273v94h422v-85zM952 776h102l-126 -206h-79l-126 206h102l64 -128z" />
    <glyph glyph-name="uni01C7" unicode="&#x1c7;" horiz-adv-x="862" 
d="M77 0v712h129v-606h303v-106h-432zM498 -73q51 -7 73 -7q49 0 66.5 24t17.5 86v682h130v-682q0 -114 -43 -165.5t-147 -51.5q-49 0 -97 8v106z" />
    <glyph glyph-name="uni01C8" unicode="&#x1c8;" horiz-adv-x="821" 
d="M77 0v712h129v-606h333v-106h-462zM548 -119q36 0 58 21t22 68v535h124v-541q0 -90 -45.5 -138t-129.5 -48q-45 0 -78 11v100q27 -8 49 -8zM620 734h139v-123h-139v123z" />
    <glyph glyph-name="uni01C9" unicode="&#x1c9;" horiz-adv-x="522" 
d="M68 0v736h124v-736h-124zM249 -119q36 0 58 21t22 68v535h124v-541q0 -90 -45.5 -138t-129.5 -48q-45 0 -78 11v100q27 -8 49 -8zM321 734h139v-123h-139v123z" />
    <glyph glyph-name="uni01CA" unicode="&#x1ca;" horiz-adv-x="1116" 
d="M556 712h121v-712h-96l-384 499v-499h-120v712h96l383 -498v498zM753 -73q51 -7 72 -7q49 0 67 24t18 86v682h129v-682q0 -114 -43 -165.5t-147 -51.5q-48 0 -96 8v106z" />
    <glyph glyph-name="uni01CB" unicode="&#x1cb;" horiz-adv-x="1016" 
d="M556 712h121v-712h-96l-384 499v-499h-120v712h96l383 -498v498zM743 -119q36 0 58 21t22 68v535h124v-541q0 -90 -45.5 -138t-129.5 -48q-45 0 -78 11v100q27 -8 49 -8zM815 734h139v-123h-139v123z" />
    <glyph glyph-name="uni01CC" unicode="&#x1cc;" horiz-adv-x="864" 
d="M538 310v-310h-125v304q0 60 -23 87.5t-71 27.5q-57 0 -92 -36.5t-35 -96.5v-286h-124v362q0 80 -8 143h117l9 -83q26 46 70.5 71t100.5 25q181 0 181 -208zM591 -119q36 0 58 21t22 68v535h124v-541q0 -90 -45.5 -138t-129.5 -48q-45 0 -78 11v100q27 -8 49 -8zM663 734
h139v-123h-139v123z" />
    <glyph glyph-name="uni01CE" unicode="&#x1ce;" horiz-adv-x="619" 
d="M551 505v-505h-123v81q-23 -42 -66 -65.5t-98 -23.5q-66 0 -117 32t-79 91t-28 137t28.5 138.5t79.5 94t116 33.5q55 0 98 -23.5t66 -65.5v76h123zM394 133q34 43 34 121q0 80 -34 123t-97 43q-62 0 -96.5 -44.5t-34.5 -123.5q0 -78 34.5 -120t97.5 -42q62 0 96 43z
M372 776h102l-126 -206h-79l-126 206h102l64 -128z" />
    <glyph glyph-name="Gcaron" unicode="&#x1e6;" horiz-adv-x="739" 
d="M671 385v-342q-49 -24 -118 -38t-141 -14q-110 0 -191 44t-124 126t-43 196q0 112 43 194t122.5 126t186.5 44q75 0 140.5 -22t109.5 -62l-44 -94q-50 39 -98 56t-105 17q-110 0 -166.5 -66t-56.5 -193q0 -131 58 -197.5t173 -66.5q70 0 138 19v180h-154v93h270zM471 928
h99l-128 -155h-75l-128 155h99l67 -93z" />
    <glyph glyph-name="gcaron" unicode="&#x1e7;" horiz-adv-x="623" 
d="M556 505v-489q0 -118 -65 -179t-191 -61q-117 0 -206 49l20 95q92 -48 183 -48q135 0 135 134v100q-23 -41 -67 -66.5t-99 -25.5q-66 0 -117.5 31.5t-80 89t-28.5 131.5t28.5 131.5t80 89t117.5 31.5q56 0 99.5 -23.5t66.5 -65.5v76h124zM396.5 153q35.5 41 35.5 113
t-35 113t-98 41q-62 0 -97.5 -41t-35.5 -113t35.5 -113t97.5 -41t97.5 41zM376 776h102l-126 -206h-79l-126 206h102l64 -128z" />
    <glyph glyph-name="uni01EA" unicode="&#x1ea;" horiz-adv-x="786" 
d="M431 -71q0 -27 16.5 -42t46.5 -15q25 0 56 14l17 -62q-42 -21 -95 -21q-55 0 -90.5 30.5t-35.5 78.5q0 45 32 80q-99 3 -172 48t-112.5 126.5t-39.5 190.5q0 111 41.5 193t118 126.5t179.5 44.5q104 0 180 -44t117 -126.5t41 -193.5q0 -137 -60.5 -229t-171.5 -124
q-68 -20 -68 -75zM547 162q55 68 55 195q0 126 -55 193.5t-154 67.5t-154 -67t-55 -194t55 -195t154 -68t154 68z" />
    <glyph glyph-name="uni01EB" unicode="&#x1eb;" horiz-adv-x="592" 
d="M333.5 -23.5q-18.5 -19.5 -18.5 -49.5q0 -28 17.5 -43.5t47.5 -15.5q27 0 58 15l16 -63q-44 -22 -96 -22q-56 0 -91.5 31.5t-35.5 80.5t35 84q-105 10 -165.5 80t-60.5 181q0 80 31.5 139.5t90 91.5t135.5 32q76 0 134 -32t89.5 -91.5t31.5 -139.5q0 -94 -43 -160
t-119 -88q-38 -11 -56.5 -30.5zM393.5 131.5q33.5 41.5 33.5 123.5q0 81 -34 123.5t-96 42.5q-63 0 -97 -42.5t-34 -123.5q0 -82 33.5 -123.5t96.5 -41.5q64 0 97.5 41.5z" />
    <glyph glyph-name="Aringacute" unicode="&#x1fa;" horiz-adv-x="750" 
d="M550 167h-348l-72 -167h-130l315 697q-21 14 -34 37t-13 50q0 44 31.5 74.5t75.5 30.5q26 0 49 -12l71 76h122l-145 -122q11 -22 11 -47q0 -28 -13 -51t-36 -37l316 -696h-129zM342.5 817.5q-13.5 -13.5 -13.5 -33.5t13.5 -34t32.5 -14q20 0 33 14t13 34t-13 33.5
t-33 13.5q-19 0 -32.5 -13.5zM245 267h262l-131 305z" />
    <glyph glyph-name="aringacute" unicode="&#x1fb;" horiz-adv-x="619" 
d="M232.5 601q-31.5 31 -31.5 77q0 45 31.5 75.5t76.5 30.5q25 0 49 -11l76 108l115 -5l-142 -149q12 -22 12 -49q0 -46 -32 -77t-78 -31q-45 0 -76.5 31zM276 712q-13 -14 -13 -34q0 -21 13 -35.5t33 -14.5q21 0 34.5 14.5t13.5 35.5q0 20 -13.5 34t-34.5 14q-20 0 -33 -14
zM551 505v-505h-123v81q-23 -42 -66 -65.5t-98 -23.5q-66 0 -117 32t-79 91t-28 137t28.5 138.5t79.5 94t116 33.5q55 0 98 -23.5t66 -65.5v76h123zM394 133q34 43 34 121q0 80 -34 123t-97 43q-62 0 -96.5 -44.5t-34.5 -123.5q0 -78 34.5 -120t97.5 -42q62 0 96 43z" />
    <glyph glyph-name="AEacute" unicode="&#x1fc;" horiz-adv-x="1007" 
d="M965 610h-343l15 -197h307v-102h-299l17 -209h303v-102h-412l-13 167h-321l-99 -167h-140l442 712h543v-102zM533 267l-27 343h-24l-204 -343h255zM547 773h-81l103 155h121z" />
    <glyph glyph-name="aeacute" unicode="&#x1fd;" horiz-adv-x="872" 
d="M833 246h-341q2 -75 38.5 -116.5t108.5 -41.5q38 0 76.5 14t73.5 40l35 -86q-34 -29 -86.5 -46.5t-104.5 -17.5q-74 0 -127.5 28.5t-83.5 83.5q-22 -54 -68.5 -83t-109.5 -29q-56 0 -100.5 20.5t-70 57.5t-25.5 85q0 56 28.5 90.5t91 51t166.5 16.5h38v8q0 53 -21.5 76.5
t-71.5 23.5q-88 0 -175 -52l-35 86q41 28 101 45.5t114 17.5q120 0 166 -74q31 36 74.5 55t95.5 19q64 0 112 -31.5t74.5 -89t26.5 -133.5v-18zM497 313h228q-5 56 -33 85.5t-75 29.5q-99 0 -120 -115zM341.5 118q30.5 36 30.5 93v36h-32q-92 0 -130.5 -20.5t-38.5 -65.5
q0 -36 24.5 -57.5t63.5 -21.5q52 0 82.5 36zM473 570h-81l100 206h128z" />
    <glyph glyph-name="Oslashacute" unicode="&#x1fe;" horiz-adv-x="786" 
d="M702 524q29 -73 29 -167q0 -112 -41 -194.5t-117 -127t-180 -44.5q-78 0 -141 26l-45 -77l-84 50l45 78q-55 48 -84.5 121.5t-29.5 167.5q0 111 41 193.5t117.5 126.5t180.5 44q77 0 141 -25l45 76l84 -50l-45 -77q55 -48 84 -121zM230 174l250 428q-42 16 -87 16
q-99 0 -154 -67t-55 -194q0 -116 46 -183zM547 162q55 68 55 195q0 115 -46 182l-250 -428q40 -17 87 -17q99 0 154 68zM433 773h-81l103 155h121z" />
    <glyph glyph-name="oslashacute" unicode="&#x1ff;" horiz-adv-x="592" 
d="M528.5 377q23.5 -54 23.5 -122q0 -80 -31.5 -139.5t-89.5 -91.5t-134 -32q-54 0 -102 17l-38 -66l-63 37l37 64q-44 34 -67.5 88t-23.5 123q0 80 31.5 139.5t90 91.5t135.5 32q54 0 100 -17l38 65l64 -36l-38 -64q44 -35 67.5 -89zM189 143l157 270q-24 8 -49 8
q-65 0 -99.5 -42t-34.5 -124q0 -71 26 -112zM395 130.5q34 41.5 34 124.5q0 69 -25 111l-158 -270q21 -7 50 -7q65 0 99 41.5zM337 570h-81l100 206h128z" />
    <glyph glyph-name="uni0200" unicode="&#x200;" horiz-adv-x="750" 
d="M621 0l-71 167h-348l-72 -167h-130l322 712h105l323 -712h-129zM245 267h262l-131 305zM276 773l-100 155h90l74 -155h-64zM409 773l-100 155h91l73 -155h-64z" />
    <glyph glyph-name="uni0201" unicode="&#x201;" horiz-adv-x="619" 
d="M551 505v-505h-123v81q-23 -42 -66 -65.5t-98 -23.5q-66 0 -117 32t-79 91t-28 137t28.5 138.5t79.5 94t116 33.5q55 0 98 -23.5t66 -65.5v76h123zM394 133q34 43 34 121q0 80 -34 123t-97 43q-62 0 -96.5 -44.5t-34.5 -123.5q0 -78 34.5 -120t97.5 -42q62 0 96 43z
M214 570l-79 206h96l39 -206h-56zM347 570l-79 206h96l39 -206h-56z" />
    <glyph glyph-name="uni0202" unicode="&#x202;" horiz-adv-x="750" 
d="M621 0l-71 167h-348l-72 -167h-130l322 712h105l323 -712h-129zM245 267h262l-131 305zM482.5 891.5q45.5 -27.5 65.5 -81.5l-62 -26q-20 31 -47.5 44t-63.5 13t-64 -13t-48 -44l-62 26q20 55 66 82t108 27t107.5 -27.5z" />
    <glyph glyph-name="uni0203" unicode="&#x203;" horiz-adv-x="619" 
d="M551 505v-505h-123v81q-23 -42 -66 -65.5t-98 -23.5q-66 0 -117 32t-79 91t-28 137t28.5 138.5t79.5 94t116 33.5q55 0 98 -23.5t66 -65.5v76h123zM394 133q34 43 34 121q0 80 -34 123t-97 43q-62 0 -96.5 -44.5t-34.5 -123.5q0 -78 34.5 -120t97.5 -42q62 0 96 43z
M420 723q49 -35 68 -104l-63 -26q-44 84 -116 84q-73 0 -117 -84l-63 26q19 69 68 104t112 35q62 0 111 -35z" />
    <glyph glyph-name="uni0204" unicode="&#x204;" horiz-adv-x="595" 
d="M77 0v712h476v-102h-350v-197h329v-102h-329v-209h350v-102h-476zM232 773l-100 155h90l74 -155h-64zM365 773l-100 155h91l73 -155h-64z" />
    <glyph glyph-name="uni0205" unicode="&#x205;" horiz-adv-x="548" 
d="M510 246h-348q4 -81 40.5 -119.5t108.5 -38.5q83 0 154 54l36 -86q-36 -29 -88.5 -46.5t-106.5 -17.5q-124 0 -195 70t-71 192q0 77 31 137t87 93.5t127 33.5q104 0 164.5 -67.5t60.5 -185.5v-19zM206.5 398.5q-31.5 -29.5 -40.5 -85.5h235q-6 57 -34.5 86t-78.5 29
t-81.5 -29.5zM190 570l-79 206h96l39 -206h-56zM323 570l-79 206h96l39 -206h-56z" />
    <glyph glyph-name="uni0206" unicode="&#x206;" horiz-adv-x="595" 
d="M77 0v712h476v-102h-350v-197h329v-102h-329v-209h350v-102h-476zM438.5 891.5q45.5 -27.5 65.5 -81.5l-62 -26q-20 31 -47.5 44t-63.5 13t-64 -13t-48 -44l-62 26q20 55 66 82t108 27t107.5 -27.5z" />
    <glyph glyph-name="uni0207" unicode="&#x207;" horiz-adv-x="548" 
d="M510 246h-348q4 -81 40.5 -119.5t108.5 -38.5q83 0 154 54l36 -86q-36 -29 -88.5 -46.5t-106.5 -17.5q-124 0 -195 70t-71 192q0 77 31 137t87 93.5t127 33.5q104 0 164.5 -67.5t60.5 -185.5v-19zM206.5 398.5q-31.5 -29.5 -40.5 -85.5h235q-6 57 -34.5 86t-78.5 29
t-81.5 -29.5zM396 723q49 -35 68 -104l-63 -26q-44 84 -116 84q-73 0 -117 -84l-63 26q19 69 68 104t112 35q62 0 111 -35z" />
    <glyph glyph-name="uni0208" unicode="&#x208;" horiz-adv-x="283" 
d="M77 0v712h129v-712h-129zM42 773l-100 155h90l74 -155h-64zM175 773l-100 155h91l73 -155h-64z" />
    <glyph glyph-name="uni0209" unicode="&#x209;" horiz-adv-x="261" 
d="M68 0v505h124v-505h-124zM35 570l-79 206h96l39 -206h-56zM168 570l-79 206h96l39 -206h-56z" />
    <glyph glyph-name="uni020A" unicode="&#x20a;" horiz-adv-x="283" 
d="M77 0v712h129v-712h-129zM248.5 891.5q45.5 -27.5 65.5 -81.5l-62 -26q-20 31 -47.5 44t-63.5 13t-64 -13t-48 -44l-62 26q20 55 66 82t108 27t107.5 -27.5z" />
    <glyph glyph-name="uni020B" unicode="&#x20b;" horiz-adv-x="261" 
d="M68 0v505h124v-505h-124zM241 723q49 -35 68 -104l-63 -26q-44 84 -116 84q-73 0 -117 -84l-63 26q19 69 68 104t112 35q62 0 111 -35z" />
    <glyph glyph-name="uni020C" unicode="&#x20c;" horiz-adv-x="786" 
d="M213.5 35.5q-76.5 44.5 -118 127t-41.5 194.5q0 111 41 193.5t117.5 126.5t180.5 44t180.5 -44t117 -126.5t40.5 -193.5q0 -112 -41 -194.5t-117 -127t-180 -44.5q-103 0 -179.5 44.5zM547 162q55 68 55 195q0 126 -55 193.5t-154 67.5t-154 -67t-55 -194t55 -195
t154 -68t154 68zM294 773l-100 155h90l74 -155h-64zM427 773l-100 155h91l73 -155h-64z" />
    <glyph glyph-name="uni020D" unicode="&#x20d;" horiz-adv-x="592" 
d="M161.5 24q-58.5 32 -90 91.5t-31.5 139.5t31.5 139.5t90 91.5t135.5 32q76 0 134 -32t89.5 -91.5t31.5 -139.5t-31.5 -139.5t-89.5 -91.5t-134 -32q-77 0 -135.5 32zM393.5 131.5q33.5 41.5 33.5 123.5q0 81 -34 123.5t-96 42.5q-63 0 -97 -42.5t-34 -123.5
q0 -82 33.5 -123.5t96.5 -41.5q64 0 97.5 41.5zM202 570l-79 206h96l39 -206h-56zM335 570l-79 206h96l39 -206h-56z" />
    <glyph glyph-name="uni020E" unicode="&#x20e;" horiz-adv-x="786" 
d="M213.5 35.5q-76.5 44.5 -118 127t-41.5 194.5q0 111 41 193.5t117.5 126.5t180.5 44t180.5 -44t117 -126.5t40.5 -193.5q0 -112 -41 -194.5t-117 -127t-180 -44.5q-103 0 -179.5 44.5zM547 162q55 68 55 195q0 126 -55 193.5t-154 67.5t-154 -67t-55 -194t55 -195
t154 -68t154 68zM500.5 891.5q45.5 -27.5 65.5 -81.5l-62 -26q-20 31 -47.5 44t-63.5 13t-64 -13t-48 -44l-62 26q20 55 66 82t108 27t107.5 -27.5z" />
    <glyph glyph-name="uni020F" unicode="&#x20f;" horiz-adv-x="592" 
d="M161.5 24q-58.5 32 -90 91.5t-31.5 139.5t31.5 139.5t90 91.5t135.5 32q76 0 134 -32t89.5 -91.5t31.5 -139.5t-31.5 -139.5t-89.5 -91.5t-134 -32q-77 0 -135.5 32zM393.5 131.5q33.5 41.5 33.5 123.5q0 81 -34 123.5t-96 42.5q-63 0 -97 -42.5t-34 -123.5
q0 -82 33.5 -123.5t96.5 -41.5q64 0 97.5 41.5zM408 723q49 -35 68 -104l-63 -26q-44 84 -116 84q-73 0 -117 -84l-63 26q19 69 68 104t112 35q62 0 111 -35z" />
    <glyph glyph-name="uni0210" unicode="&#x210;" horiz-adv-x="702" 
d="M663 0h-136l-91 237q-12 33 -37 46t-65 13h-129v-296h-128v712h305q121 0 184 -53t63 -152q0 -71 -37.5 -120.5t-106.5 -70.5q63 -13 91 -88zM364 396q73 0 108 27t35 82q0 54 -34.5 80.5t-108.5 26.5h-161v-216h161zM252 773l-100 155h90l74 -155h-64zM385 773l-100 155
h91l73 -155h-64z" />
    <glyph glyph-name="uni0211" unicode="&#x211;" horiz-adv-x="392" 
d="M390 509l-1 -114q-32 13 -66 13q-64 0 -97.5 -37t-33.5 -98v-273h-124v362q0 80 -8 143h117l10 -89q19 49 60 75t93 26q29 0 50 -8zM138 570l-79 206h96l39 -206h-56zM271 570l-79 206h96l39 -206h-56z" />
    <glyph glyph-name="uni0212" unicode="&#x212;" horiz-adv-x="702" 
d="M663 0h-136l-91 237q-12 33 -37 46t-65 13h-129v-296h-128v712h305q121 0 184 -53t63 -152q0 -71 -37.5 -120.5t-106.5 -70.5q63 -13 91 -88zM364 396q73 0 108 27t35 82q0 54 -34.5 80.5t-108.5 26.5h-161v-216h161zM458.5 891.5q45.5 -27.5 65.5 -81.5l-62 -26
q-20 31 -47.5 44t-63.5 13t-64 -13t-48 -44l-62 26q20 55 66 82t108 27t107.5 -27.5z" />
    <glyph glyph-name="uni0213" unicode="&#x213;" horiz-adv-x="392" 
d="M390 509l-1 -114q-32 13 -66 13q-64 0 -97.5 -37t-33.5 -98v-273h-124v362q0 80 -8 143h117l10 -89q19 49 60 75t93 26q29 0 50 -8zM344 723q49 -35 68 -104l-63 -26q-44 84 -116 84q-73 0 -117 -84l-63 26q19 69 68 104t112 35q62 0 111 -35z" />
    <glyph glyph-name="uni0214" unicode="&#x214;" horiz-adv-x="740" 
d="M148.5 66.5q-75.5 75.5 -75.5 221.5v424h127v-431q0 -92 43 -139.5t128 -47.5q83 0 126.5 48t43.5 139v431h127v-424q0 -145 -76 -221t-221 -76q-147 0 -222.5 75.5zM272 773l-100 155h90l74 -155h-64zM405 773l-100 155h91l73 -155h-64z" />
    <glyph glyph-name="uni0215" unicode="&#x215;" horiz-adv-x="596" 
d="M528 505v-505h-122v78q-24 -42 -64 -64t-92 -22q-185 0 -185 208v305h124v-306q0 -55 22.5 -81t69.5 -26q55 0 88 36t33 96v281h126zM202 570l-79 206h96l39 -206h-56zM335 570l-79 206h96l39 -206h-56z" />
    <glyph glyph-name="uni0216" unicode="&#x216;" horiz-adv-x="740" 
d="M148.5 66.5q-75.5 75.5 -75.5 221.5v424h127v-431q0 -92 43 -139.5t128 -47.5q83 0 126.5 48t43.5 139v431h127v-424q0 -145 -76 -221t-221 -76q-147 0 -222.5 75.5zM478.5 891.5q45.5 -27.5 65.5 -81.5l-62 -26q-20 31 -47.5 44t-63.5 13t-64 -13t-48 -44l-62 26
q20 55 66 82t108 27t107.5 -27.5z" />
    <glyph glyph-name="uni0217" unicode="&#x217;" horiz-adv-x="596" 
d="M528 505v-505h-122v78q-24 -42 -64 -64t-92 -22q-185 0 -185 208v305h124v-306q0 -55 22.5 -81t69.5 -26q55 0 88 36t33 96v281h126zM408 723q49 -35 68 -104l-63 -26q-44 84 -116 84q-73 0 -117 -84l-63 26q19 69 68 104t112 35q62 0 111 -35z" />
    <glyph glyph-name="Scommaaccent" unicode="&#x218;" horiz-adv-x="644" 
d="M164.5 13q-71.5 22 -121.5 63l44 94q52 -39 108.5 -57.5t123.5 -18.5q74 0 114.5 26t40.5 73q0 40 -37.5 61.5t-123.5 40.5q-134 29 -195 75t-61 134q0 63 34 112t96.5 77t144.5 28q75 0 142.5 -22.5t110.5 -62.5l-43 -94q-95 76 -210 76q-69 0 -109 -28.5t-40 -77.5
q0 -42 35.5 -64t121.5 -41q89 -21 145 -45.5t86 -63t30 -96.5q0 -64 -34 -111.5t-98 -73.5t-151 -26q-82 0 -153.5 22zM387 -69v-62q0 -44 -12.5 -78t-44.5 -63l-48 34q30 30 35 66h-61v103h131z" />
    <glyph glyph-name="scommaaccent" unicode="&#x219;" horiz-adv-x="501" 
d="M35 56l35 88q81 -60 185 -60q45 0 69.5 15t24.5 42q0 23 -17 36.5t-58 23.5l-84 19q-138 30 -138 141q0 46 26 81.5t73 55.5t109 20q54 0 104 -16.5t88 -47.5l-37 -85q-76 56 -156 56q-43 0 -67 -16t-24 -44q0 -22 14.5 -35t49.5 -22l86 -19q75 -17 109.5 -52.5
t34.5 -92.5q0 -70 -56 -111t-153 -41q-137 0 -218 64zM315 -69v-62q0 -44 -12.5 -78t-44.5 -63l-48 34q30 30 35 66h-61v103h131z" />
    <glyph glyph-name="uni021A" unicode="&#x21a;" horiz-adv-x="619" 
d="M244 0v606h-232v106h595v-106h-233v-606h-130zM374 -69v-62q0 -44 -12.5 -78t-44.5 -63l-48 34q30 30 35 66h-61v103h131z" />
    <glyph glyph-name="uni021B" unicode="&#x21b;" horiz-adv-x="379" 
d="M227 411v-226q0 -89 83 -89q23 0 50 8v-99q-33 -12 -80 -12q-86 0 -132 48t-46 138v232h-97v94h97v123l125 42v-165h134v-94h-134zM306 -69v-62q0 -44 -12.5 -78t-44.5 -63l-48 34q30 30 35 66h-61v103h131z" />
    <glyph glyph-name="uni0227" unicode="&#x227;" horiz-adv-x="619" 
d="M551 505v-505h-123v81q-23 -42 -66 -65.5t-98 -23.5q-66 0 -117 32t-79 91t-28 137t28.5 138.5t79.5 94t116 33.5q55 0 98 -23.5t66 -65.5v76h123zM394 133q34 43 34 121q0 80 -34 123t-97 43q-62 0 -96.5 -44.5t-34.5 -123.5q0 -78 34.5 -120t97.5 -42q62 0 96 43z
M239 734h139v-123h-139v123z" />
    <glyph glyph-name="uni0228" unicode="&#x228;" horiz-adv-x="595" 
d="M203 610v-197h329v-102h-329v-209h350v-102h-196l-5 -41q6 1 17 1q36 0 58.5 -18.5t22.5 -51.5q0 -39 -34 -63t-95 -24q-22 0 -47.5 4.5t-44.5 13.5l12 53q43 -14 78 -14q50 0 50 30q0 22 -34 22q-14 0 -40 -7l-19 19l9 76h-208v712h476v-102h-350z" />
    <glyph glyph-name="uni022A" unicode="&#x22a;" horiz-adv-x="786" 
d="M213.5 35.5q-76.5 44.5 -118 127t-41.5 194.5q0 111 41 193.5t117.5 126.5t180.5 44t180.5 -44t117 -126.5t40.5 -193.5q0 -112 -41 -194.5t-117 -127t-180 -44.5q-103 0 -179.5 44.5zM547 162q55 68 55 195q0 126 -55 193.5t-154 67.5t-154 -67t-55 -194t55 -195
t154 -68t154 68zM240 909h120v-115h-120v115zM425 909h120v-115h-120v115zM237 972v82h311v-82h-311z" />
    <glyph glyph-name="uni022B" unicode="&#x22b;" horiz-adv-x="592" 
d="M161.5 24q-58.5 32 -90 91.5t-31.5 139.5t31.5 139.5t90 91.5t135.5 32q76 0 134 -32t89.5 -91.5t31.5 -139.5t-31.5 -139.5t-89.5 -91.5t-134 -32q-77 0 -135.5 32zM393.5 131.5q33.5 41.5 33.5 123.5q0 81 -34 123.5t-96 42.5q-63 0 -97 -42.5t-34 -123.5
q0 -82 33.5 -123.5t96.5 -41.5q64 0 97.5 41.5zM144 730h120v-115h-120v115zM329 730h120v-115h-120v115zM141 825v82h311v-82h-311z" />
    <glyph glyph-name="uni022C" unicode="&#x22c;" horiz-adv-x="786" 
d="M213.5 35.5q-76.5 44.5 -118 127t-41.5 194.5q0 111 41 193.5t117.5 126.5t180.5 44t180.5 -44t117 -126.5t40.5 -193.5q0 -112 -41 -194.5t-117 -127t-180 -44.5q-103 0 -179.5 44.5zM547 162q55 68 55 195q0 126 -55 193.5t-154 67.5t-154 -67t-55 -194t55 -195
t154 -68t154 68zM250 886q28 34 74 34q19 0 35.5 -7t44.5 -23q37 -24 57 -24t31.5 14t13.5 37h57q0 -66 -28 -100t-74 -34q-19 0 -35.5 7t-44.5 23q-37 24 -57 24t-31.5 -14t-13.5 -37h-57q0 66 28 100zM237 972v82h311v-82h-311z" />
    <glyph glyph-name="uni022D" unicode="&#x22d;" horiz-adv-x="592" 
d="M161.5 24q-58.5 32 -90 91.5t-31.5 139.5t31.5 139.5t90 91.5t135.5 32q76 0 134 -32t89.5 -91.5t31.5 -139.5t-31.5 -139.5t-89.5 -91.5t-134 -32q-77 0 -135.5 32zM393.5 131.5q33.5 41.5 33.5 123.5q0 81 -34 123.5t-96 42.5q-63 0 -97 -42.5t-34 -123.5
q0 -82 33.5 -123.5t96.5 -41.5q64 0 97.5 41.5zM154 708.5q28 34.5 74 34.5q19 0 36.5 -7.5t43.5 -23.5q20 -12 33 -18t24 -6q20 0 31.5 14.5t13.5 37.5h57q0 -66 -28 -100.5t-74 -34.5q-19 0 -35.5 7t-44.5 23q-37 24 -57 24t-31.5 -14t-13.5 -37h-57q0 66 28 100.5z
M141 825v82h311v-82h-311z" />
    <glyph glyph-name="uni0230" unicode="&#x230;" horiz-adv-x="786" 
d="M213.5 35.5q-76.5 44.5 -118 127t-41.5 194.5q0 111 41 193.5t117.5 126.5t180.5 44t180.5 -44t117 -126.5t40.5 -193.5q0 -112 -41 -194.5t-117 -127t-180 -44.5q-103 0 -179.5 44.5zM547 162q55 68 55 195q0 126 -55 193.5t-154 67.5t-154 -67t-55 -194t55 -195
t154 -68t154 68zM323 913h139v-123h-139v123zM237 972v82h311v-82h-311z" />
    <glyph glyph-name="uni0231" unicode="&#x231;" horiz-adv-x="592" 
d="M161.5 24q-58.5 32 -90 91.5t-31.5 139.5t31.5 139.5t90 91.5t135.5 32q76 0 134 -32t89.5 -91.5t31.5 -139.5t-31.5 -139.5t-89.5 -91.5t-134 -32q-77 0 -135.5 32zM393.5 131.5q33.5 41.5 33.5 123.5q0 81 -34 123.5t-96 42.5q-63 0 -97 -42.5t-34 -123.5
q0 -82 33.5 -123.5t96.5 -41.5q64 0 97.5 41.5zM227 734h139v-123h-139v123zM141 825v82h311v-82h-311z" />
    <glyph glyph-name="uni0232" unicode="&#x232;" horiz-adv-x="629" 
d="M668 712l-289 -430v-282h-129v282l-289 430h147l206 -322l207 322h147zM158 810v82h311v-82h-311z" />
    <glyph glyph-name="uni0233" unicode="&#x233;" horiz-adv-x="543" 
d="M546 505l-235 -539q-40 -94 -102 -137t-153 -57l-28 96q71 16 106.5 40.5t57.5 72.5l16 37l-210 487h131l145 -363l148 363h124zM116 631v82h311v-82h-311z" />
    <glyph glyph-name="uni0237" unicode="&#x237;" horiz-adv-x="261" 
d="M-12 -119q36 0 58 21t22 68v535h124v-541q0 -90 -45.5 -138t-129.5 -48q-45 0 -78 11v100q27 -8 49 -8z" />
    <glyph glyph-name="uni0259" unicode="&#x259;" horiz-adv-x="548" 
d="M386.5 486q58.5 -32 90 -91.5t31.5 -139.5q0 -78 -30 -137.5t-84 -92.5t-124 -33q-108 0 -169.5 67t-61.5 186v19h349q-4 80 -40 118.5t-105 38.5q-76 0 -160 -54l-36 86q37 30 91.5 47.5t111.5 17.5q78 0 136.5 -32zM345.5 110.5q30.5 29.5 39.5 85.5h-234
q6 -56 35 -85.5t79 -29.5t80.5 29.5z" />
    <glyph glyph-name="uni02BB" unicode="&#x2bb;" horiz-adv-x="300" 
d="M217 691v-103h-131v62q0 45 12.5 78.5t44.5 62.5l48 -33q-31 -31 -36 -67h62z" />
    <glyph glyph-name="uni02BC" unicode="&#x2bc;" horiz-adv-x="300" 
d="M214 765v-63q0 -44 -13 -77.5t-44 -62.5l-48 34q31 30 36 66h-62v103h131z" />
    <glyph glyph-name="uni02BE" unicode="&#x2be;" horiz-adv-x="300" 
d="M227.5 737.5q31.5 -30.5 31.5 -74.5q0 -45 -31 -75t-76 -30v57q19 0 32 14t13 34t-13 33.5t-32 13.5v58q44 0 75.5 -30.5z" />
    <glyph glyph-name="uni02BF" unicode="&#x2bf;" horiz-adv-x="300" 
d="M152 710q-20 0 -33 -13.5t-13 -33.5t13 -34t33 -14v-57q-45 0 -76.5 30t-31.5 75q0 44 31.5 74.5t76.5 30.5v-58z" />
    <glyph glyph-name="circumflex" unicode="&#x2c6;" horiz-adv-x="300" 
d="M88 559h-102l126 206h79l126 -206h-102l-63 128z" />
    <glyph glyph-name="caron" unicode="&#x2c7;" horiz-adv-x="300" 
d="M215 765h102l-126 -206h-79l-126 206h102l64 -128z" />
    <glyph glyph-name="uni02C8" unicode="&#x2c8;" horiz-adv-x="300" 
d="M110 559v205h83v-205h-83z" />
    <glyph glyph-name="uni02C9" unicode="&#x2c9;" horiz-adv-x="300" 
d="M-4 620v82h311v-82h-311z" />
    <glyph glyph-name="uni02CA" unicode="&#x2ca;" horiz-adv-x="300" 
d="M192 559h-81l100 206h128z" />
    <glyph glyph-name="uni02CB" unicode="&#x2cb;" horiz-adv-x="300" 
d="M111 559l-147 206h128l100 -206h-81z" />
    <glyph glyph-name="uni02CC" unicode="&#x2cc;" horiz-adv-x="300" 
d="M110 -273v205h83v-205h-83z" />
    <glyph glyph-name="breve" unicode="&#x2d8;" horiz-adv-x="300" 
d="M40.5 619.5q-49.5 34.5 -68.5 103.5l63 28q43 -84 117 -84q73 0 116 84l63 -27q-19 -69 -68 -104t-111 -35t-111.5 34.5z" />
    <glyph glyph-name="dotaccent" unicode="&#x2d9;" horiz-adv-x="300" 
d="M82 723h139v-123h-139v123z" />
    <glyph glyph-name="ring" unicode="&#x2da;" horiz-adv-x="300" 
d="M75.5 587.5q-31.5 30.5 -31.5 75.5q0 43 31.5 73.5t76.5 30.5q44 0 75.5 -30.5t31.5 -73.5q0 -45 -31 -75.5t-76 -30.5t-76.5 30.5zM184 628q13 14 13 35q0 20 -13 33.5t-32 13.5q-20 0 -33 -13.5t-13 -33.5q0 -21 13 -35t33 -14q19 0 32 14z" />
    <glyph glyph-name="ogonek" unicode="&#x2db;" horiz-adv-x="300" 
d="M25 -167q-35 30 -35 79q0 51 37.5 87t108.5 45l16 -34q-77 -19 -77 -81q0 -28 16.5 -42.5t45.5 -14.5q26 0 56 14l17 -62q-44 -21 -96 -21q-54 0 -89 30z" />
    <glyph glyph-name="tilde" unicode="&#x2dc;" horiz-adv-x="300" 
d="M9 697.5q28 34.5 74 34.5q19 0 36.5 -7.5t43.5 -23.5q20 -12 33 -18t24 -6q20 0 31.5 14.5t13.5 37.5h57q0 -66 -28 -100.5t-74 -34.5q-19 0 -35.5 7t-44.5 23q-37 24 -57 24t-31.5 -14t-13.5 -37h-57q0 66 28 100.5z" />
    <glyph glyph-name="hungarumlaut" unicode="&#x2dd;" horiz-adv-x="300" 
d="M113 559h-56l39 206h96zM246 559h-56l39 206h96z" />
    <glyph glyph-name="gravecomb" unicode="&#x300;" 
d="M-189 559l-147 206h128l100 -206h-81z" />
    <glyph glyph-name="acutecomb" unicode="&#x301;" 
d="M-108 559h-81l100 206h128z" />
    <glyph glyph-name="uni0302" unicode="&#x302;" 
d="M-212 559h-102l126 206h79l126 -206h-102l-63 128z" />
    <glyph glyph-name="tildecomb" unicode="&#x303;" 
d="M-291 697.5q28 34.5 74 34.5q19 0 36.5 -7.5t43.5 -23.5q20 -12 33 -18t24 -6q20 0 31.5 14.5t13.5 37.5h57q0 -66 -28 -100.5t-74 -34.5q-19 0 -35.5 7t-44.5 23q-37 24 -57 24t-31.5 -14t-13.5 -37h-57q0 66 28 100.5z" />
    <glyph glyph-name="uni0304" unicode="&#x304;" 
d="M-304 620v82h311v-82h-311z" />
    <glyph glyph-name="uni0306" unicode="&#x306;" 
d="M-259.5 619.5q-49.5 34.5 -68.5 103.5l63 28q43 -84 117 -84q73 0 116 84l63 -27q-19 -69 -68 -104t-111 -35t-111.5 34.5z" />
    <glyph glyph-name="uni0307" unicode="&#x307;" 
d="M-218 723h139v-123h-139v123z" />
    <glyph glyph-name="uni0308" unicode="&#x308;" 
d="M-301 719h120v-115h-120v115zM-116 719h120v-115h-120v115z" />
    <glyph glyph-name="hookabovecomb" unicode="&#x309;" 
d="M-113 559h-68v27q0 20 10 34t28 30q12 10 18 17.5t6 15.5q0 24 -37 24q-27 0 -54 -10l-18 52q41 19 84 19q52 0 81.5 -21t29.5 -52q0 -23 -11 -37.5t-34 -32.5q-17 -13 -26 -23t-9 -23v-20z" />
    <glyph glyph-name="uni030A" unicode="&#x30a;" 
d="M-224.5 587.5q-31.5 30.5 -31.5 75.5q0 43 31.5 73.5t76.5 30.5q44 0 75.5 -30.5t31.5 -73.5q0 -45 -31 -75.5t-76 -30.5t-76.5 30.5zM-116 628q13 14 13 35q0 20 -13 33.5t-32 13.5q-20 0 -33 -13.5t-13 -33.5q0 -21 13 -35t33 -14q19 0 32 14z" />
    <glyph glyph-name="uni030B" unicode="&#x30b;" 
d="M-187 559h-56l39 206h96zM-54 559h-56l39 206h96z" />
    <glyph glyph-name="uni030C" unicode="&#x30c;" 
d="M-85 765h102l-126 -206h-79l-126 206h102l64 -128z" />
    <glyph glyph-name="uni030F" unicode="&#x30f;" 
d="M-243 559l-79 206h96l39 -206h-56zM-110 559l-79 206h96l39 -206h-56z" />
    <glyph glyph-name="uni0311" unicode="&#x311;" 
d="M-37 712q49 -35 68 -104l-63 -26q-44 84 -116 84q-73 0 -117 -84l-63 26q19 69 68 104t112 35q62 0 111 -35z" />
    <glyph glyph-name="uni0312" unicode="&#x312;" 
d="M-83 691v-103h-131v62q0 45 12.5 78.5t44.5 62.5l48 -33q-31 -31 -36 -67h62z" />
    <glyph glyph-name="uni031B" unicode="&#x31b;" 
d="M-149 479v19q55 1 77 24t22 82v18h110v-34q0 -64 -37.5 -106t-100.5 -49z" />
    <glyph glyph-name="dotbelowcomb" unicode="&#x323;" 
d="M-209 -78h121v-117h-121v117z" />
    <glyph glyph-name="uni0324" unicode="&#x324;" 
d="M-301 -79h120v-115h-120v115zM-116 -79h120v-115h-120v115z" />
    <glyph glyph-name="uni0326" unicode="&#x326;" 
d="M-83 -69v-62q0 -44 -12.5 -78t-44.5 -63l-48 34q30 30 35 66h-61v103h131z" />
    <glyph glyph-name="uni0327" unicode="&#x327;" 
d="M-50.5 -58.5q22.5 -18.5 22.5 -51.5q0 -39 -34 -63t-95 -24q-22 0 -47.5 4.5t-44.5 13.5l12 53q43 -14 78 -14q50 0 50 30q0 22 -34 22q-14 0 -40 -7l-19 19l11 96h73l-8 -61q6 1 17 1q36 0 58.5 -18.5z" />
    <glyph glyph-name="uni0328" unicode="&#x328;" 
d="M-275 -167q-35 30 -35 79q0 51 37.5 87t108.5 45l16 -34q-77 -19 -77 -81q0 -28 16.5 -42.5t45.5 -14.5q26 0 56 14l17 -62q-44 -21 -96 -21q-54 0 -89 30z" />
    <glyph glyph-name="uni032E" unicode="&#x32e;" 
d="M-259.5 -188q-49.5 35 -68.5 104l63 26q44 -83 117 -83q72 0 116 83l63 -26q-19 -69 -68 -104t-111 -35t-111.5 35z" />
    <glyph glyph-name="uni0331" unicode="&#x331;" 
d="M-304 -176v78h311v-78h-311z" />
    <glyph glyph-name="uni0335" unicode="&#x335;" 
d="M-304 213v74h311v-74h-311z" />
    <glyph glyph-name="uni0394" unicode="&#x394;" horiz-adv-x="746" 
d="M424 712l291 -625v-87h-684v87l291 625h102zM374 570l-207 -463h414z" />
    <glyph glyph-name="Sigma" unicode="&#x3a3;" horiz-adv-x="602" 
d="M557 712v-105h-365l215 -301l-1 -81l-214 -302h365v-105h-514v93l251 354l-251 354v93h514z" />
    <glyph glyph-name="uni03A9" unicode="&#x3a9;" horiz-adv-x="807" 
d="M592 105h153v-105h-281v101q83 75 123 151.5t40 158.5q0 97 -59 152t-164 55q-106 0 -165 -54.5t-59 -152.5q0 -82 40.5 -158.5t123.5 -151.5v-101h-281v105h152q-165 141 -165 309q0 93 44 162.5t124 107t186 37.5t186 -38t123.5 -107t43.5 -162q0 -166 -165 -309z" />
    <glyph glyph-name="uni03BC" unicode="&#x3bc;" horiz-adv-x="596" 
d="M528 505v-505h-122v78q-24 -42 -64 -64t-92 -22q-33 0 -61 11v-219h-124v721h124v-306q0 -55 22.5 -81t69.5 -26q55 0 88 36t33 96v281h126z" />
    <glyph glyph-name="pi" unicode="&#x3c0;" horiz-adv-x="618" 
d="M613 84l-10 -92l-48 3q-113 7 -162 55.5t-49 153.5v207h-112q-2 -114 -17.5 -212.5t-51.5 -198.5l-129 -1q33 108 51 207t22 205h-103v94h578v-94h-113v-227q0 -47 22 -69.5t71 -25.5z" />
    <glyph glyph-name="uni1E08" unicode="&#x1e08;" horiz-adv-x="685" 
d="M578 928l-143 -155h-81l103 155h121zM544.5 17q-57.5 -22 -124.5 -26l-4 -32q6 1 17 1q36 0 58.5 -18.5t22.5 -51.5q0 -39 -34 -63t-95 -24q-22 0 -47.5 4.5t-44.5 13.5l12 53q43 -14 78 -14q50 0 50 30q0 22 -34 22q-14 0 -40 -7l-19 19l8 70q-90 11 -156.5 58.5
t-102 125.5t-35.5 179q0 110 42 192.5t120.5 127t183.5 44.5q72 0 135.5 -22.5t105.5 -62.5l-42 -94q-48 39 -95.5 56.5t-101.5 17.5q-103 0 -159.5 -67t-56.5 -192q0 -126 56 -193.5t160 -67.5q54 0 101.5 17.5t95.5 56.5l42 -94q-39 -37 -96.5 -59z" />
    <glyph glyph-name="uni1E09" unicode="&#x1e09;" horiz-adv-x="503" 
d="M485 776l-147 -206h-81l100 206h128zM412.5 11.5q-45.5 -16.5 -96.5 -18.5l-4 -34q6 1 17 1q36 0 58.5 -18.5t22.5 -51.5q0 -39 -34 -63t-95 -24q-22 0 -47.5 4.5t-44.5 13.5l12 53q43 -14 78 -14q50 0 50 30q0 22 -34 22q-14 0 -40 -7l-19 19l8 72q-96 15 -150 83
t-54 173q0 79 32.5 139t92 93.5t137.5 33.5q54 0 104.5 -17t80.5 -47l-35 -88q-32 26 -68 39.5t-71 13.5q-68 0 -106 -42.5t-38 -122.5t37.5 -122t106.5 -42q35 0 71 14t68 40l35 -88q-29 -28 -74.5 -44.5z" />
    <glyph glyph-name="uni1E0C" unicode="&#x1e0c;" horiz-adv-x="762" 
d="M77 712h262q175 0 271.5 -93t96.5 -262q0 -170 -96.5 -263.5t-271.5 -93.5h-262v712zM331 105q246 0 246 252q0 250 -246 250h-125v-502h125zM320 -78h121v-117h-121v117z" />
    <glyph glyph-name="uni1E0D" unicode="&#x1e0d;" horiz-adv-x="619" 
d="M551 736v-736h-123v81q-23 -42 -66 -65.5t-98 -23.5q-65 0 -116 33t-79.5 93.5t-28.5 138.5t28 137t79 91.5t117 32.5q54 0 96.5 -22.5t65.5 -63.5v304h125zM393.5 133q34.5 43 34.5 122t-34 122t-96 43q-63 0 -97.5 -42.5t-34.5 -120.5q0 -79 34.5 -123t96.5 -44
t96.5 43zM249 -78h121v-117h-121v117z" />
    <glyph glyph-name="uni1E0E" unicode="&#x1e0e;" horiz-adv-x="762" 
d="M77 712h262q175 0 271.5 -93t96.5 -262q0 -170 -96.5 -263.5t-271.5 -93.5h-262v712zM331 105q246 0 246 252q0 250 -246 250h-125v-502h125zM225 -176v78h311v-78h-311z" />
    <glyph glyph-name="uni1E0F" unicode="&#x1e0f;" horiz-adv-x="619" 
d="M551 736v-736h-123v81q-23 -42 -66 -65.5t-98 -23.5q-65 0 -116 33t-79.5 93.5t-28.5 138.5t28 137t79 91.5t117 32.5q54 0 96.5 -22.5t65.5 -63.5v304h125zM393.5 133q34.5 43 34.5 122t-34 122t-96 43q-63 0 -97.5 -42.5t-34.5 -120.5q0 -79 34.5 -123t96.5 -44
t96.5 43zM154 -176v78h311v-78h-311z" />
    <glyph glyph-name="uni1E14" unicode="&#x1e14;" horiz-adv-x="595" 
d="M77 0v712h476v-102h-350v-197h329v-102h-329v-209h350v-102h-476zM175 810v82h311v-82h-311zM290 935l-143 155h121l103 -155h-81z" />
    <glyph glyph-name="uni1E15" unicode="&#x1e15;" horiz-adv-x="548" 
d="M510 246h-348q4 -81 40.5 -119.5t108.5 -38.5q83 0 154 54l36 -86q-36 -29 -88.5 -46.5t-106.5 -17.5q-124 0 -195 70t-71 192q0 77 31 137t87 93.5t127 33.5q104 0 164.5 -67.5t60.5 -185.5v-19zM206.5 398.5q-31.5 -29.5 -40.5 -85.5h235q-6 57 -34.5 86t-78.5 29
t-81.5 -29.5zM129 631v82h311v-82h-311zM244 764l-147 206h128l100 -206h-81z" />
    <glyph glyph-name="uni1E16" unicode="&#x1e16;" horiz-adv-x="595" 
d="M77 0v712h476v-102h-350v-197h329v-102h-329v-209h350v-102h-476zM175 810v82h311v-82h-311zM371 935h-81l103 155h121z" />
    <glyph glyph-name="uni1E17" unicode="&#x1e17;" horiz-adv-x="548" 
d="M510 246h-348q4 -81 40.5 -119.5t108.5 -38.5q83 0 154 54l36 -86q-36 -29 -88.5 -46.5t-106.5 -17.5q-124 0 -195 70t-71 192q0 77 31 137t87 93.5t127 33.5q104 0 164.5 -67.5t60.5 -185.5v-19zM206.5 398.5q-31.5 -29.5 -40.5 -85.5h235q-6 57 -34.5 86t-78.5 29
t-81.5 -29.5zM129 631v82h311v-82h-311zM325 764h-81l100 206h128z" />
    <glyph glyph-name="uni1E1C" unicode="&#x1e1c;" horiz-adv-x="595" 
d="M223 810q-46 27 -66 82l62 27q20 -32 47.5 -45t64.5 -13q36 0 63.5 13t47.5 45l62 -27q-20 -54 -65.5 -81.5t-107.5 -27.5t-108 27zM203 610v-197h329v-102h-329v-209h350v-102h-196l-5 -41q6 1 17 1q36 0 58.5 -18.5t22.5 -51.5q0 -39 -34 -63t-95 -24q-22 0 -47.5 4.5
t-44.5 13.5l12 53q43 -14 78 -14q50 0 50 30q0 22 -34 22q-14 0 -40 -7l-19 19l9 76h-208v712h476v-102h-350z" />
    <glyph glyph-name="uni1E1D" unicode="&#x1e1d;" horiz-adv-x="548" 
d="M173.5 630.5q-49.5 34.5 -68.5 103.5l63 28q43 -84 117 -84q73 0 116 84l63 -27q-19 -69 -68 -104t-111 -35t-111.5 34.5zM510 246h-348q4 -81 40.5 -119.5t108.5 -38.5q83 0 154 54l36 -86q-32 -26 -77.5 -42.5t-94.5 -20.5l-4 -34q6 1 17 1q36 0 58.5 -18.5t22.5 -51.5
q0 -39 -34 -63t-95 -24q-22 0 -47.5 4.5t-44.5 13.5l12 53q43 -14 78 -14q50 0 50 30q0 22 -34 22q-14 0 -40 -7l-19 19l8 71q-102 14 -159.5 82t-57.5 177q0 77 31 137t87 93.5t127 33.5q104 0 164.5 -67.5t60.5 -185.5v-19zM206.5 398.5q-31.5 -29.5 -40.5 -85.5h235
q-6 57 -34.5 86t-78.5 29t-81.5 -29.5z" />
    <glyph glyph-name="uni1E20" unicode="&#x1e20;" horiz-adv-x="739" 
d="M671 385v-342q-49 -24 -118 -38t-141 -14q-110 0 -191 44t-124 126t-43 196q0 112 43 194t122.5 126t186.5 44q75 0 140.5 -22t109.5 -62l-44 -94q-50 39 -98 56t-105 17q-110 0 -166.5 -66t-56.5 -193q0 -131 58 -197.5t173 -66.5q70 0 138 19v180h-154v93h270zM249 810
v82h311v-82h-311z" />
    <glyph glyph-name="uni1E21" unicode="&#x1e21;" horiz-adv-x="623" 
d="M556 505v-489q0 -118 -65 -179t-191 -61q-117 0 -206 49l20 95q92 -48 183 -48q135 0 135 134v100q-23 -41 -67 -66.5t-99 -25.5q-66 0 -117.5 31.5t-80 89t-28.5 131.5t28.5 131.5t80 89t117.5 31.5q56 0 99.5 -23.5t66.5 -65.5v76h124zM396.5 153q35.5 41 35.5 113
t-35 113t-98 41q-62 0 -97.5 -41t-35.5 -113t35.5 -113t97.5 -41t97.5 41zM157 631v82h311v-82h-311z" />
    <glyph glyph-name="uni1E24" unicode="&#x1e24;" horiz-adv-x="774" 
d="M569 712h128v-712h-128v309h-365v-309h-127v712h127v-298h365v298zM326 -78h121v-117h-121v117z" />
    <glyph glyph-name="uni1E25" unicode="&#x1e25;" horiz-adv-x="603" 
d="M538 310v-310h-125v304q0 60 -23 87.5t-71 27.5q-57 0 -92 -36.5t-35 -96.5v-286h-124v736h124v-304q26 41 69 63.5t96 22.5q181 0 181 -208zM241 -78h121v-117h-121v117z" />
    <glyph glyph-name="uni1E2A" unicode="&#x1e2a;" horiz-adv-x="774" 
d="M569 712h128v-712h-128v309h-365v-309h-127v712h127v-298h365v298zM275.5 -188q-49.5 35 -68.5 104l63 26q44 -83 117 -83q72 0 116 83l63 -26q-19 -69 -68 -104t-111 -35t-111.5 35z" />
    <glyph glyph-name="uni1E2B" unicode="&#x1e2b;" horiz-adv-x="603" 
d="M538 310v-310h-125v304q0 60 -23 87.5t-71 27.5q-57 0 -92 -36.5t-35 -96.5v-286h-124v736h124v-304q26 41 69 63.5t96 22.5q181 0 181 -208zM190.5 -188q-49.5 35 -68.5 104l63 26q44 -83 117 -83q72 0 116 83l63 -26q-19 -69 -68 -104t-111 -35t-111.5 35z" />
    <glyph glyph-name="uni1E2E" unicode="&#x1e2e;" horiz-adv-x="283" 
d="M77 0v712h129v-712h-129zM-12 909h120v-115h-120v115zM173 909h120v-115h-120v115zM181 935h-81l103 155h121z" />
    <glyph glyph-name="uni1E2F" unicode="&#x1e2f;" horiz-adv-x="261" 
d="M68 0v505h124v-505h-124zM-23 730h120v-115h-120v115zM162 730h120v-115h-120v115zM170 764h-81l100 206h128z" />
    <glyph glyph-name="uni1E36" unicode="&#x1e36;" horiz-adv-x="560" 
d="M77 0v712h129v-606h333v-106h-462zM253 -78h121v-117h-121v117z" />
    <glyph glyph-name="uni1E37" unicode="&#x1e37;" horiz-adv-x="261" 
d="M68 0v736h124v-736h-124zM69 -78h121v-117h-121v117z" />
    <glyph glyph-name="uni1E3A" unicode="&#x1e3a;" horiz-adv-x="560" 
d="M77 0v712h129v-606h333v-106h-462zM158 -176v78h311v-78h-311z" />
    <glyph glyph-name="uni1E3B" unicode="&#x1e3b;" horiz-adv-x="261" 
d="M68 0v736h124v-736h-124zM-26 -176v78h311v-78h-311z" />
    <glyph glyph-name="uni1E42" unicode="&#x1e42;" horiz-adv-x="850" 
d="M669 712h102v-712h-114v442l-189 -442h-85l-190 437v-437h-114v712h102l245 -557zM364 -78h121v-117h-121v117z" />
    <glyph glyph-name="uni1E43" unicode="&#x1e43;" horiz-adv-x="899" 
d="M792 466.5q42 -51.5 42 -156.5v-310h-125v306q0 60 -19.5 86.5t-64.5 26.5q-52 0 -81.5 -36.5t-29.5 -100.5v-282h-125v306q0 59 -20.5 86t-64.5 27q-52 0 -82 -36.5t-30 -100.5v-282h-124v362q0 80 -8 143h117l9 -80q22 45 63.5 69t95.5 24q116 0 151 -96
q24 45 68.5 70.5t99.5 25.5q86 0 128 -51.5zM391 -78h121v-117h-121v117z" />
    <glyph glyph-name="uni1E44" unicode="&#x1e44;" horiz-adv-x="755" 
d="M556 712h121v-712h-96l-384 499v-499h-120v712h96l383 -498v498zM307 913h139v-123h-139v123z" />
    <glyph glyph-name="uni1E45" unicode="&#x1e45;" horiz-adv-x="603" 
d="M538 310v-310h-125v304q0 60 -23 87.5t-71 27.5q-57 0 -92 -36.5t-35 -96.5v-286h-124v362q0 80 -8 143h117l9 -83q26 46 70.5 71t100.5 25q181 0 181 -208zM232 734h139v-123h-139v123z" />
    <glyph glyph-name="uni1E46" unicode="&#x1e46;" horiz-adv-x="755" 
d="M556 712h121v-712h-96l-384 499v-499h-120v712h96l383 -498v498zM317 -78h121v-117h-121v117z" />
    <glyph glyph-name="uni1E47" unicode="&#x1e47;" horiz-adv-x="603" 
d="M538 310v-310h-125v304q0 60 -23 87.5t-71 27.5q-57 0 -92 -36.5t-35 -96.5v-286h-124v362q0 80 -8 143h117l9 -83q26 46 70.5 71t100.5 25q181 0 181 -208zM241 -78h121v-117h-121v117z" />
    <glyph glyph-name="uni1E48" unicode="&#x1e48;" horiz-adv-x="755" 
d="M556 712h121v-712h-96l-384 499v-499h-120v712h96l383 -498v498zM222 -176v78h311v-78h-311z" />
    <glyph glyph-name="uni1E49" unicode="&#x1e49;" horiz-adv-x="603" 
d="M538 310v-310h-125v304q0 60 -23 87.5t-71 27.5q-57 0 -92 -36.5t-35 -96.5v-286h-124v362q0 80 -8 143h117l9 -83q26 46 70.5 71t100.5 25q181 0 181 -208zM146 -176v78h311v-78h-311z" />
    <glyph glyph-name="uni1E4C" unicode="&#x1e4c;" horiz-adv-x="786" 
d="M213.5 35.5q-76.5 44.5 -118 127t-41.5 194.5q0 111 41 193.5t117.5 126.5t180.5 44t180.5 -44t117 -126.5t40.5 -193.5q0 -112 -41 -194.5t-117 -127t-180 -44.5q-103 0 -179.5 44.5zM547 162q55 68 55 195q0 126 -55 193.5t-154 67.5t-154 -67t-55 -194t55 -195
t154 -68t154 68zM250 886q28 34 74 34q19 0 35.5 -7t44.5 -23q37 -24 57 -24t31.5 14t13.5 37h57q0 -66 -28 -100t-74 -34q-19 0 -35.5 7t-44.5 23q-37 24 -57 24t-31.5 -14t-13.5 -37h-57q0 66 28 100zM433 935h-81l103 155h121z" />
    <glyph glyph-name="uni1E4D" unicode="&#x1e4d;" horiz-adv-x="592" 
d="M161.5 24q-58.5 32 -90 91.5t-31.5 139.5t31.5 139.5t90 91.5t135.5 32q76 0 134 -32t89.5 -91.5t31.5 -139.5t-31.5 -139.5t-89.5 -91.5t-134 -32q-77 0 -135.5 32zM393.5 131.5q33.5 41.5 33.5 123.5q0 81 -34 123.5t-96 42.5q-63 0 -97 -42.5t-34 -123.5
q0 -82 33.5 -123.5t96.5 -41.5q64 0 97.5 41.5zM154 708.5q28 34.5 74 34.5q19 0 36.5 -7.5t43.5 -23.5q20 -12 33 -18t24 -6q20 0 31.5 14.5t13.5 37.5h57q0 -66 -28 -100.5t-74 -34.5q-19 0 -35.5 7t-44.5 23q-37 24 -57 24t-31.5 -14t-13.5 -37h-57q0 66 28 100.5z
M337 764h-81l100 206h128z" />
    <glyph glyph-name="uni1E4E" unicode="&#x1e4e;" horiz-adv-x="786" 
d="M213.5 35.5q-76.5 44.5 -118 127t-41.5 194.5q0 111 41 193.5t117.5 126.5t180.5 44t180.5 -44t117 -126.5t40.5 -193.5q0 -112 -41 -194.5t-117 -127t-180 -44.5q-103 0 -179.5 44.5zM547 162q55 68 55 195q0 126 -55 193.5t-154 67.5t-154 -67t-55 -194t55 -195
t154 -68t154 68zM250 886q28 34 74 34q19 0 35.5 -7t44.5 -23q37 -24 57 -24t31.5 14t13.5 37h57q0 -66 -28 -100t-74 -34q-19 0 -35.5 7t-44.5 23q-37 24 -57 24t-31.5 -14t-13.5 -37h-57q0 66 28 100zM240 1071h120v-115h-120v115zM425 1071h120v-115h-120v115z" />
    <glyph glyph-name="uni1E4F" unicode="&#x1e4f;" horiz-adv-x="592" 
d="M161.5 24q-58.5 32 -90 91.5t-31.5 139.5t31.5 139.5t90 91.5t135.5 32q76 0 134 -32t89.5 -91.5t31.5 -139.5t-31.5 -139.5t-89.5 -91.5t-134 -32q-77 0 -135.5 32zM393.5 131.5q33.5 41.5 33.5 123.5q0 81 -34 123.5t-96 42.5q-63 0 -97 -42.5t-34 -123.5
q0 -82 33.5 -123.5t96.5 -41.5q64 0 97.5 41.5zM154 708.5q28 34.5 74 34.5q19 0 36.5 -7.5t43.5 -23.5q20 -12 33 -18t24 -6q20 0 31.5 14.5t13.5 37.5h57q0 -66 -28 -100.5t-74 -34.5q-19 0 -35.5 7t-44.5 23q-37 24 -57 24t-31.5 -14t-13.5 -37h-57q0 66 28 100.5z
M144 924h120v-115h-120v115zM329 924h120v-115h-120v115z" />
    <glyph glyph-name="uni1E50" unicode="&#x1e50;" horiz-adv-x="786" 
d="M213.5 35.5q-76.5 44.5 -118 127t-41.5 194.5q0 111 41 193.5t117.5 126.5t180.5 44t180.5 -44t117 -126.5t40.5 -193.5q0 -112 -41 -194.5t-117 -127t-180 -44.5q-103 0 -179.5 44.5zM547 162q55 68 55 195q0 126 -55 193.5t-154 67.5t-154 -67t-55 -194t55 -195
t154 -68t154 68zM237 810v82h311v-82h-311zM352 935l-143 155h121l103 -155h-81z" />
    <glyph glyph-name="uni1E51" unicode="&#x1e51;" horiz-adv-x="592" 
d="M161.5 24q-58.5 32 -90 91.5t-31.5 139.5t31.5 139.5t90 91.5t135.5 32q76 0 134 -32t89.5 -91.5t31.5 -139.5t-31.5 -139.5t-89.5 -91.5t-134 -32q-77 0 -135.5 32zM393.5 131.5q33.5 41.5 33.5 123.5q0 81 -34 123.5t-96 42.5q-63 0 -97 -42.5t-34 -123.5
q0 -82 33.5 -123.5t96.5 -41.5q64 0 97.5 41.5zM141 631v82h311v-82h-311zM256 764l-147 206h128l100 -206h-81z" />
    <glyph glyph-name="uni1E52" unicode="&#x1e52;" horiz-adv-x="786" 
d="M213.5 35.5q-76.5 44.5 -118 127t-41.5 194.5q0 111 41 193.5t117.5 126.5t180.5 44t180.5 -44t117 -126.5t40.5 -193.5q0 -112 -41 -194.5t-117 -127t-180 -44.5q-103 0 -179.5 44.5zM547 162q55 68 55 195q0 126 -55 193.5t-154 67.5t-154 -67t-55 -194t55 -195
t154 -68t154 68zM237 810v82h311v-82h-311zM433 935h-81l103 155h121z" />
    <glyph glyph-name="uni1E53" unicode="&#x1e53;" horiz-adv-x="592" 
d="M161.5 24q-58.5 32 -90 91.5t-31.5 139.5t31.5 139.5t90 91.5t135.5 32q76 0 134 -32t89.5 -91.5t31.5 -139.5t-31.5 -139.5t-89.5 -91.5t-134 -32q-77 0 -135.5 32zM393.5 131.5q33.5 41.5 33.5 123.5q0 81 -34 123.5t-96 42.5q-63 0 -97 -42.5t-34 -123.5
q0 -82 33.5 -123.5t96.5 -41.5q64 0 97.5 41.5zM141 631v82h311v-82h-311zM337 764h-81l100 206h128z" />
    <glyph glyph-name="uni1E5A" unicode="&#x1e5a;" horiz-adv-x="702" 
d="M663 0h-136l-91 237q-12 33 -37 46t-65 13h-129v-296h-128v712h305q121 0 184 -53t63 -152q0 -71 -37.5 -120.5t-106.5 -70.5q63 -13 91 -88zM364 396q73 0 108 27t35 82q0 54 -34.5 80.5t-108.5 26.5h-161v-216h161zM291 -78h121v-117h-121v117z" />
    <glyph glyph-name="uni1E5B" unicode="&#x1e5b;" horiz-adv-x="392" 
d="M390 509l-1 -114q-32 13 -66 13q-64 0 -97.5 -37t-33.5 -98v-273h-124v362q0 80 -8 143h117l10 -89q19 49 60 75t93 26q29 0 50 -8zM69 -78h121v-117h-121v117z" />
    <glyph glyph-name="uni1E5E" unicode="&#x1e5e;" horiz-adv-x="702" 
d="M663 0h-136l-91 237q-12 33 -37 46t-65 13h-129v-296h-128v712h305q121 0 184 -53t63 -152q0 -71 -37.5 -120.5t-106.5 -70.5q63 -13 91 -88zM364 396q73 0 108 27t35 82q0 54 -34.5 80.5t-108.5 26.5h-161v-216h161zM196 -176v78h311v-78h-311z" />
    <glyph glyph-name="uni1E5F" unicode="&#x1e5f;" horiz-adv-x="392" 
d="M390 509l-1 -114q-32 13 -66 13q-64 0 -97.5 -37t-33.5 -98v-273h-124v362q0 80 -8 143h117l10 -89q19 49 60 75t93 26q29 0 50 -8zM-26 -176v78h311v-78h-311z" />
    <glyph glyph-name="uni1E60" unicode="&#x1e60;" horiz-adv-x="644" 
d="M164.5 13q-71.5 22 -121.5 63l44 94q52 -39 108.5 -57.5t123.5 -18.5q74 0 114.5 26t40.5 73q0 40 -37.5 61.5t-123.5 40.5q-134 29 -195 75t-61 134q0 63 34 112t96.5 77t144.5 28q75 0 142.5 -22.5t110.5 -62.5l-43 -94q-95 76 -210 76q-69 0 -109 -28.5t-40 -77.5
q0 -42 35.5 -64t121.5 -41q89 -21 145 -45.5t86 -63t30 -96.5q0 -64 -34 -111.5t-98 -73.5t-151 -26q-82 0 -153.5 22zM254 913h139v-123h-139v123z" />
    <glyph glyph-name="uni1E61" unicode="&#x1e61;" horiz-adv-x="501" 
d="M35 56l35 88q81 -60 185 -60q45 0 69.5 15t24.5 42q0 23 -17 36.5t-58 23.5l-84 19q-138 30 -138 141q0 46 26 81.5t73 55.5t109 20q54 0 104 -16.5t88 -47.5l-37 -85q-76 56 -156 56q-43 0 -67 -16t-24 -44q0 -22 14.5 -35t49.5 -22l86 -19q75 -17 109.5 -52.5
t34.5 -92.5q0 -70 -56 -111t-153 -41q-137 0 -218 64zM189 734h139v-123h-139v123z" />
    <glyph glyph-name="uni1E62" unicode="&#x1e62;" horiz-adv-x="644" 
d="M164.5 13q-71.5 22 -121.5 63l44 94q52 -39 108.5 -57.5t123.5 -18.5q74 0 114.5 26t40.5 73q0 40 -37.5 61.5t-123.5 40.5q-134 29 -195 75t-61 134q0 63 34 112t96.5 77t144.5 28q75 0 142.5 -22.5t110.5 -62.5l-43 -94q-95 76 -210 76q-69 0 -109 -28.5t-40 -77.5
q0 -42 35.5 -64t121.5 -41q89 -21 145 -45.5t86 -63t30 -96.5q0 -64 -34 -111.5t-98 -73.5t-151 -26q-82 0 -153.5 22zM261 -78h121v-117h-121v117z" />
    <glyph glyph-name="uni1E63" unicode="&#x1e63;" horiz-adv-x="501" 
d="M35 56l35 88q81 -60 185 -60q45 0 69.5 15t24.5 42q0 23 -17 36.5t-58 23.5l-84 19q-138 30 -138 141q0 46 26 81.5t73 55.5t109 20q54 0 104 -16.5t88 -47.5l-37 -85q-76 56 -156 56q-43 0 -67 -16t-24 -44q0 -22 14.5 -35t49.5 -22l86 -19q75 -17 109.5 -52.5
t34.5 -92.5q0 -70 -56 -111t-153 -41q-137 0 -218 64zM189 -78h121v-117h-121v117z" />
    <glyph glyph-name="uni1E64" unicode="&#x1e64;" horiz-adv-x="644" 
d="M164.5 13q-71.5 22 -121.5 63l44 94q52 -39 108.5 -57.5t123.5 -18.5q74 0 114.5 26t40.5 73q0 40 -37.5 61.5t-123.5 40.5q-134 29 -195 75t-61 134q0 63 34 112t96.5 77t144.5 28q75 0 142.5 -22.5t110.5 -62.5l-43 -94q-95 76 -210 76q-69 0 -109 -28.5t-40 -77.5
q0 -42 35.5 -64t121.5 -41q89 -21 145 -45.5t86 -63t30 -96.5q0 -64 -34 -111.5t-98 -73.5t-151 -26q-82 0 -153.5 22zM384 773h-81l103 155h121zM135 928h139v-123h-139v123z" />
    <glyph glyph-name="uni1E65" unicode="&#x1e65;" horiz-adv-x="501" 
d="M35 56l35 88q81 -60 185 -60q45 0 69.5 15t24.5 42q0 23 -17 36.5t-58 23.5l-84 19q-138 30 -138 141q0 46 26 81.5t73 55.5t109 20q54 0 104 -16.5t88 -47.5l-37 -85q-76 56 -156 56q-43 0 -67 -16t-24 -44q0 -22 14.5 -35t49.5 -22l86 -19q75 -17 109.5 -52.5
t34.5 -92.5q0 -70 -56 -111t-153 -41q-137 0 -218 64zM309 562h-81l100 206h128zM84 765h139v-123h-139v123z" />
    <glyph glyph-name="uni1E66" unicode="&#x1e66;" horiz-adv-x="644" 
d="M164.5 13q-71.5 22 -121.5 63l44 94q52 -39 108.5 -57.5t123.5 -18.5q74 0 114.5 26t40.5 73q0 40 -37.5 61.5t-123.5 40.5q-134 29 -195 75t-61 134q0 63 34 112t96.5 77t144.5 28q75 0 142.5 -22.5t110.5 -62.5l-43 -94q-95 76 -210 76q-69 0 -109 -28.5t-40 -77.5
q0 -42 35.5 -64t121.5 -41q89 -21 145 -45.5t86 -63t30 -96.5q0 -64 -34 -111.5t-98 -73.5t-151 -26q-82 0 -153.5 22zM390 928h99l-128 -155h-75l-128 155h99l67 -93zM254 1075h139v-123h-139v123z" />
    <glyph glyph-name="uni1E67" unicode="&#x1e67;" horiz-adv-x="501" 
d="M35 56l35 88q81 -60 185 -60q45 0 69.5 15t24.5 42q0 23 -17 36.5t-58 23.5l-84 19q-138 30 -138 141q0 46 26 81.5t73 55.5t109 20q54 0 104 -16.5t88 -47.5l-37 -85q-76 56 -156 56q-43 0 -67 -16t-24 -44q0 -22 14.5 -35t49.5 -22l86 -19q75 -17 109.5 -52.5
t34.5 -92.5q0 -70 -56 -111t-153 -41q-137 0 -218 64zM322 776h102l-126 -206h-79l-126 206h102l64 -128zM189 928h139v-123h-139v123z" />
    <glyph glyph-name="uni1E68" unicode="&#x1e68;" horiz-adv-x="644" 
d="M164.5 13q-71.5 22 -121.5 63l44 94q52 -39 108.5 -57.5t123.5 -18.5q74 0 114.5 26t40.5 73q0 40 -37.5 61.5t-123.5 40.5q-134 29 -195 75t-61 134q0 63 34 112t96.5 77t144.5 28q75 0 142.5 -22.5t110.5 -62.5l-43 -94q-95 76 -210 76q-69 0 -109 -28.5t-40 -77.5
q0 -42 35.5 -64t121.5 -41q89 -21 145 -45.5t86 -63t30 -96.5q0 -64 -34 -111.5t-98 -73.5t-151 -26q-82 0 -153.5 22zM261 -78h121v-117h-121v117zM254 913h139v-123h-139v123z" />
    <glyph glyph-name="uni1E69" unicode="&#x1e69;" horiz-adv-x="501" 
d="M35 56l35 88q81 -60 185 -60q45 0 69.5 15t24.5 42q0 23 -17 36.5t-58 23.5l-84 19q-138 30 -138 141q0 46 26 81.5t73 55.5t109 20q54 0 104 -16.5t88 -47.5l-37 -85q-76 56 -156 56q-43 0 -67 -16t-24 -44q0 -22 14.5 -35t49.5 -22l86 -19q75 -17 109.5 -52.5
t34.5 -92.5q0 -70 -56 -111t-153 -41q-137 0 -218 64zM189 -78h121v-117h-121v117zM189 734h139v-123h-139v123z" />
    <glyph glyph-name="uni1E6C" unicode="&#x1e6c;" horiz-adv-x="619" 
d="M244 0v606h-232v106h595v-106h-233v-606h-130zM248 -78h121v-117h-121v117z" />
    <glyph glyph-name="uni1E6D" unicode="&#x1e6d;" horiz-adv-x="379" 
d="M227 411v-226q0 -89 83 -89q23 0 50 8v-99q-33 -12 -80 -12q-86 0 -132 48t-46 138v232h-97v94h97v123l125 42v-165h134v-94h-134zM180 -78h121v-117h-121v117z" />
    <glyph glyph-name="uni1E6E" unicode="&#x1e6e;" horiz-adv-x="619" 
d="M244 0v606h-232v106h595v-106h-233v-606h-130zM153 -176v78h311v-78h-311z" />
    <glyph glyph-name="uni1E6F" unicode="&#x1e6f;" horiz-adv-x="379" 
d="M227 411v-226q0 -89 83 -89q23 0 50 8v-99q-33 -12 -80 -12q-86 0 -132 48t-46 138v232h-97v94h97v123l125 42v-165h134v-94h-134zM85 -176v78h311v-78h-311z" />
    <glyph glyph-name="uni1E78" unicode="&#x1e78;" horiz-adv-x="740" 
d="M148.5 66.5q-75.5 75.5 -75.5 221.5v424h127v-431q0 -92 43 -139.5t128 -47.5q83 0 126.5 48t43.5 139v431h127v-424q0 -145 -76 -221t-221 -76q-147 0 -222.5 75.5zM228 886q28 34 74 34q19 0 35.5 -7t44.5 -23q37 -24 57 -24t31.5 14t13.5 37h57q0 -66 -28 -100
t-74 -34q-19 0 -35.5 7t-44.5 23q-37 24 -57 24t-31.5 -14t-13.5 -37h-57q0 66 28 100zM411 935h-81l103 155h121z" />
    <glyph glyph-name="uni1E79" unicode="&#x1e79;" horiz-adv-x="596" 
d="M528 505v-505h-122v78q-24 -42 -64 -64t-92 -22q-185 0 -185 208v305h124v-306q0 -55 22.5 -81t69.5 -26q55 0 88 36t33 96v281h126zM154 708.5q28 34.5 74 34.5q19 0 36.5 -7.5t43.5 -23.5q20 -12 33 -18t24 -6q20 0 31.5 14.5t13.5 37.5h57q0 -66 -28 -100.5t-74 -34.5
q-19 0 -35.5 7t-44.5 23q-37 24 -57 24t-31.5 -14t-13.5 -37h-57q0 66 28 100.5zM337 764h-81l100 206h128z" />
    <glyph glyph-name="uni1E7A" unicode="&#x1e7a;" horiz-adv-x="740" 
d="M148.5 66.5q-75.5 75.5 -75.5 221.5v424h127v-431q0 -92 43 -139.5t128 -47.5q83 0 126.5 48t43.5 139v431h127v-424q0 -145 -76 -221t-221 -76q-147 0 -222.5 75.5zM215 810v82h311v-82h-311zM218 1071h120v-115h-120v115zM403 1071h120v-115h-120v115z" />
    <glyph glyph-name="uni1E7B" unicode="&#x1e7b;" horiz-adv-x="596" 
d="M528 505v-505h-122v78q-24 -42 -64 -64t-92 -22q-185 0 -185 208v305h124v-306q0 -55 22.5 -81t69.5 -26q55 0 88 36t33 96v281h126zM141 631v82h311v-82h-311zM144 924h120v-115h-120v115zM329 924h120v-115h-120v115z" />
    <glyph glyph-name="Wgrave" unicode="&#x1e80;" horiz-adv-x="1120" 
d="M973 712h124l-252 -712h-105l-179 512l-181 -512h-105l-251 712h131l178 -531l185 531h92l181 -535zM519 773l-143 155h121l103 -155h-81z" />
    <glyph glyph-name="wgrave" unicode="&#x1e81;" horiz-adv-x="883" 
d="M750 505h122l-198 -505h-109l-125 331l-122 -331h-110l-198 505h128l130 -356l131 356h90l131 -359zM400 570l-147 206h128l100 -206h-81z" />
    <glyph glyph-name="Wacute" unicode="&#x1e82;" horiz-adv-x="1120" 
d="M973 712h124l-252 -712h-105l-179 512l-181 -512h-105l-251 712h131l178 -531l185 531h92l181 -535zM600 773h-81l103 155h121z" />
    <glyph glyph-name="wacute" unicode="&#x1e83;" horiz-adv-x="883" 
d="M750 505h122l-198 -505h-109l-125 331l-122 -331h-110l-198 505h128l130 -356l131 356h90l131 -359zM481 570h-81l100 206h128z" />
    <glyph glyph-name="Wdieresis" unicode="&#x1e84;" horiz-adv-x="1120" 
d="M973 712h124l-252 -712h-105l-179 512l-181 -512h-105l-251 712h131l178 -531l185 531h92l181 -535zM407 909h120v-115h-120v115zM592 909h120v-115h-120v115z" />
    <glyph glyph-name="wdieresis" unicode="&#x1e85;" horiz-adv-x="883" 
d="M750 505h122l-198 -505h-109l-125 331l-122 -331h-110l-198 505h128l130 -356l131 356h90l131 -359zM288 730h120v-115h-120v115zM473 730h120v-115h-120v115z" />
    <glyph glyph-name="uni1E8E" unicode="&#x1e8e;" horiz-adv-x="629" 
d="M668 712l-289 -430v-282h-129v282l-289 430h147l206 -322l207 322h147zM244 913h139v-123h-139v123z" />
    <glyph glyph-name="uni1E8F" unicode="&#x1e8f;" horiz-adv-x="543" 
d="M546 505l-235 -539q-40 -94 -102 -137t-153 -57l-28 96q71 16 106.5 40.5t57.5 72.5l16 37l-210 487h131l145 -363l148 363h124zM202 734h139v-123h-139v123z" />
    <glyph glyph-name="uni1E92" unicode="&#x1e92;" horiz-adv-x="608" 
d="M193 103h379v-103h-523v94l366 515h-366v103h512v-93zM243 -78h121v-117h-121v117z" />
    <glyph glyph-name="uni1E93" unicode="&#x1e93;" horiz-adv-x="526" 
d="M197 95h291v-95h-439v87l279 324h-273v94h422v-85zM200 -78h121v-117h-121v117z" />
    <glyph glyph-name="uni1E97" unicode="&#x1e97;" horiz-adv-x="379" 
d="M227 411v-226q0 -89 83 -89q23 0 50 8v-99q-33 -12 -80 -12q-86 0 -132 48t-46 138v232h-97v94h97v123l125 42v-165h134v-94h-134zM12 853h120v-115h-120v115zM197 853h120v-115h-120v115z" />
    <glyph glyph-name="uni1E9E" unicode="&#x1e9e;" horiz-adv-x="709" 
d="M624 311.5q39 -45.5 39 -114.5q0 -58 -28.5 -104.5t-79.5 -72.5t-115 -26q-112 0 -188 60l36 93q80 -55 144 -55q50 1 79 30t29 80q0 56 -35.5 81.5t-112.5 25.5h-111v103h88q58 0 89.5 26t31.5 75t-34 76.5t-93 27.5q-79 0 -119 -41.5t-40 -123.5v-452h-127v452
q0 129 74.5 198t214.5 69q113 0 179.5 -53t66.5 -143q0 -52 -25.5 -92t-72.5 -60q71 -14 110 -59.5z" />
    <glyph glyph-name="uni1EA0" unicode="&#x1ea0;" horiz-adv-x="750" 
d="M621 0l-71 167h-348l-72 -167h-130l322 712h105l323 -712h-129zM245 267h262l-131 305zM314 -78h121v-117h-121v117z" />
    <glyph glyph-name="uni1EA1" unicode="&#x1ea1;" horiz-adv-x="619" 
d="M551 505v-505h-123v81q-23 -42 -66 -65.5t-98 -23.5q-66 0 -117 32t-79 91t-28 137t28.5 138.5t79.5 94t116 33.5q55 0 98 -23.5t66 -65.5v76h123zM394 133q34 43 34 121q0 80 -34 123t-97 43q-62 0 -96.5 -44.5t-34.5 -123.5q0 -78 34.5 -120t97.5 -42q62 0 96 43z
M248 -78h121v-117h-121v117z" />
    <glyph glyph-name="uni1EA2" unicode="&#x1ea2;" horiz-adv-x="750" 
d="M621 0l-71 167h-348l-72 -167h-130l322 712h105l323 -712h-129zM245 267h262l-131 305zM408 773h-67v20q0 18 11.5 27.5t31.5 19.5q13 6 18.5 10t5.5 9q0 18 -37 18q-26 0 -58 -11l-18 49q42 17 91 17q47 0 75.5 -18t28.5 -46q0 -20 -12.5 -31t-35.5 -21q-18 -9 -26 -15
t-8 -16v-12z" />
    <glyph glyph-name="uni1EA3" unicode="&#x1ea3;" horiz-adv-x="619" 
d="M551 505v-505h-123v81q-23 -42 -66 -65.5t-98 -23.5q-66 0 -117 32t-79 91t-28 137t28.5 138.5t79.5 94t116 33.5q55 0 98 -23.5t66 -65.5v76h123zM394 133q34 43 34 121q0 80 -34 123t-97 43q-62 0 -96.5 -44.5t-34.5 -123.5q0 -78 34.5 -120t97.5 -42q62 0 96 43z
M344 570h-68v27q0 20 10 34t28 30q12 10 18 17.5t6 15.5q0 24 -37 24q-27 0 -54 -10l-18 52q41 19 84 19q52 0 81.5 -21t29.5 -52q0 -23 -11 -37.5t-34 -32.5q-17 -13 -26 -23t-9 -23v-20z" />
    <glyph glyph-name="uni1EA4" unicode="&#x1ea4;" horiz-adv-x="750" 
d="M621 0l-71 167h-348l-72 -167h-130l322 712h105l323 -712h-129zM245 267h262l-131 305zM531 879h-65l80 142h110zM307 773h-98l128 143h75l128 -143h-98l-67 82z" />
    <glyph glyph-name="uni1EA5" unicode="&#x1ea5;" horiz-adv-x="619" 
d="M551 505v-505h-123v81q-23 -42 -66 -65.5t-98 -23.5q-66 0 -117 32t-79 91t-28 137t28.5 138.5t79.5 94t116 33.5q55 0 98 -23.5t66 -65.5v76h123zM394 133q34 43 34 121q0 80 -34 123t-97 43q-62 0 -96.5 -44.5t-34.5 -123.5q0 -78 34.5 -120t97.5 -42q62 0 96 43z
M465 677h-65l80 142h110zM241 570h-98l128 143h75l128 -143h-98l-67 82z" />
    <glyph glyph-name="uni1EA6" unicode="&#x1ea6;" horiz-adv-x="750" 
d="M621 0l-71 167h-348l-72 -167h-130l322 712h105l323 -712h-129zM245 267h262l-131 305zM509 879l-119 142h110l74 -142h-65zM307 773h-98l128 143h75l128 -143h-98l-67 82z" />
    <glyph glyph-name="uni1EA7" unicode="&#x1ea7;" horiz-adv-x="619" 
d="M551 505v-505h-123v81q-23 -42 -66 -65.5t-98 -23.5q-66 0 -117 32t-79 91t-28 137t28.5 138.5t79.5 94t116 33.5q55 0 98 -23.5t66 -65.5v76h123zM394 133q34 43 34 121q0 80 -34 123t-97 43q-62 0 -96.5 -44.5t-34.5 -123.5q0 -78 34.5 -120t97.5 -42q62 0 96 43z
M443 677l-119 142h110l74 -142h-65zM241 570h-98l128 143h75l128 -143h-98l-67 82z" />
    <glyph glyph-name="uni1EA8" unicode="&#x1ea8;" horiz-adv-x="750" 
d="M621 0l-71 167h-348l-72 -167h-130l322 712h105l323 -712h-129zM245 267h262l-131 305zM532 880h-67v19q0 18 12.5 27.5t33.5 17.5q8 3 14.5 6t6.5 7q0 7 -9 11.5t-27 4.5q-27 0 -60 -11l-18 47q41 18 91 18q48 0 76.5 -17t28.5 -44q0 -19 -12 -29t-35 -19
q-18 -8 -26.5 -14t-8.5 -16v-8zM307 773h-98l128 143h75l128 -143h-98l-67 82z" />
    <glyph glyph-name="uni1EA9" unicode="&#x1ea9;" horiz-adv-x="619" 
d="M551 505v-505h-123v81q-23 -42 -66 -65.5t-98 -23.5q-66 0 -117 32t-79 91t-28 137t28.5 138.5t79.5 94t116 33.5q55 0 98 -23.5t66 -65.5v76h123zM394 133q34 43 34 121q0 80 -34 123t-97 43q-62 0 -96.5 -44.5t-34.5 -123.5q0 -78 34.5 -120t97.5 -42q62 0 96 43z
M466 677h-67v19q0 18 12 27t34 18q21 7 21 14t-9 11.5t-27 4.5q-24 0 -60 -12l-18 48q45 18 91 18q48 0 76.5 -17.5t28.5 -45.5q0 -19 -12 -28.5t-35 -18.5q-17 -6 -26 -12.5t-9 -16.5v-9zM241 570h-98l128 143h75l128 -143h-98l-67 82z" />
    <glyph glyph-name="uni1EAA" unicode="&#x1eaa;" horiz-adv-x="750" 
d="M621 0l-71 167h-348l-72 -167h-130l322 712h105l323 -712h-129zM245 267h262l-131 305zM233 1006.5q29 29.5 73 29.5q19 0 36 -5t44 -16q40 -16 57 -16q20 0 31.5 9.5t13.5 26.5h57q0 -44 -29.5 -74t-72.5 -30q-19 0 -36 5t-44 16q-38 17 -57 17q-20 0 -31.5 -10
t-13.5 -27h-57q0 45 29 74.5zM307 773h-98l128 143h75l128 -143h-98l-67 82z" />
    <glyph glyph-name="uni1EAB" unicode="&#x1eab;" horiz-adv-x="619" 
d="M551 505v-505h-123v81q-23 -42 -66 -65.5t-98 -23.5q-66 0 -117 32t-79 91t-28 137t28.5 138.5t79.5 94t116 33.5q55 0 98 -23.5t66 -65.5v76h123zM394 133q34 43 34 121q0 80 -34 123t-97 43q-62 0 -96.5 -44.5t-34.5 -123.5q0 -78 34.5 -120t97.5 -42q62 0 96 43z
M167 804q29 29 73 29q19 0 36 -5t44 -16q40 -16 57 -16q20 0 31.5 10t13.5 26h57q0 -44 -29 -73.5t-73 -29.5q-19 0 -36 5t-44 16q-40 16 -57 16q-20 0 -31.5 -10t-13.5 -26h-57q0 45 29 74zM241 570h-98l128 143h75l128 -143h-98l-67 82z" />
    <glyph glyph-name="uni1EAC" unicode="&#x1eac;" horiz-adv-x="750" 
d="M621 0l-71 167h-348l-72 -167h-130l322 712h105l323 -712h-129zM245 267h262l-131 305zM314 -78h121v-117h-121v117zM308 773h-99l128 155h75l128 -155h-99l-66 92z" />
    <glyph glyph-name="uni1EAD" unicode="&#x1ead;" horiz-adv-x="619" 
d="M551 505v-505h-123v81q-23 -42 -66 -65.5t-98 -23.5q-66 0 -117 32t-79 91t-28 137t28.5 138.5t79.5 94t116 33.5q55 0 98 -23.5t66 -65.5v76h123zM394 133q34 43 34 121q0 80 -34 123t-97 43q-62 0 -96.5 -44.5t-34.5 -123.5q0 -78 34.5 -120t97.5 -42q62 0 96 43z
M248 -78h121v-117h-121v117zM245 570h-102l126 206h79l126 -206h-102l-63 128z" />
    <glyph glyph-name="uni1EAE" unicode="&#x1eae;" horiz-adv-x="750" 
d="M621 0l-71 167h-348l-72 -167h-130l322 712h105l323 -712h-129zM245 267h262l-131 305zM412 879h-75l100 142h115zM267 795q-46 27 -66 82l51 22q19 -32 51.5 -47.5t71.5 -15.5q38 0 70.5 15.5t51.5 47.5l51 -22q-20 -54 -65.5 -81.5t-107.5 -27.5t-108 27z" />
    <glyph glyph-name="uni1EAF" unicode="&#x1eaf;" horiz-adv-x="619" 
d="M551 505v-505h-123v81q-23 -42 -66 -65.5t-98 -23.5q-66 0 -117 32t-79 91t-28 137t28.5 138.5t79.5 94t116 33.5q55 0 98 -23.5t66 -65.5v76h123zM394 133q34 43 34 121q0 80 -34 123t-97 43q-62 0 -96.5 -44.5t-34.5 -123.5q0 -78 34.5 -120t97.5 -42q62 0 96 43z
M346 677h-75l100 142h115zM201 592q-46 27 -66 82l51 22q19 -32 51.5 -47t71.5 -15q38 0 70.5 15t51.5 47l51 -22q-20 -54 -65.5 -81.5t-107.5 -27.5t-108 27z" />
    <glyph glyph-name="uni1EB0" unicode="&#x1eb0;" horiz-adv-x="750" 
d="M621 0l-71 167h-348l-72 -167h-130l322 712h105l323 -712h-129zM245 267h262l-131 305zM337 879l-140 142h115l100 -142h-75zM267 795q-46 27 -66 82l51 22q19 -32 51.5 -47.5t71.5 -15.5q38 0 70.5 15.5t51.5 47.5l51 -22q-20 -54 -65.5 -81.5t-107.5 -27.5t-108 27z
" />
    <glyph glyph-name="uni1EB1" unicode="&#x1eb1;" horiz-adv-x="619" 
d="M551 505v-505h-123v81q-23 -42 -66 -65.5t-98 -23.5q-66 0 -117 32t-79 91t-28 137t28.5 138.5t79.5 94t116 33.5q55 0 98 -23.5t66 -65.5v76h123zM394 133q34 43 34 121q0 80 -34 123t-97 43q-62 0 -96.5 -44.5t-34.5 -123.5q0 -78 34.5 -120t97.5 -42q62 0 96 43z
M271 677l-140 142h115l100 -142h-75zM201 592q-46 27 -66 82l51 22q19 -32 51.5 -47t71.5 -15q38 0 70.5 15t51.5 47l51 -22q-20 -54 -65.5 -81.5t-107.5 -27.5t-108 27z" />
    <glyph glyph-name="uni1EB2" unicode="&#x1eb2;" horiz-adv-x="750" 
d="M621 0l-71 167h-348l-72 -167h-130l322 712h105l323 -712h-129zM245 267h262l-131 305zM408 880h-67v19q0 18 12.5 27.5t33.5 17.5q8 3 14.5 6t6.5 7q0 7 -9 11.5t-28 4.5q-26 0 -58 -11l-18 47q41 18 91 18q48 0 76 -17t28 -44q0 -19 -12 -29t-35 -19q-18 -8 -26.5 -14
t-8.5 -16v-8zM267 795q-46 27 -66 82l51 22q19 -32 51.5 -47.5t71.5 -15.5q38 0 70.5 15.5t51.5 47.5l51 -22q-20 -54 -65.5 -81.5t-107.5 -27.5t-108 27z" />
    <glyph glyph-name="uni1EB3" unicode="&#x1eb3;" horiz-adv-x="619" 
d="M551 505v-505h-123v81q-23 -42 -66 -65.5t-98 -23.5q-66 0 -117 32t-79 91t-28 137t28.5 138.5t79.5 94t116 33.5q55 0 98 -23.5t66 -65.5v76h123zM394 133q34 43 34 121q0 80 -34 123t-97 43q-62 0 -96.5 -44.5t-34.5 -123.5q0 -78 34.5 -120t97.5 -42q62 0 96 43z
M342 677h-67v19q0 18 12 27t34 18q21 7 21 14t-9.5 11.5t-27.5 4.5q-23 0 -58 -12l-18 48q45 18 91 18q47 0 75.5 -17.5t28.5 -45.5q0 -19 -12 -28.5t-35 -18.5q-17 -6 -26 -12.5t-9 -16.5v-9zM201 592q-46 27 -66 82l51 22q19 -32 51.5 -47t71.5 -15q38 0 70.5 15t51.5 47
l51 -22q-20 -54 -65.5 -81.5t-107.5 -27.5t-108 27z" />
    <glyph glyph-name="uni1EB4" unicode="&#x1eb4;" horiz-adv-x="750" 
d="M621 0l-71 167h-348l-72 -167h-130l322 712h105l323 -712h-129zM245 267h262l-131 305zM233 998.5q29 29.5 73 29.5q19 0 36 -5.5t44 -17.5q15 -7 30.5 -12.5t26.5 -5.5q20 0 31.5 10t13.5 28h57q0 -46 -29 -75.5t-73 -29.5q-17 0 -33 4.5t-29.5 10t-17.5 7.5
q-36 18 -57 18q-20 0 -31.5 -10t-13.5 -27h-57q0 46 29 75.5zM267 795q-46 27 -66 82l51 22q19 -32 51.5 -47.5t71.5 -15.5q38 0 70.5 15.5t51.5 47.5l51 -22q-20 -54 -65.5 -81.5t-107.5 -27.5t-108 27z" />
    <glyph glyph-name="uni1EB5" unicode="&#x1eb5;" horiz-adv-x="619" 
d="M551 505v-505h-123v81q-23 -42 -66 -65.5t-98 -23.5q-66 0 -117 32t-79 91t-28 137t28.5 138.5t79.5 94t116 33.5q55 0 98 -23.5t66 -65.5v76h123zM394 133q34 43 34 121q0 80 -34 123t-97 43q-62 0 -96.5 -44.5t-34.5 -123.5q0 -78 34.5 -120t97.5 -42q62 0 96 43z
M167 795.5q29 29.5 73 29.5q19 0 36 -5.5t44 -17.5q15 -7 30.5 -12.5t26.5 -5.5q20 0 31.5 10t13.5 28h57q0 -46 -29 -75.5t-73 -29.5q-19 0 -36 5.5t-44 17.5q-15 7 -30.5 12.5t-26.5 5.5q-20 0 -31.5 -10t-13.5 -28h-57q0 46 29 75.5zM201 592q-46 27 -66 82l51 22
q19 -32 51.5 -47t71.5 -15q38 0 70.5 15t51.5 47l51 -22q-20 -54 -65.5 -81.5t-107.5 -27.5t-108 27z" />
    <glyph glyph-name="uni1EB6" unicode="&#x1eb6;" horiz-adv-x="750" 
d="M621 0l-71 167h-348l-72 -167h-130l322 712h105l323 -712h-129zM245 267h262l-131 305zM314 -78h121v-117h-121v117zM267 810q-46 27 -66 82l62 27q20 -32 47.5 -45t64.5 -13q36 0 63.5 13t47.5 45l62 -27q-20 -54 -65.5 -81.5t-107.5 -27.5t-108 27z" />
    <glyph glyph-name="uni1EB7" unicode="&#x1eb7;" horiz-adv-x="619" 
d="M551 505v-505h-123v81q-23 -42 -66 -65.5t-98 -23.5q-66 0 -117 32t-79 91t-28 137t28.5 138.5t79.5 94t116 33.5q55 0 98 -23.5t66 -65.5v76h123zM394 133q34 43 34 121q0 80 -34 123t-97 43q-62 0 -96.5 -44.5t-34.5 -123.5q0 -78 34.5 -120t97.5 -42q62 0 96 43z
M248 -78h121v-117h-121v117zM197.5 630.5q-49.5 34.5 -68.5 103.5l63 28q43 -84 117 -84q73 0 116 84l63 -27q-19 -69 -68 -104t-111 -35t-111.5 34.5z" />
    <glyph glyph-name="uni1EB8" unicode="&#x1eb8;" horiz-adv-x="595" 
d="M77 0v712h476v-102h-350v-197h329v-102h-329v-209h350v-102h-476zM270 -78h121v-117h-121v117z" />
    <glyph glyph-name="uni1EB9" unicode="&#x1eb9;" horiz-adv-x="548" 
d="M510 246h-348q4 -81 40.5 -119.5t108.5 -38.5q83 0 154 54l36 -86q-36 -29 -88.5 -46.5t-106.5 -17.5q-124 0 -195 70t-71 192q0 77 31 137t87 93.5t127 33.5q104 0 164.5 -67.5t60.5 -185.5v-19zM206.5 398.5q-31.5 -29.5 -40.5 -85.5h235q-6 57 -34.5 86t-78.5 29
t-81.5 -29.5zM243 -78h121v-117h-121v117z" />
    <glyph glyph-name="uni1EBA" unicode="&#x1eba;" horiz-adv-x="595" 
d="M77 0v712h476v-102h-350v-197h329v-102h-329v-209h350v-102h-476zM364 773h-67v20q0 18 11.5 27.5t31.5 19.5q13 6 18.5 10t5.5 9q0 18 -37 18q-26 0 -58 -11l-18 49q42 17 91 17q47 0 75.5 -18t28.5 -46q0 -20 -12.5 -31t-35.5 -21q-18 -9 -26 -15t-8 -16v-12z" />
    <glyph glyph-name="uni1EBB" unicode="&#x1ebb;" horiz-adv-x="548" 
d="M510 246h-348q4 -81 40.5 -119.5t108.5 -38.5q83 0 154 54l36 -86q-36 -29 -88.5 -46.5t-106.5 -17.5q-124 0 -195 70t-71 192q0 77 31 137t87 93.5t127 33.5q104 0 164.5 -67.5t60.5 -185.5v-19zM206.5 398.5q-31.5 -29.5 -40.5 -85.5h235q-6 57 -34.5 86t-78.5 29
t-81.5 -29.5zM320 570h-68v27q0 20 10 34t28 30q12 10 18 17.5t6 15.5q0 24 -37 24q-27 0 -54 -10l-18 52q41 19 84 19q52 0 81.5 -21t29.5 -52q0 -23 -11 -37.5t-34 -32.5q-17 -13 -26 -23t-9 -23v-20z" />
    <glyph glyph-name="uni1EBC" unicode="&#x1ebc;" horiz-adv-x="595" 
d="M77 0v712h476v-102h-350v-197h329v-102h-329v-209h350v-102h-476zM188 886q28 34 74 34q19 0 35.5 -7t44.5 -23q37 -24 57 -24t31.5 14t13.5 37h57q0 -66 -28 -100t-74 -34q-19 0 -35.5 7t-44.5 23q-37 24 -57 24t-31.5 -14t-13.5 -37h-57q0 66 28 100z" />
    <glyph glyph-name="uni1EBD" unicode="&#x1ebd;" horiz-adv-x="548" 
d="M510 246h-348q4 -81 40.5 -119.5t108.5 -38.5q83 0 154 54l36 -86q-36 -29 -88.5 -46.5t-106.5 -17.5q-124 0 -195 70t-71 192q0 77 31 137t87 93.5t127 33.5q104 0 164.5 -67.5t60.5 -185.5v-19zM206.5 398.5q-31.5 -29.5 -40.5 -85.5h235q-6 57 -34.5 86t-78.5 29
t-81.5 -29.5zM142 708.5q28 34.5 74 34.5q19 0 36.5 -7.5t43.5 -23.5q20 -12 33 -18t24 -6q20 0 31.5 14.5t13.5 37.5h57q0 -66 -28 -100.5t-74 -34.5q-19 0 -35.5 7t-44.5 23q-37 24 -57 24t-31.5 -14t-13.5 -37h-57q0 66 28 100.5z" />
    <glyph glyph-name="uni1EBE" unicode="&#x1ebe;" horiz-adv-x="595" 
d="M77 0v712h476v-102h-350v-197h329v-102h-329v-209h350v-102h-476zM487 879h-65l80 142h110zM263 773h-98l128 143h75l128 -143h-98l-67 82z" />
    <glyph glyph-name="uni1EBF" unicode="&#x1ebf;" horiz-adv-x="548" 
d="M510 246h-348q4 -81 40.5 -119.5t108.5 -38.5q83 0 154 54l36 -86q-36 -29 -88.5 -46.5t-106.5 -17.5q-124 0 -195 70t-71 192q0 77 31 137t87 93.5t127 33.5q104 0 164.5 -67.5t60.5 -185.5v-19zM206.5 398.5q-31.5 -29.5 -40.5 -85.5h235q-6 57 -34.5 86t-78.5 29
t-81.5 -29.5zM441 677h-65l80 142h110zM217 570h-98l128 143h75l128 -143h-98l-67 82z" />
    <glyph glyph-name="uni1EC0" unicode="&#x1ec0;" horiz-adv-x="595" 
d="M77 0v712h476v-102h-350v-197h329v-102h-329v-209h350v-102h-476zM465 879l-119 142h110l74 -142h-65zM263 773h-98l128 143h75l128 -143h-98l-67 82z" />
    <glyph glyph-name="uni1EC1" unicode="&#x1ec1;" horiz-adv-x="548" 
d="M510 246h-348q4 -81 40.5 -119.5t108.5 -38.5q83 0 154 54l36 -86q-36 -29 -88.5 -46.5t-106.5 -17.5q-124 0 -195 70t-71 192q0 77 31 137t87 93.5t127 33.5q104 0 164.5 -67.5t60.5 -185.5v-19zM206.5 398.5q-31.5 -29.5 -40.5 -85.5h235q-6 57 -34.5 86t-78.5 29
t-81.5 -29.5zM419 677l-119 142h110l74 -142h-65zM217 570h-98l128 143h75l128 -143h-98l-67 82z" />
    <glyph glyph-name="uni1EC2" unicode="&#x1ec2;" horiz-adv-x="595" 
d="M77 0v712h476v-102h-350v-197h329v-102h-329v-209h350v-102h-476zM488 880h-67v19q0 18 12.5 27.5t33.5 17.5q8 3 14.5 6t6.5 7q0 7 -9 11.5t-27 4.5q-27 0 -60 -11l-18 47q41 18 91 18q48 0 76.5 -17t28.5 -44q0 -19 -12 -29t-35 -19q-18 -8 -26.5 -14t-8.5 -16v-8z
M263 773h-98l128 143h75l128 -143h-98l-67 82z" />
    <glyph glyph-name="uni1EC3" unicode="&#x1ec3;" horiz-adv-x="548" 
d="M510 246h-348q4 -81 40.5 -119.5t108.5 -38.5q83 0 154 54l36 -86q-36 -29 -88.5 -46.5t-106.5 -17.5q-124 0 -195 70t-71 192q0 77 31 137t87 93.5t127 33.5q104 0 164.5 -67.5t60.5 -185.5v-19zM206.5 398.5q-31.5 -29.5 -40.5 -85.5h235q-6 57 -34.5 86t-78.5 29
t-81.5 -29.5zM442 677h-67v19q0 18 12 27t34 18q21 7 21 14t-9 11.5t-27 4.5q-24 0 -60 -12l-18 48q45 18 91 18q48 0 76.5 -17.5t28.5 -45.5q0 -19 -12 -28.5t-35 -18.5q-17 -6 -26 -12.5t-9 -16.5v-9zM217 570h-98l128 143h75l128 -143h-98l-67 82z" />
    <glyph glyph-name="uni1EC4" unicode="&#x1ec4;" horiz-adv-x="595" 
d="M77 0v712h476v-102h-350v-197h329v-102h-329v-209h350v-102h-476zM189 1006.5q29 29.5 73 29.5q19 0 36 -5t44 -16q40 -16 57 -16q20 0 31.5 9.5t13.5 26.5h57q0 -44 -29.5 -74t-72.5 -30q-19 0 -36 5t-44 16q-38 17 -57 17q-20 0 -31.5 -10t-13.5 -27h-57q0 45 29 74.5z
M263 773h-98l128 143h75l128 -143h-98l-67 82z" />
    <glyph glyph-name="uni1EC5" unicode="&#x1ec5;" horiz-adv-x="548" 
d="M510 246h-348q4 -81 40.5 -119.5t108.5 -38.5q83 0 154 54l36 -86q-36 -29 -88.5 -46.5t-106.5 -17.5q-124 0 -195 70t-71 192q0 77 31 137t87 93.5t127 33.5q104 0 164.5 -67.5t60.5 -185.5v-19zM206.5 398.5q-31.5 -29.5 -40.5 -85.5h235q-6 57 -34.5 86t-78.5 29
t-81.5 -29.5zM143 804q29 29 73 29q19 0 36 -5t44 -16q40 -16 57 -16q20 0 31.5 10t13.5 26h57q0 -44 -29 -73.5t-73 -29.5q-19 0 -36 5t-44 16q-40 16 -57 16q-20 0 -31.5 -10t-13.5 -26h-57q0 45 29 74zM217 570h-98l128 143h75l128 -143h-98l-67 82z" />
    <glyph glyph-name="uni1EC6" unicode="&#x1ec6;" horiz-adv-x="595" 
d="M77 0v712h476v-102h-350v-197h329v-102h-329v-209h350v-102h-476zM270 -78h121v-117h-121v117zM264 773h-99l128 155h75l128 -155h-99l-66 92z" />
    <glyph glyph-name="uni1EC7" unicode="&#x1ec7;" horiz-adv-x="548" 
d="M510 246h-348q4 -81 40.5 -119.5t108.5 -38.5q83 0 154 54l36 -86q-36 -29 -88.5 -46.5t-106.5 -17.5q-124 0 -195 70t-71 192q0 77 31 137t87 93.5t127 33.5q104 0 164.5 -67.5t60.5 -185.5v-19zM206.5 398.5q-31.5 -29.5 -40.5 -85.5h235q-6 57 -34.5 86t-78.5 29
t-81.5 -29.5zM243 -78h121v-117h-121v117zM221 570h-102l126 206h79l126 -206h-102l-63 128z" />
    <glyph glyph-name="uni1EC8" unicode="&#x1ec8;" horiz-adv-x="283" 
d="M77 0v712h129v-712h-129zM174 773h-67v20q0 18 11.5 27.5t31.5 19.5q13 6 18.5 10t5.5 9q0 18 -37 18q-26 0 -58 -11l-18 49q42 17 91 17q47 0 75.5 -18t28.5 -46q0 -20 -12.5 -31t-35.5 -21q-18 -9 -26 -15t-8 -16v-12z" />
    <glyph glyph-name="uni1EC9" unicode="&#x1ec9;" horiz-adv-x="261" 
d="M68 0v505h124v-505h-124zM165 570h-68v27q0 20 10 34t28 30q12 10 18 17.5t6 15.5q0 24 -37 24q-27 0 -54 -10l-18 52q41 19 84 19q52 0 81.5 -21t29.5 -52q0 -23 -11 -37.5t-34 -32.5q-17 -13 -26 -23t-9 -23v-20z" />
    <glyph glyph-name="uni1ECA" unicode="&#x1eca;" horiz-adv-x="283" 
d="M77 0v712h129v-712h-129zM80 -78h121v-117h-121v117z" />
    <glyph glyph-name="uni1ECB" unicode="&#x1ecb;" horiz-adv-x="261" 
d="M68 0v505h124v-505h-124zM60 734h139v-123h-139v123zM69 -78h121v-117h-121v117z" />
    <glyph glyph-name="uni1ECC" unicode="&#x1ecc;" horiz-adv-x="786" 
d="M213.5 35.5q-76.5 44.5 -118 127t-41.5 194.5q0 111 41 193.5t117.5 126.5t180.5 44t180.5 -44t117 -126.5t40.5 -193.5q0 -112 -41 -194.5t-117 -127t-180 -44.5q-103 0 -179.5 44.5zM547 162q55 68 55 195q0 126 -55 193.5t-154 67.5t-154 -67t-55 -194t55 -195
t154 -68t154 68zM332 -78h121v-117h-121v117z" />
    <glyph glyph-name="uni1ECD" unicode="&#x1ecd;" horiz-adv-x="592" 
d="M161.5 24q-58.5 32 -90 91.5t-31.5 139.5t31.5 139.5t90 91.5t135.5 32q76 0 134 -32t89.5 -91.5t31.5 -139.5t-31.5 -139.5t-89.5 -91.5t-134 -32q-77 0 -135.5 32zM393.5 131.5q33.5 41.5 33.5 123.5q0 81 -34 123.5t-96 42.5q-63 0 -97 -42.5t-34 -123.5
q0 -82 33.5 -123.5t96.5 -41.5q64 0 97.5 41.5zM236 -78h121v-117h-121v117z" />
    <glyph glyph-name="uni1ECE" unicode="&#x1ece;" horiz-adv-x="786" 
d="M213.5 35.5q-76.5 44.5 -118 127t-41.5 194.5q0 111 41 193.5t117.5 126.5t180.5 44t180.5 -44t117 -126.5t40.5 -193.5q0 -112 -41 -194.5t-117 -127t-180 -44.5q-103 0 -179.5 44.5zM547 162q55 68 55 195q0 126 -55 193.5t-154 67.5t-154 -67t-55 -194t55 -195
t154 -68t154 68zM426 773h-67v20q0 18 11.5 27.5t31.5 19.5q13 6 18.5 10t5.5 9q0 18 -37 18q-26 0 -58 -11l-18 49q42 17 91 17q47 0 75.5 -18t28.5 -46q0 -20 -12.5 -31t-35.5 -21q-18 -9 -26 -15t-8 -16v-12z" />
    <glyph glyph-name="uni1ECF" unicode="&#x1ecf;" horiz-adv-x="592" 
d="M161.5 24q-58.5 32 -90 91.5t-31.5 139.5t31.5 139.5t90 91.5t135.5 32q76 0 134 -32t89.5 -91.5t31.5 -139.5t-31.5 -139.5t-89.5 -91.5t-134 -32q-77 0 -135.5 32zM393.5 131.5q33.5 41.5 33.5 123.5q0 81 -34 123.5t-96 42.5q-63 0 -97 -42.5t-34 -123.5
q0 -82 33.5 -123.5t96.5 -41.5q64 0 97.5 41.5zM332 570h-68v27q0 20 10 34t28 30q12 10 18 17.5t6 15.5q0 24 -37 24q-27 0 -54 -10l-18 52q41 19 84 19q52 0 81.5 -21t29.5 -52q0 -23 -11 -37.5t-34 -32.5q-17 -13 -26 -23t-9 -23v-20z" />
    <glyph glyph-name="uni1ED0" unicode="&#x1ed0;" horiz-adv-x="786" 
d="M213.5 35.5q-76.5 44.5 -118 127t-41.5 194.5q0 111 41 193.5t117.5 126.5t180.5 44t180.5 -44t117 -126.5t40.5 -193.5q0 -112 -41 -194.5t-117 -127t-180 -44.5q-103 0 -179.5 44.5zM547 162q55 68 55 195q0 126 -55 193.5t-154 67.5t-154 -67t-55 -194t55 -195
t154 -68t154 68zM549 879h-65l80 142h110zM325 773h-98l128 143h75l128 -143h-98l-67 82z" />
    <glyph glyph-name="uni1ED1" unicode="&#x1ed1;" horiz-adv-x="592" 
d="M161.5 24q-58.5 32 -90 91.5t-31.5 139.5t31.5 139.5t90 91.5t135.5 32q76 0 134 -32t89.5 -91.5t31.5 -139.5t-31.5 -139.5t-89.5 -91.5t-134 -32q-77 0 -135.5 32zM393.5 131.5q33.5 41.5 33.5 123.5q0 81 -34 123.5t-96 42.5q-63 0 -97 -42.5t-34 -123.5
q0 -82 33.5 -123.5t96.5 -41.5q64 0 97.5 41.5zM453 677h-65l80 142h110zM229 570h-98l128 143h75l128 -143h-98l-67 82z" />
    <glyph glyph-name="uni1ED2" unicode="&#x1ed2;" horiz-adv-x="786" 
d="M213.5 35.5q-76.5 44.5 -118 127t-41.5 194.5q0 111 41 193.5t117.5 126.5t180.5 44t180.5 -44t117 -126.5t40.5 -193.5q0 -112 -41 -194.5t-117 -127t-180 -44.5q-103 0 -179.5 44.5zM547 162q55 68 55 195q0 126 -55 193.5t-154 67.5t-154 -67t-55 -194t55 -195
t154 -68t154 68zM527 879l-119 142h110l74 -142h-65zM325 773h-98l128 143h75l128 -143h-98l-67 82z" />
    <glyph glyph-name="uni1ED3" unicode="&#x1ed3;" horiz-adv-x="592" 
d="M161.5 24q-58.5 32 -90 91.5t-31.5 139.5t31.5 139.5t90 91.5t135.5 32q76 0 134 -32t89.5 -91.5t31.5 -139.5t-31.5 -139.5t-89.5 -91.5t-134 -32q-77 0 -135.5 32zM393.5 131.5q33.5 41.5 33.5 123.5q0 81 -34 123.5t-96 42.5q-63 0 -97 -42.5t-34 -123.5
q0 -82 33.5 -123.5t96.5 -41.5q64 0 97.5 41.5zM431 677l-119 142h110l74 -142h-65zM229 570h-98l128 143h75l128 -143h-98l-67 82z" />
    <glyph glyph-name="uni1ED4" unicode="&#x1ed4;" horiz-adv-x="786" 
d="M213.5 35.5q-76.5 44.5 -118 127t-41.5 194.5q0 111 41 193.5t117.5 126.5t180.5 44t180.5 -44t117 -126.5t40.5 -193.5q0 -112 -41 -194.5t-117 -127t-180 -44.5q-103 0 -179.5 44.5zM547 162q55 68 55 195q0 126 -55 193.5t-154 67.5t-154 -67t-55 -194t55 -195
t154 -68t154 68zM550 880h-67v19q0 18 12.5 27.5t33.5 17.5q8 3 14.5 6t6.5 7q0 7 -9 11.5t-27 4.5q-27 0 -60 -11l-18 47q41 18 91 18q48 0 76.5 -17t28.5 -44q0 -19 -12 -29t-35 -19q-18 -8 -26.5 -14t-8.5 -16v-8zM325 773h-98l128 143h75l128 -143h-98l-67 82z" />
    <glyph glyph-name="uni1ED5" unicode="&#x1ed5;" horiz-adv-x="592" 
d="M161.5 24q-58.5 32 -90 91.5t-31.5 139.5t31.5 139.5t90 91.5t135.5 32q76 0 134 -32t89.5 -91.5t31.5 -139.5t-31.5 -139.5t-89.5 -91.5t-134 -32q-77 0 -135.5 32zM393.5 131.5q33.5 41.5 33.5 123.5q0 81 -34 123.5t-96 42.5q-63 0 -97 -42.5t-34 -123.5
q0 -82 33.5 -123.5t96.5 -41.5q64 0 97.5 41.5zM454 677h-67v19q0 18 12 27t34 18q21 7 21 14t-9 11.5t-27 4.5q-24 0 -60 -12l-18 48q45 18 91 18q48 0 76.5 -17.5t28.5 -45.5q0 -19 -12 -28.5t-35 -18.5q-17 -6 -26 -12.5t-9 -16.5v-9zM229 570h-98l128 143h75l128 -143
h-98l-67 82z" />
    <glyph glyph-name="uni1ED6" unicode="&#x1ed6;" horiz-adv-x="786" 
d="M213.5 35.5q-76.5 44.5 -118 127t-41.5 194.5q0 111 41 193.5t117.5 126.5t180.5 44t180.5 -44t117 -126.5t40.5 -193.5q0 -112 -41 -194.5t-117 -127t-180 -44.5q-103 0 -179.5 44.5zM547 162q55 68 55 195q0 126 -55 193.5t-154 67.5t-154 -67t-55 -194t55 -195
t154 -68t154 68zM251 1006.5q29 29.5 73 29.5q19 0 36 -5t44 -16q40 -16 57 -16q20 0 31.5 9.5t13.5 26.5h57q0 -44 -29.5 -74t-72.5 -30q-19 0 -36 5t-44 16q-38 17 -57 17q-20 0 -31.5 -10t-13.5 -27h-57q0 45 29 74.5zM325 773h-98l128 143h75l128 -143h-98l-67 82z" />
    <glyph glyph-name="uni1ED7" unicode="&#x1ed7;" horiz-adv-x="592" 
d="M161.5 24q-58.5 32 -90 91.5t-31.5 139.5t31.5 139.5t90 91.5t135.5 32q76 0 134 -32t89.5 -91.5t31.5 -139.5t-31.5 -139.5t-89.5 -91.5t-134 -32q-77 0 -135.5 32zM393.5 131.5q33.5 41.5 33.5 123.5q0 81 -34 123.5t-96 42.5q-63 0 -97 -42.5t-34 -123.5
q0 -82 33.5 -123.5t96.5 -41.5q64 0 97.5 41.5zM155 804q29 29 73 29q19 0 36 -5t44 -16q40 -16 57 -16q20 0 31.5 10t13.5 26h57q0 -44 -29 -73.5t-73 -29.5q-19 0 -36 5t-44 16q-40 16 -57 16q-20 0 -31.5 -10t-13.5 -26h-57q0 45 29 74zM229 570h-98l128 143h75l128 -143
h-98l-67 82z" />
    <glyph glyph-name="uni1ED8" unicode="&#x1ed8;" horiz-adv-x="786" 
d="M213.5 35.5q-76.5 44.5 -118 127t-41.5 194.5q0 111 41 193.5t117.5 126.5t180.5 44t180.5 -44t117 -126.5t40.5 -193.5q0 -112 -41 -194.5t-117 -127t-180 -44.5q-103 0 -179.5 44.5zM547 162q55 68 55 195q0 126 -55 193.5t-154 67.5t-154 -67t-55 -194t55 -195
t154 -68t154 68zM332 -78h121v-117h-121v117zM326 773h-99l128 155h75l128 -155h-99l-66 92z" />
    <glyph glyph-name="uni1ED9" unicode="&#x1ed9;" horiz-adv-x="592" 
d="M161.5 24q-58.5 32 -90 91.5t-31.5 139.5t31.5 139.5t90 91.5t135.5 32q76 0 134 -32t89.5 -91.5t31.5 -139.5t-31.5 -139.5t-89.5 -91.5t-134 -32q-77 0 -135.5 32zM393.5 131.5q33.5 41.5 33.5 123.5q0 81 -34 123.5t-96 42.5q-63 0 -97 -42.5t-34 -123.5
q0 -82 33.5 -123.5t96.5 -41.5q64 0 97.5 41.5zM236 -78h121v-117h-121v117zM233 570h-102l126 206h79l126 -206h-102l-63 128z" />
    <glyph glyph-name="uni1EDA" unicode="&#x1eda;" horiz-adv-x="786" 
d="M698.5 700.5q-32.5 -40.5 -89.5 -50.5q60 -46 91 -120.5t31 -172.5q0 -112 -41 -194.5t-117 -127t-180 -44.5q-103 0 -179.5 44.5t-118 127t-41.5 194.5q0 111 41.5 193.5t118.5 126.5t182 44q32 0 69 -5q40 -4 61 -4q53 0 75 24t22 82v18h108v-34q0 -61 -32.5 -101.5z
M547 162q55 68 55 195q0 126 -55 193.5t-154 67.5t-154 -67t-55 -194t55 -195t154 -68t154 68zM433 773h-81l103 155h121z" />
    <glyph glyph-name="uni1EDB" unicode="&#x1edb;" horiz-adv-x="592" 
d="M542.5 509q-25.5 -39 -71.5 -55q40 -34 60.5 -85t20.5 -115q0 -79 -31.5 -138.5t-89.5 -91.5t-134 -32q-77 0 -135.5 32t-90 91.5t-31.5 138.5q0 80 31.5 139.5t89 92t133.5 32.5q13 0 56 -5q16 -3 25 -3q41 0 63 23.5t22 84.5v18h108v-34q0 -54 -25.5 -93zM393.5 131.5
q33.5 41.5 33.5 123.5q0 81 -34 123.5t-96 42.5q-63 0 -97 -42.5t-34 -123.5q0 -82 33.5 -123.5t96.5 -41.5q64 0 97.5 41.5zM337 570h-81l100 206h128z" />
    <glyph glyph-name="uni1EDC" unicode="&#x1edc;" horiz-adv-x="786" 
d="M698.5 700.5q-32.5 -40.5 -89.5 -50.5q60 -46 91 -120.5t31 -172.5q0 -112 -41 -194.5t-117 -127t-180 -44.5q-103 0 -179.5 44.5t-118 127t-41.5 194.5q0 111 41.5 193.5t118.5 126.5t182 44q32 0 69 -5q40 -4 61 -4q53 0 75 24t22 82v18h108v-34q0 -61 -32.5 -101.5z
M547 162q55 68 55 195q0 126 -55 193.5t-154 67.5t-154 -67t-55 -194t55 -195t154 -68t154 68zM352 773l-143 155h121l103 -155h-81z" />
    <glyph glyph-name="uni1EDD" unicode="&#x1edd;" horiz-adv-x="592" 
d="M542.5 509q-25.5 -39 -71.5 -55q40 -34 60.5 -85t20.5 -115q0 -79 -31.5 -138.5t-89.5 -91.5t-134 -32q-77 0 -135.5 32t-90 91.5t-31.5 138.5q0 80 31.5 139.5t89 92t133.5 32.5q13 0 56 -5q16 -3 25 -3q41 0 63 23.5t22 84.5v18h108v-34q0 -54 -25.5 -93zM393.5 131.5
q33.5 41.5 33.5 123.5q0 81 -34 123.5t-96 42.5q-63 0 -97 -42.5t-34 -123.5q0 -82 33.5 -123.5t96.5 -41.5q64 0 97.5 41.5zM256 570l-147 206h128l100 -206h-81z" />
    <glyph glyph-name="uni1EDE" unicode="&#x1ede;" horiz-adv-x="786" 
d="M698.5 700.5q-32.5 -40.5 -89.5 -50.5q60 -46 91 -120.5t31 -172.5q0 -112 -41 -194.5t-117 -127t-180 -44.5q-103 0 -179.5 44.5t-118 127t-41.5 194.5q0 111 41.5 193.5t118.5 126.5t182 44q32 0 69 -5q40 -4 61 -4q53 0 75 24t22 82v18h108v-34q0 -61 -32.5 -101.5z
M547 162q55 68 55 195q0 126 -55 193.5t-154 67.5t-154 -67t-55 -194t55 -195t154 -68t154 68zM426 773h-67v20q0 18 11.5 27.5t31.5 19.5q13 6 18.5 10t5.5 9q0 18 -37 18q-26 0 -58 -11l-18 49q42 17 91 17q47 0 75.5 -18t28.5 -46q0 -20 -12.5 -31t-35.5 -21
q-18 -9 -26 -15t-8 -16v-12z" />
    <glyph glyph-name="uni1EDF" unicode="&#x1edf;" horiz-adv-x="592" 
d="M542.5 509q-25.5 -39 -71.5 -55q40 -34 60.5 -85t20.5 -115q0 -79 -31.5 -138.5t-89.5 -91.5t-134 -32q-77 0 -135.5 32t-90 91.5t-31.5 138.5q0 80 31.5 139.5t89 92t133.5 32.5q13 0 56 -5q16 -3 25 -3q41 0 63 23.5t22 84.5v18h108v-34q0 -54 -25.5 -93zM393.5 131.5
q33.5 41.5 33.5 123.5q0 81 -34 123.5t-96 42.5q-63 0 -97 -42.5t-34 -123.5q0 -82 33.5 -123.5t96.5 -41.5q64 0 97.5 41.5zM332 570h-68v27q0 20 10 34t28 30q12 10 18 17.5t6 15.5q0 24 -37 24q-27 0 -54 -10l-18 52q41 19 84 19q52 0 81.5 -21t29.5 -52q0 -23 -11 -37.5
t-34 -32.5q-17 -13 -26 -23t-9 -23v-20z" />
    <glyph glyph-name="uni1EE0" unicode="&#x1ee0;" horiz-adv-x="786" 
d="M698.5 700.5q-32.5 -40.5 -89.5 -50.5q60 -46 91 -120.5t31 -172.5q0 -112 -41 -194.5t-117 -127t-180 -44.5q-103 0 -179.5 44.5t-118 127t-41.5 194.5q0 111 41.5 193.5t118.5 126.5t182 44q32 0 69 -5q40 -4 61 -4q53 0 75 24t22 82v18h108v-34q0 -61 -32.5 -101.5z
M547 162q55 68 55 195q0 126 -55 193.5t-154 67.5t-154 -67t-55 -194t55 -195t154 -68t154 68zM250 886q28 34 74 34q19 0 35.5 -7t44.5 -23q37 -24 57 -24t31.5 14t13.5 37h57q0 -66 -28 -100t-74 -34q-19 0 -35.5 7t-44.5 23q-37 24 -57 24t-31.5 -14t-13.5 -37h-57
q0 66 28 100z" />
    <glyph glyph-name="uni1EE1" unicode="&#x1ee1;" horiz-adv-x="592" 
d="M542.5 509q-25.5 -39 -71.5 -55q40 -34 60.5 -85t20.5 -115q0 -79 -31.5 -138.5t-89.5 -91.5t-134 -32q-77 0 -135.5 32t-90 91.5t-31.5 138.5q0 80 31.5 139.5t89 92t133.5 32.5q13 0 56 -5q16 -3 25 -3q41 0 63 23.5t22 84.5v18h108v-34q0 -54 -25.5 -93zM393.5 131.5
q33.5 41.5 33.5 123.5q0 81 -34 123.5t-96 42.5q-63 0 -97 -42.5t-34 -123.5q0 -82 33.5 -123.5t96.5 -41.5q64 0 97.5 41.5zM154 708.5q28 34.5 74 34.5q19 0 36.5 -7.5t43.5 -23.5q20 -12 33 -18t24 -6q20 0 31.5 14.5t13.5 37.5h57q0 -66 -28 -100.5t-74 -34.5
q-19 0 -35.5 7t-44.5 23q-37 24 -57 24t-31.5 -14t-13.5 -37h-57q0 66 28 100.5z" />
    <glyph glyph-name="uni1EE2" unicode="&#x1ee2;" horiz-adv-x="786" 
d="M698.5 700.5q-32.5 -40.5 -89.5 -50.5q60 -46 91 -120.5t31 -172.5q0 -112 -41 -194.5t-117 -127t-180 -44.5q-103 0 -179.5 44.5t-118 127t-41.5 194.5q0 111 41.5 193.5t118.5 126.5t182 44q32 0 69 -5q40 -4 61 -4q53 0 75 24t22 82v18h108v-34q0 -61 -32.5 -101.5z
M547 162q55 68 55 195q0 126 -55 193.5t-154 67.5t-154 -67t-55 -194t55 -195t154 -68t154 68zM333 -78h121v-117h-121v117z" />
    <glyph glyph-name="uni1EE3" unicode="&#x1ee3;" horiz-adv-x="592" 
d="M542.5 509q-25.5 -39 -71.5 -55q40 -34 60.5 -85t20.5 -115q0 -79 -31.5 -138.5t-89.5 -91.5t-134 -32q-77 0 -135.5 32t-90 91.5t-31.5 138.5q0 80 31.5 139.5t89 92t133.5 32.5q13 0 56 -5q16 -3 25 -3q41 0 63 23.5t22 84.5v18h108v-34q0 -54 -25.5 -93zM393.5 131.5
q33.5 41.5 33.5 123.5q0 81 -34 123.5t-96 42.5q-63 0 -97 -42.5t-34 -123.5q0 -82 33.5 -123.5t96.5 -41.5q64 0 97.5 41.5zM236 -78h121v-117h-121v117z" />
    <glyph glyph-name="uni1EE4" unicode="&#x1ee4;" horiz-adv-x="740" 
d="M148.5 66.5q-75.5 75.5 -75.5 221.5v424h127v-431q0 -92 43 -139.5t128 -47.5q83 0 126.5 48t43.5 139v431h127v-424q0 -145 -76 -221t-221 -76q-147 0 -222.5 75.5zM310 -78h121v-117h-121v117z" />
    <glyph glyph-name="uni1EE5" unicode="&#x1ee5;" horiz-adv-x="596" 
d="M528 505v-505h-122v78q-24 -42 -64 -64t-92 -22q-185 0 -185 208v305h124v-306q0 -55 22.5 -81t69.5 -26q55 0 88 36t33 96v281h126zM236 -78h121v-117h-121v117z" />
    <glyph glyph-name="uni1EE6" unicode="&#x1ee6;" horiz-adv-x="740" 
d="M148.5 66.5q-75.5 75.5 -75.5 221.5v424h127v-431q0 -92 43 -139.5t128 -47.5q83 0 126.5 48t43.5 139v431h127v-424q0 -145 -76 -221t-221 -76q-147 0 -222.5 75.5zM404 773h-67v20q0 18 11.5 27.5t31.5 19.5q13 6 18.5 10t5.5 9q0 18 -37 18q-26 0 -58 -11l-18 49
q42 17 91 17q47 0 75.5 -18t28.5 -46q0 -20 -12.5 -31t-35.5 -21q-18 -9 -26 -15t-8 -16v-12z" />
    <glyph glyph-name="uni1EE7" unicode="&#x1ee7;" horiz-adv-x="596" 
d="M528 505v-505h-122v78q-24 -42 -64 -64t-92 -22q-185 0 -185 208v305h124v-306q0 -55 22.5 -81t69.5 -26q55 0 88 36t33 96v281h126zM332 570h-68v27q0 20 10 34t28 30q12 10 18 17.5t6 15.5q0 24 -37 24q-27 0 -54 -10l-18 52q41 19 84 19q52 0 81.5 -21t29.5 -52
q0 -23 -11 -37.5t-34 -32.5q-17 -13 -26 -23t-9 -23v-20z" />
    <glyph glyph-name="uni1EE8" unicode="&#x1ee8;" horiz-adv-x="740" 
d="M783 836v-34q0 -59 -30.5 -99t-84.5 -52v-363q0 -145 -76 -221t-221 -76q-147 0 -222.5 75.5t-75.5 221.5v424h127v-431q0 -92 43 -139.5t128 -47.5q83 0 126.5 48t43.5 139v431h37q53 0 74.5 24t21.5 82v18h109zM411 773h-81l103 155h121z" />
    <glyph glyph-name="uni1EE9" unicode="&#x1ee9;" horiz-adv-x="616" 
d="M646 636v-34q0 -61 -31.5 -102.5t-86.5 -52.5v-447h-122v78q-24 -42 -64 -64t-92 -22q-185 0 -185 208v305h124v-306q0 -55 22.5 -81t69.5 -26q55 0 88 36t33 96v281h36q53 0 76 26t23 87v18h109zM337 570h-81l100 206h128z" />
    <glyph glyph-name="uni1EEA" unicode="&#x1eea;" horiz-adv-x="740" 
d="M783 836v-34q0 -59 -30.5 -99t-84.5 -52v-363q0 -145 -76 -221t-221 -76q-147 0 -222.5 75.5t-75.5 221.5v424h127v-431q0 -92 43 -139.5t128 -47.5q83 0 126.5 48t43.5 139v431h37q53 0 74.5 24t21.5 82v18h109zM330 773l-143 155h121l103 -155h-81z" />
    <glyph glyph-name="uni1EEB" unicode="&#x1eeb;" horiz-adv-x="616" 
d="M646 636v-34q0 -61 -31.5 -102.5t-86.5 -52.5v-447h-122v78q-24 -42 -64 -64t-92 -22q-185 0 -185 208v305h124v-306q0 -55 22.5 -81t69.5 -26q55 0 88 36t33 96v281h36q53 0 76 26t23 87v18h109zM256 570l-147 206h128l100 -206h-81z" />
    <glyph glyph-name="uni1EEC" unicode="&#x1eec;" horiz-adv-x="740" 
d="M783 836v-34q0 -59 -30.5 -99t-84.5 -52v-363q0 -145 -76 -221t-221 -76q-147 0 -222.5 75.5t-75.5 221.5v424h127v-431q0 -92 43 -139.5t128 -47.5q83 0 126.5 48t43.5 139v431h37q53 0 74.5 24t21.5 82v18h109zM404 773h-67v20q0 18 11.5 27.5t31.5 19.5q13 6 18.5 10
t5.5 9q0 18 -37 18q-26 0 -58 -11l-18 49q42 17 91 17q47 0 75.5 -18t28.5 -46q0 -20 -12.5 -31t-35.5 -21q-18 -9 -26 -15t-8 -16v-12z" />
    <glyph glyph-name="uni1EED" unicode="&#x1eed;" horiz-adv-x="616" 
d="M646 636v-34q0 -61 -31.5 -102.5t-86.5 -52.5v-447h-122v78q-24 -42 -64 -64t-92 -22q-185 0 -185 208v305h124v-306q0 -55 22.5 -81t69.5 -26q55 0 88 36t33 96v281h36q53 0 76 26t23 87v18h109zM332 570h-68v27q0 20 10 34t28 30q12 10 18 17.5t6 15.5q0 24 -37 24
q-27 0 -54 -10l-18 52q41 19 84 19q52 0 81.5 -21t29.5 -52q0 -23 -11 -37.5t-34 -32.5q-17 -13 -26 -23t-9 -23v-20z" />
    <glyph glyph-name="uni1EEE" unicode="&#x1eee;" horiz-adv-x="740" 
d="M783 836v-34q0 -59 -30.5 -99t-84.5 -52v-363q0 -145 -76 -221t-221 -76q-147 0 -222.5 75.5t-75.5 221.5v424h127v-431q0 -92 43 -139.5t128 -47.5q83 0 126.5 48t43.5 139v431h37q53 0 74.5 24t21.5 82v18h109zM228 886q28 34 74 34q19 0 35.5 -7t44.5 -23
q37 -24 57 -24t31.5 14t13.5 37h57q0 -66 -28 -100t-74 -34q-19 0 -35.5 7t-44.5 23q-37 24 -57 24t-31.5 -14t-13.5 -37h-57q0 66 28 100z" />
    <glyph glyph-name="uni1EEF" unicode="&#x1eef;" horiz-adv-x="616" 
d="M646 636v-34q0 -61 -31.5 -102.5t-86.5 -52.5v-447h-122v78q-24 -42 -64 -64t-92 -22q-185 0 -185 208v305h124v-306q0 -55 22.5 -81t69.5 -26q55 0 88 36t33 96v281h36q53 0 76 26t23 87v18h109zM154 708.5q28 34.5 74 34.5q19 0 36.5 -7.5t43.5 -23.5q20 -12 33 -18
t24 -6q20 0 31.5 14.5t13.5 37.5h57q0 -66 -28 -100.5t-74 -34.5q-19 0 -35.5 7t-44.5 23q-37 24 -57 24t-31.5 -14t-13.5 -37h-57q0 66 28 100.5z" />
    <glyph glyph-name="uni1EF0" unicode="&#x1ef0;" horiz-adv-x="740" 
d="M783 836v-34q0 -59 -30.5 -99t-84.5 -52v-363q0 -145 -76 -221t-221 -76q-147 0 -222.5 75.5t-75.5 221.5v424h127v-431q0 -92 43 -139.5t128 -47.5q83 0 126.5 48t43.5 139v431h37q53 0 74.5 24t21.5 82v18h109zM310 -78h121v-117h-121v117z" />
    <glyph glyph-name="uni1EF1" unicode="&#x1ef1;" horiz-adv-x="616" 
d="M646 636v-34q0 -61 -31.5 -102.5t-86.5 -52.5v-447h-122v78q-24 -42 -64 -64t-92 -22q-185 0 -185 208v305h124v-306q0 -55 22.5 -81t69.5 -26q55 0 88 36t33 96v281h36q53 0 76 26t23 87v18h109zM236 -78h121v-117h-121v117z" />
    <glyph glyph-name="Ygrave" unicode="&#x1ef2;" horiz-adv-x="629" 
d="M668 712l-289 -430v-282h-129v282l-289 430h147l206 -322l207 322h147zM273 773l-143 155h121l103 -155h-81z" />
    <glyph glyph-name="ygrave" unicode="&#x1ef3;" horiz-adv-x="543" 
d="M546 505l-235 -539q-40 -94 -102 -137t-153 -57l-28 96q71 16 106.5 40.5t57.5 72.5l16 37l-210 487h131l145 -363l148 363h124zM231 570l-147 206h128l100 -206h-81z" />
    <glyph glyph-name="uni1EF4" unicode="&#x1ef4;" horiz-adv-x="629" 
d="M668 712l-289 -430v-282h-129v282l-289 430h147l206 -322l207 322h147zM254 -78h121v-117h-121v117z" />
    <glyph glyph-name="uni1EF5" unicode="&#x1ef5;" horiz-adv-x="543" 
d="M546 505l-235 -539q-40 -94 -102 -137t-153 -57l-28 96q71 16 106.5 40.5t57.5 72.5l16 37l-210 487h131l145 -363l148 363h124zM361 -78h121v-117h-121v117z" />
    <glyph glyph-name="uni1EF6" unicode="&#x1ef6;" horiz-adv-x="629" 
d="M668 712l-289 -430v-282h-129v282l-289 430h147l206 -322l207 322h147zM347 773h-67v20q0 18 11.5 27.5t31.5 19.5q13 6 18.5 10t5.5 9q0 18 -37 18q-26 0 -58 -11l-18 49q42 17 91 17q47 0 75.5 -18t28.5 -46q0 -20 -12.5 -31t-35.5 -21q-18 -9 -26 -15t-8 -16v-12z" />
    <glyph glyph-name="uni1EF7" unicode="&#x1ef7;" horiz-adv-x="543" 
d="M546 505l-235 -539q-40 -94 -102 -137t-153 -57l-28 96q71 16 106.5 40.5t57.5 72.5l16 37l-210 487h131l145 -363l148 363h124zM307 570h-68v27q0 20 10 34t28 30q12 10 18 17.5t6 15.5q0 24 -37 24q-27 0 -54 -10l-18 52q41 19 84 19q52 0 81.5 -21t29.5 -52
q0 -23 -11 -37.5t-34 -32.5q-17 -13 -26 -23t-9 -23v-20z" />
    <glyph glyph-name="uni1EF8" unicode="&#x1ef8;" horiz-adv-x="629" 
d="M668 712l-289 -430v-282h-129v282l-289 430h147l206 -322l207 322h147zM171 886q28 34 74 34q19 0 35.5 -7t44.5 -23q37 -24 57 -24t31.5 14t13.5 37h57q0 -66 -28 -100t-74 -34q-19 0 -35.5 7t-44.5 23q-37 24 -57 24t-31.5 -14t-13.5 -37h-57q0 66 28 100z" />
    <glyph glyph-name="uni1EF9" unicode="&#x1ef9;" horiz-adv-x="543" 
d="M546 505l-235 -539q-40 -94 -102 -137t-153 -57l-28 96q71 16 106.5 40.5t57.5 72.5l16 37l-210 487h131l145 -363l148 363h124zM129 708.5q28 34.5 74 34.5q19 0 36.5 -7.5t43.5 -23.5q20 -12 33 -18t24 -6q20 0 31.5 14.5t13.5 37.5h57q0 -66 -28 -100.5t-74 -34.5
q-19 0 -35.5 7t-44.5 23q-37 24 -57 24t-31.5 -14t-13.5 -37h-57q0 66 28 100.5z" />
    <glyph glyph-name="uni2007" unicode="&#x2007;" horiz-adv-x="606" 
 />
    <glyph glyph-name="uni2008" unicode="&#x2008;" horiz-adv-x="251" 
 />
    <glyph glyph-name="uni2009" unicode="&#x2009;" horiz-adv-x="202" 
 />
    <glyph glyph-name="uni200A" unicode="&#x200a;" horiz-adv-x="101" 
 />
    <glyph glyph-name="uni200B" unicode="&#x200b;" 
 />
    <glyph glyph-name="uni2010" unicode="&#x2010;" horiz-adv-x="438" 
d="M69 220v100h301v-100h-301z" />
    <glyph glyph-name="figuredash" unicode="&#x2012;" horiz-adv-x="606" 
d="M69 232v75h468v-75h-468z" />
    <glyph glyph-name="endash" unicode="&#x2013;" horiz-adv-x="505" 
d="M0 232v75h505v-75h-505z" />
    <glyph glyph-name="emdash" unicode="&#x2014;" horiz-adv-x="1010" 
d="M0 232v75h1010v-75h-1010z" />
    <glyph glyph-name="uni2015" unicode="&#x2015;" horiz-adv-x="1010" 
d="M0 232v75h1010v-75h-1010z" />
    <glyph glyph-name="quoteleft" unicode="&#x2018;" horiz-adv-x="251" 
d="M195 585v-139h-140v92q0 52 18 95t61 86l52 -40q-24 -27 -37.5 -49t-17.5 -45h64z" />
    <glyph glyph-name="quoteright" unicode="&#x2019;" horiz-adv-x="251" 
d="M195 712v-92q0 -53 -18 -95.5t-61 -85.5l-51 40q45 48 54 93h-64v140h140z" />
    <glyph glyph-name="quotesinglbase" unicode="&#x201a;" horiz-adv-x="251" 
d="M195 140v-92q0 -53 -18 -96t-61 -86l-51 41q47 50 54 93h-64v140h140z" />
    <glyph glyph-name="quotedblleft" unicode="&#x201c;" horiz-adv-x="444" 
d="M195 585v-139h-140v92q0 52 18 95t61 86l52 -40q-24 -27 -37.5 -49t-17.5 -45h64zM388 585v-139h-140v92q0 52 18 95t61 86l52 -40q-24 -27 -37.5 -49t-17.5 -45h64z" />
    <glyph glyph-name="quotedblright" unicode="&#x201d;" horiz-adv-x="444" 
d="M195 712v-92q0 -53 -18 -95.5t-61 -85.5l-51 40q45 48 54 93h-64v140h140zM388 712v-92q0 -53 -18 -95.5t-61 -85.5l-51 40q45 48 54 93h-64v140h140z" />
    <glyph glyph-name="quotedblbase" unicode="&#x201e;" horiz-adv-x="444" 
d="M195 140v-92q0 -53 -18 -96t-61 -86l-51 41q47 50 54 93h-64v140h140zM388 140v-92q0 -53 -18 -96t-61 -86l-51 41q47 50 54 93h-64v140h140z" />
    <glyph glyph-name="dagger" unicode="&#x2020;" horiz-adv-x="349" 
d="M220 720v-121h108v-79h-108v-353h-92v353h-108v79h108v121h92z" />
    <glyph glyph-name="daggerdbl" unicode="&#x2021;" horiz-adv-x="349" 
d="M220 720v-120h108v-80h-108v-154h108v-79h-108v-121h-92v121h-108v79h108v154h-108v80h108v120h92z" />
    <glyph glyph-name="bullet" unicode="&#x2022;" horiz-adv-x="529" 
d="M174 112.5q-42 23.5 -67 65t-25 90.5q0 46 24 87.5t66 66.5t93 25q48 0 90 -23.5t67 -64.5t25 -91q0 -49 -24.5 -90t-66.5 -65t-91 -24t-91 23.5z" />
    <glyph glyph-name="ellipsis" unicode="&#x2026;" horiz-adv-x="752" 
d="M55 140h140v-140h-140v140zM306 140h140v-140h-140v140zM556 140h140v-140h-140v140z" />
    <glyph glyph-name="perthousand" unicode="&#x2030;" horiz-adv-x="1357" 
d="M91.5 342.5q-47.5 55.5 -47.5 162.5q0 106 47.5 161.5t131.5 55.5q85 0 133 -55.5t48 -161.5q0 -107 -48 -162.5t-133 -55.5q-84 0 -131.5 55.5zM326 0h-110l412 712h111zM280 400q18 32 18 105q0 71 -18.5 103.5t-56.5 32.5q-37 0 -55 -32.5t-18 -103.5q0 -72 18 -104.5
t55 -32.5q39 0 57 32zM598.5 48.5q-47.5 55.5 -47.5 163.5q0 106 47.5 161t132.5 55t132.5 -55t47.5 -162t-47.5 -162.5t-132.5 -55.5t-132.5 55.5zM1001.5 49q-47.5 56 -47.5 163q0 106 47.5 161t131.5 55q85 0 132.5 -55t47.5 -162t-47.5 -162.5t-132.5 -55.5
q-84 0 -131.5 56zM787 106.5q18 32.5 18 104.5q0 71 -18.5 103.5t-55.5 32.5q-38 0 -56 -32.5t-18 -103.5q0 -72 18 -104.5t56 -32.5t56 32.5zM1189.5 106q17.5 32 17.5 105q0 71 -18 103.5t-56 32.5t-55.5 -32.5t-17.5 -103.5q0 -73 17.5 -105t55.5 -32q39 0 56.5 32z" />
    <glyph glyph-name="minute" unicode="&#x2032;" horiz-adv-x="244" 
d="M81 419l-32 293h145l-30 -293h-83z" />
    <glyph glyph-name="second" unicode="&#x2033;" horiz-adv-x="455" 
d="M81 419l-32 293h145l-30 -293h-83zM292 419l-32 293h145l-30 -293h-83z" />
    <glyph glyph-name="guilsinglleft" unicode="&#x2039;" horiz-adv-x="289" 
d="M158 86l-135 181l135 183h107l-130 -182l128 -182h-105z" />
    <glyph glyph-name="guilsinglright" unicode="&#x203a;" horiz-adv-x="289" 
d="M132 86h-106l129 182l-131 182h108l134 -183z" />
    <glyph glyph-name="fraction" unicode="&#x2044;" horiz-adv-x="192" 
d="M-71 -28l-84 48l418 720l83 -48z" />
    <glyph glyph-name="uni2070" unicode="&#x2070;" horiz-adv-x="380" 
d="M67 336.5q-44 55.5 -44 163.5q0 106 44 161t123 55t123 -55t44 -162t-44 -162.5t-123 -55.5t-123 55.5zM235.5 394q14.5 32 14.5 105q0 71 -15 103.5t-45 32.5q-31 0 -46 -32.5t-15 -103.5q0 -72 15 -104.5t46 -32.5t45.5 32z" />
    <glyph glyph-name="uni2074" unicode="&#x2074;" horiz-adv-x="380" 
d="M369 437v-80h-61v-72h-98v72h-191v76l203 279h86v-275h61zM110 437h100v137z" />
    <glyph glyph-name="uni2075" unicode="&#x2075;" horiz-adv-x="380" 
d="M316 526.5q38 -36.5 38 -99.5q0 -67 -46.5 -106.5t-119.5 -39.5q-40 0 -82 12t-70 32l22 78q58 -38 120 -38q36 0 55.5 15t19.5 42q0 28 -18.5 42.5t-51.5 14.5q-42 0 -82 -24h-52v257h282v-85h-184v-82q32 18 72 18q59 0 97 -36.5z" />
    <glyph glyph-name="uni2076" unicode="&#x2076;" horiz-adv-x="380" 
d="M317 523q38 -35 38 -98q0 -67 -43.5 -105.5t-111.5 -38.5q-79 0 -126 52.5t-47 157.5q0 109 52 167t138 58q33 0 69 -11.5t66 -32.5l-22 -78q-59 38 -111 38q-41 0 -63 -26.5t-26 -85.5q16 18 40.5 28t51.5 10q57 0 95 -35zM244.5 374q16.5 17 16.5 46q0 30 -16 46.5
t-44 16.5q-30 0 -47 -16.5t-17 -46.5q0 -29 16.5 -46t45.5 -17t45.5 17z" />
    <glyph glyph-name="uni2077" unicode="&#x2077;" horiz-adv-x="380" 
d="M34 712h313v-87l-176 -341l-122 1l180 338h-195v89z" />
    <glyph glyph-name="uni2078" unicode="&#x2078;" horiz-adv-x="380" 
d="M337 466q23 -28 23 -66q0 -55 -46 -87t-124 -32t-124 32t-46 87q0 40 23 67.5t65 37.5q-37 13 -57 38.5t-20 58.5q0 53 43.5 83.5t115.5 30.5t115.5 -30.5t43.5 -83.5q0 -34 -20 -60.5t-57 -36.5q42 -11 65 -39zM144 626q-17 -13 -17 -37q0 -40 63 -57q31 8 46.5 21.5
t15.5 35.5q0 24 -16.5 37t-45.5 13t-46 -13zM242.5 371q18.5 14 18.5 39q0 24 -17.5 38.5t-53.5 22.5q-37 -8 -54.5 -22.5t-17.5 -38.5q0 -25 19 -39t53 -14t52.5 14z" />
    <glyph glyph-name="uni2079" unicode="&#x2079;" horiz-adv-x="380" 
d="M306 663.5q47 -52.5 47 -157.5q0 -109 -52 -167t-138 -58q-33 0 -69 11.5t-66 32.5l22 78q59 -38 111 -38q41 0 63.5 27t25.5 86q-16 -18 -40.5 -28t-51.5 -10q-57 0 -95.5 34.5t-38.5 97.5q0 67 44 105.5t112 38.5q79 0 126 -52.5zM225.5 531q17.5 17 17.5 46t-17 46
t-45 17q-29 0 -46 -17t-17 -46t16.5 -46t44.5 -17q29 0 46.5 17z" />
    <glyph glyph-name="uni2080" unicode="&#x2080;" horiz-adv-x="380" 
d="M67 51.5q-44 55.5 -44 163.5q0 106 44 161t123 55t123 -55t44 -162t-44 -162.5t-123 -55.5t-123 55.5zM235.5 109q14.5 32 14.5 105q0 71 -15 103.5t-45 32.5q-31 0 -46 -32.5t-15 -103.5q0 -72 15 -104.5t46 -32.5t45.5 32z" />
    <glyph glyph-name="uni2081" unicode="&#x2081;" horiz-adv-x="380" 
d="M271 86h79v-86h-267v86h79v224l-74 -42v101l105 58h78v-341z" />
    <glyph glyph-name="uni2082" unicode="&#x2082;" horiz-adv-x="380" 
d="M345 86v-86h-299v80l138 147q41 46 41 77q0 21 -14 32.5t-41 11.5q-26 0 -56 -10.5t-59 -28.5l-23 78q30 20 72 32t84 12q67 0 106.5 -33t39.5 -87q0 -37 -17.5 -70t-61.5 -74l-83 -81h173z" />
    <glyph glyph-name="uni2083" unicode="&#x2083;" horiz-adv-x="380" 
d="M324.5 182.5q20.5 -26.5 20.5 -65.5q0 -53 -42.5 -87t-119.5 -34q-42 0 -84.5 12t-71.5 32l22 78q62 -39 126 -39q68 0 68 47q0 48 -67 48h-65v83h54q66 0 66 48q0 20 -14.5 31.5t-41.5 11.5q-58 0 -120 -39l-23 78q29 19 71 31.5t79 12.5q72 0 112 -33t40 -84
q0 -33 -17.5 -58t-48.5 -36q36 -11 56.5 -37.5z" />
    <glyph glyph-name="uni2084" unicode="&#x2084;" horiz-adv-x="380" 
d="M369 152v-80h-61v-72h-98v72h-191v76l203 279h86v-275h61zM110 152h100v137z" />
    <glyph glyph-name="uni2085" unicode="&#x2085;" horiz-adv-x="380" 
d="M316 241.5q38 -36.5 38 -99.5q0 -67 -46.5 -106.5t-119.5 -39.5q-40 0 -82 12t-70 32l22 78q58 -38 120 -38q36 0 55.5 15t19.5 42q0 28 -18.5 42.5t-51.5 14.5q-42 0 -82 -24h-52v257h282v-85h-184v-82q32 18 72 18q59 0 97 -36.5z" />
    <glyph glyph-name="uni2086" unicode="&#x2086;" horiz-adv-x="380" 
d="M317 238q38 -35 38 -98q0 -67 -43.5 -105.5t-111.5 -38.5q-79 0 -126 52.5t-47 157.5q0 109 52 167t138 58q33 0 69 -11.5t66 -32.5l-22 -78q-59 38 -111 38q-41 0 -63 -26.5t-26 -85.5q16 18 40.5 28t51.5 10q57 0 95 -35zM244.5 89q16.5 17 16.5 46q0 30 -16 46.5
t-44 16.5q-30 0 -47 -16.5t-17 -46.5q0 -29 16.5 -46t45.5 -17t45.5 17z" />
    <glyph glyph-name="uni2087" unicode="&#x2087;" horiz-adv-x="380" 
d="M34 427h313v-87l-176 -341l-122 1l180 338h-195v89z" />
    <glyph glyph-name="uni2088" unicode="&#x2088;" horiz-adv-x="380" 
d="M337 181q23 -28 23 -66q0 -55 -46 -87t-124 -32t-124 32t-46 87q0 40 23 67.5t65 37.5q-37 13 -57 38.5t-20 58.5q0 53 43.5 83.5t115.5 30.5t115.5 -30.5t43.5 -83.5q0 -34 -20 -60.5t-57 -36.5q42 -11 65 -39zM144 341q-17 -13 -17 -37q0 -40 63 -57q31 8 46.5 21.5
t15.5 35.5q0 24 -16.5 37t-45.5 13t-46 -13zM242.5 86q18.5 14 18.5 39q0 24 -17.5 38.5t-53.5 22.5q-37 -8 -54.5 -22.5t-17.5 -38.5q0 -25 19 -39t53 -14t52.5 14z" />
    <glyph glyph-name="uni2089" unicode="&#x2089;" horiz-adv-x="380" 
d="M306 378.5q47 -52.5 47 -157.5q0 -109 -52 -167t-138 -58q-33 0 -69 11.5t-66 32.5l22 78q59 -38 111 -38q41 0 63.5 27t25.5 86q-16 -18 -40.5 -28t-51.5 -10q-57 0 -95.5 34.5t-38.5 97.5q0 67 44 105.5t112 38.5q79 0 126 -52.5zM225.5 246q17.5 17 17.5 46t-17 46
t-45 17q-29 0 -46 -17t-17 -46t16.5 -46t44.5 -17q29 0 46.5 17z" />
    <glyph glyph-name="colonmonetary" unicode="&#x20a1;" horiz-adv-x="600" 
d="M226 549.5q-47 -67.5 -47 -192.5t47 -193.5t134 -68.5q77 0 168 75l43 -94q-39 -39 -98.5 -62t-117.5 -23q-40 0 -71 7l-49 -122l-77 29l48 122q-31 17 -56 42l-55 -139l-78 29l75 190q-44 85 -44 208q0 104 32.5 182.5t93.5 125t145 54.5l43 109h89l-44 -112
q34 -6 65 -18l52 130h90l-68 -171q4 -3 25 -21l-43 -94q-91 75 -168 75q-87 0 -134 -67.5z" />
    <glyph glyph-name="franc" unicode="&#x20a3;" horiz-adv-x="600" 
d="M592 501v-102h-9q-138 0 -138 -131v-268h-120v309h-148v-309h-122v712h435v-105h-313v-193h148v80h111v-93q18 55 52.5 77.5t88.5 22.5h15z" />
    <glyph glyph-name="lira" unicode="&#x20a4;" horiz-adv-x="600" 
d="M240 157q-12 -32 -40 -52h369v-105h-528v87q47 23 65.5 52.5t18.5 80.5v19h-84v80h84v75h-84v80h84v48q0 59 27 104.5t76.5 70t114.5 24.5q67 0 127 -21.5t106 -62.5l-43 -94q-46 37 -92.5 56t-88.5 19q-48 0 -74 -27t-26 -78v-39h170v-80h-170v-75h170v-80h-170
q0 -50 -12 -82z" />
    <glyph glyph-name="uni20A6" unicode="&#x20a6;" horiz-adv-x="600" 
d="M585 395h-87v-74h87v-80h-87v-241h-103l-186 447v-447h-107v241h-86v80h86v74h-86v80h86v237h103l185 -465v465h108v-237h87v-80z" />
    <glyph glyph-name="peseta" unicode="&#x20a7;" horiz-adv-x="1200" 
d="M1134 263q38 -19 54.5 -47t16.5 -70q0 -46 -26 -80.5t-73 -54t-108 -19.5q-108 0 -188 50l-3 -46q-30 -3 -55 -3q-106 0 -156 48.5t-50 144.5v225h-63q-20 -78 -80 -122.5t-148 -44.5h-58v-244h-125v728h183q106 0 168.5 -59.5t68.5 -163.5h54v151h125v-151h121v-94h-121
v-222q0 -103 95 -103q11 0 37 2l23 56q83 -57 171 -57q44 0 68 14.5t24 42.5q0 18 -10 29.5t-34.5 20.5t-72.5 19q-86 18 -125 52.5t-39 93.5q0 45 26 81.5t72 57t103 20.5q50 0 99.5 -17t85.5 -47l-36 -85q-83 54 -154 54q-35 0 -57 -16t-22 -43q0 -17 9 -28t30.5 -20
t64.5 -19q67 -15 105 -34zM343.5 378.5q29.5 34.5 29.5 107.5t-29.5 107.5t-92.5 34.5h-55v-284h55q63 0 92.5 34.5z" />
    <glyph glyph-name="uni20A9" unicode="&#x20a9;" horiz-adv-x="600" 
d="M585 395h-80l-10 -74h90v-80h-101l-32 -241h-70l-82 472l-82 -472h-71l-32 241h-99v80h89l-10 74h-79v80h68l-31 237h95l47 -436l71 436h68l70 -433l47 433h96l-32 -237h70v-80z" />
    <glyph glyph-name="dong" unicode="&#x20ab;" horiz-adv-x="600" 
d="M591 553h-70v-553h-124v79q-22 -40 -61.5 -63t-86.5 -23q-59 0 -105.5 31.5t-72.5 90t-26 137.5q0 78 25.5 135.5t72 88t106.5 30.5q47 0 85.5 -22t60.5 -61v130h-146v77h146v82h126v-82h70v-77zM367 133q30 43 30 116t-30 116t-83 43q-52 0 -82.5 -42t-30.5 -114
q0 -75 31 -118.5t82 -43.5q53 0 83 43zM67 -150v77h454v-77h-454z" />
    <glyph glyph-name="Euro" unicode="&#x20ac;" horiz-adv-x="600" 
d="M457.5 113q39.5 18 85.5 57l44 -94q-40 -39 -98.5 -62t-116.5 -23q-103 0 -170.5 64.5t-90.5 183.5h-95v80h86q-1 12 -1 38q0 25 1 37h-86v80h95q23 118 90.5 182.5t170.5 64.5q59 0 116.5 -22.5t98.5 -62.5l-44 -94q-46 39 -85.5 57t-80.5 18q-56 0 -90.5 -35
t-47.5 -108h159v-80h-167q-1 -12 -1 -37q0 -26 1 -38h167v-80h-159q13 -73 47.5 -108.5t90.5 -35.5q41 0 80.5 18z" />
    <glyph glyph-name="uni20AD" unicode="&#x20ad;" horiz-adv-x="600" 
d="M560 317h-203l247 -317h-142l-243 314v-314h-124v317h-79v77h79v318h124v-313l243 313h142l-248 -318h204v-77z" />
    <glyph glyph-name="uni20B1" unicode="&#x20b1;" horiz-adv-x="600" 
d="M585 512h-74q2 -24 2 -37q0 -14 -2 -38h74v-80h-97q-27 -56 -80 -88t-126 -32h-55v-237h-125v357h-86v80h86v75h-86v80h86v120h180q75 0 127.5 -32t79.5 -88h96v-80zM365 370q29 33 29 105q0 73 -28.5 105t-87.5 32h-52v-275h52q58 0 87 33z" />
    <glyph glyph-name="uni20B2" unicode="&#x20b2;" horiz-adv-x="600" 
d="M320 385h240v-342q-85 -38 -170 -49v-110h-102v112q-116 20 -182.5 115t-66.5 246q0 149 66 244t181 115v112h102v-110q49 -8 95 -29t79 -53l-43 -94q-91 75 -168 75q-85 0 -133 -67t-48 -193q0 -127 47 -195.5t129 -68.5q42 0 98 18v181h-124v93z" />
    <glyph glyph-name="uni20B5" unicode="&#x20b5;" horiz-adv-x="600" 
d="M571 76q-32 -31 -77.5 -52.5t-94.5 -29.5v-110h-102v112q-116 20 -182.5 115t-66.5 246q0 150 66 244.5t183 114.5v112h102v-110q49 -8 94.5 -29.5t77.5 -52.5l-43 -94q-69 56 -129 71v-514q60 15 129 71zM209.5 193q30.5 -64 87.5 -87v500q-57 -22 -87.5 -86t-30.5 -163
q0 -100 30.5 -164z" />
    <glyph glyph-name="uni20B9" unicode="&#x20b9;" horiz-adv-x="600" 
d="M450 632q27 -30 37 -74h95v-80h-90q-7 -72 -52.5 -119t-119.5 -61q30 -7 54 -25t45 -51l149 -222h-154l-150 227q-20 32 -42.5 45.5t-59.5 13.5h-144v101h213q58 0 92 23t42 68h-347v80h343q-11 37 -44 55.5t-86 18.5h-213v80h564v-80h-132z" />
    <glyph glyph-name="uni20BA" unicode="&#x20ba;" horiz-adv-x="600" 
d="M580 75q-94 -83 -249 -83q-97 0 -190 34v272l-83 -46v92l83 47v75l-83 -46v92l83 46v154h129v-81l169 94v-92l-169 -94v-76l169 95v-93l-169 -94v-264q35 -11 80 -11q96 0 187 72z" />
    <glyph glyph-name="uni20BC" unicode="&#x20bc;" horiz-adv-x="600" 
d="M469.5 635q46.5 -67 71 -219t24.5 -416h-126q0 226 -9.5 354t-29 185.5t-52.5 73.5v-299h-96v298q-33 -16 -52 -74t-28.5 -185.5t-9.5 -352.5h-126q0 263 24.5 415.5t70.5 219t118 80.5v113h102v-113q72 -13 118.5 -80z" />
    <glyph glyph-name="uni20BD" unicode="&#x20bd;" horiz-adv-x="600" 
d="M227 300v-74h167v-80h-167v-146h-125v146h-86v80h86v74h-86v80h86v332h241q76 0 130.5 -26t82.5 -71.5t28 -105.5q0 -98 -63 -153.5t-178 -55.5h-116zM226 380h90q148 0 148 114q0 63 -35 92.5t-106 29.5h-97v-236z" />
    <glyph glyph-name="uni2113" unicode="&#x2113;" horiz-adv-x="606" 
d="M218.5 26.5q-34.5 42.5 -34.5 106.5v68l-51 -53l-46 47l97 98v245q0 82 40 130.5t108 48.5q58 0 89.5 -33t31.5 -88q0 -71 -31.5 -133t-91.5 -132l-30 -36v-139q0 -37 15 -56.5t42 -19.5q19 0 37.5 9.5t40.5 29.5l36 -69q-66 -66 -146 -66q-72 0 -106.5 42.5zM314 415
q29 41 46.5 84.5t17.5 78.5q0 20 -8.5 33.5t-25.5 13.5q-44 0 -44 -77v-151z" />
    <glyph glyph-name="uni2116" unicode="&#x2116;" horiz-adv-x="1115" 
d="M811 451q-42 44 -42 112q0 67 42 110.5t121 43.5q80 0 122.5 -43.5t42.5 -110.5q0 -68 -42.5 -112t-122.5 -44q-79 0 -121 44zM556 214v498h121v-712h-96l-384 499v-499h-120v712h96zM888 616.5q-15 -18.5 -15 -53.5t15.5 -54t43.5 -19q30 0 46.5 19t16.5 54t-16.5 53.5
t-46.5 18.5q-29 0 -44 -18.5zM784 220v100h300v-100h-300z" />
    <glyph glyph-name="trademark" unicode="&#x2122;" horiz-adv-x="943" 
d="M12 619v93h366v-93h-126v-332h-115v332h-125zM784 712h86v-425h-99v225l-80 -152h-72l-79 147v-220h-101v425h90l127 -243z" />
    <glyph glyph-name="uni2126" unicode="&#x2126;" horiz-adv-x="807" 
d="M592 105h153v-105h-281v101q83 75 123 151.5t40 158.5q0 97 -59 152t-164 55q-106 0 -165 -54.5t-59 -152.5q0 -82 40.5 -158.5t123.5 -151.5v-101h-281v105h152q-165 141 -165 309q0 93 44 162.5t124 107t186 37.5t186 -38t123.5 -107t43.5 -162q0 -166 -165 -309z" />
    <glyph glyph-name="estimated" unicode="&#x212e;" horiz-adv-x="903" 
d="M238 43q-91 48 -139 129t-48 176q0 96 49 181t139.5 136.5t210.5 51.5q146 0 236 -55t128 -141t38 -187h-649q-5 0 -5 -6v-173q0 -22 7 -30q40 -48 102.5 -73t141.5 -25q82 0 144.5 27.5t117.5 80.5h72q-62 -74 -136.5 -107t-194.5 -33q-123 0 -214 48zM700 366q5 0 5 6
v190q0 14 -10 26q-47 55 -113.5 76.5t-134.5 21.5q-64 0 -126.5 -22.5t-113.5 -73.5q-9 -9 -9 -27v-191q0 -6 5 -6h497z" />
    <glyph glyph-name="partialdiff" unicode="&#x2202;" horiz-adv-x="600" 
d="M386.5 729q76.5 -48 120 -146t43.5 -242q0 -178 -68.5 -267.5t-193.5 -89.5q-75 0 -132.5 32t-89.5 91.5t-32 140.5q0 79 30.5 139.5t83.5 93.5t118 33q102 0 152 -70q-11 119 -75.5 176t-170.5 57h-40v94q40 6 79 6q99 0 175.5 -48zM379.5 130.5q35.5 45.5 35.5 123.5
q0 73 -35.5 115.5t-91.5 42.5q-57 0 -92.5 -44t-35.5 -120q0 -75 35.5 -119t92.5 -44q56 0 91.5 45.5z" />
    <glyph glyph-name="emptyset" unicode="&#x2205;" horiz-adv-x="600" 
d="M104 117q-48 39 -75.5 94t-27.5 120q0 76 39.5 142t108 105.5t152.5 39.5t157 -42l79 102l51 -39l-80 -102q43 -39 67 -92t24 -114q0 -77 -40 -142t-108.5 -103.5t-149.5 -38.5q-78 0 -145 36l-80 -103l-52 34zM413 517q-52 30 -112 30q-62 0 -112.5 -28.5t-80 -77.5
t-29.5 -110q0 -46 18 -87.5t50 -70.5zM411 143q51 28 81 77.5t30 110.5q0 85 -58 149l-265 -342q49 -23 102 -23q59 0 110 28z" />
    <glyph glyph-name="uni2206" unicode="&#x2206;" horiz-adv-x="807" 
d="M592 105h153v-105h-281v101q83 75 123 151.5t40 158.5q0 97 -59 152t-164 55q-106 0 -165 -54.5t-59 -152.5q0 -82 40.5 -158.5t123.5 -151.5v-101h-281v105h152q-165 141 -165 309q0 93 44 162.5t124 107t186 37.5t186 -38t123.5 -107t43.5 -162q0 -166 -165 -309z" />
    <glyph glyph-name="product" unicode="&#x220f;" horiz-adv-x="600" 
d="M546 712v-894h-116v791h-260v-791h-116v894h492z" />
    <glyph glyph-name="summation" unicode="&#x2211;" horiz-adv-x="602" 
d="M557 712v-105h-365l215 -301l-1 -81l-214 -302h365v-105h-514v93l251 354l-251 354v93h514z" />
    <glyph glyph-name="minus" unicode="&#x2212;" horiz-adv-x="600" 
d="M546 333v-89h-492v89h492z" />
    <glyph glyph-name="uni2215" unicode="&#x2215;" horiz-adv-x="600" 
d="M218 -73l-96 30l260 811l97 -30z" />
    <glyph glyph-name="uni2219" unicode="&#x2219;" horiz-adv-x="600" 
d="M230 340h140v-140h-140v140z" />
    <glyph glyph-name="radical" unicode="&#x221a;" horiz-adv-x="600" 
d="M581 766l-247 -968h-95l-135 446h-101v89h170l111 -386l203 819h94z" />
    <glyph glyph-name="infinity" unicode="&#x221e;" horiz-adv-x="600" 
d="M528.5 404q38.5 -44 38.5 -117q0 -74 -38.5 -117.5t-105.5 -43.5q-35 0 -67.5 18.5t-55.5 59.5q-23 -41 -55.5 -59.5t-67.5 -18.5q-67 0 -105.5 43.5t-38.5 117.5q0 73 38.5 117t105.5 44q34 0 67 -19t56 -60q23 41 56 60t67 19q67 0 105.5 -44zM231 221.5
q23 20.5 39 66.5q-30 85 -88 85q-32 0 -50.5 -24.5t-18.5 -61.5q0 -38 18 -62t51 -24q26 0 49 20.5zM469 225.5q18 24.5 18 61.5t-18.5 61.5t-50.5 24.5q-58 0 -88 -85q16 -46 39 -66.5t49 -20.5q33 0 51 24.5z" />
    <glyph glyph-name="integral" unicode="&#x222b;" horiz-adv-x="600" 
d="M489 709v-100q-27 8 -48 8q-78 0 -78 -87v-534q0 -88 -45 -136t-129 -48q-44 0 -78 11v100q27 -8 48 -8q35 0 56.5 20.5t21.5 66.5v534q0 88 45 136t129 48q44 0 78 -11z" />
    <glyph glyph-name="approxequal" unicode="&#x2248;" horiz-adv-x="595" 
d="M544 416q-17 -49 -53 -77t-82 -28q-30 0 -59 11t-70 32q-34 17 -51 24t-34 7q-54 0 -76 -64l-67 43q17 49 53 77t82 28q31 0 59.5 -11t68.5 -31q33 -16 51 -23.5t35 -7.5q28 0 46 15.5t30 46.5zM544 214q-17 -49 -53 -77t-82 -28q-30 0 -59 11t-70 32q-34 17 -51 24
t-34 7q-54 0 -76 -64l-67 43q17 49 53 77t82 28q31 0 59.5 -11t68.5 -31q33 -16 51 -23.5t35 -7.5q28 0 46 15.5t30 46.5z" />
    <glyph glyph-name="notequal" unicode="&#x2260;" horiz-adv-x="600" 
d="M546 345h-181l-47 -113h228v-89h-265l-55 -133l-82 34l41 99h-131v89h168l47 113h-215v89h252l56 134l81 -35l-41 -99h144v-89z" />
    <glyph glyph-name="lessequal" unicode="&#x2264;" horiz-adv-x="600" 
d="M546 545v-93l-365 -116l365 -116v-94l-492 163v95zM54 0v88h492v-88h-492z" />
    <glyph glyph-name="greaterequal" unicode="&#x2265;" horiz-adv-x="600" 
d="M54 545l492 -161v-95l-492 -163v94l365 116l-365 116v93zM54 0v88h492v-88h-492z" />
    <glyph glyph-name="lozenge" unicode="&#x25ca;" horiz-adv-x="606" 
d="M560 282l-209 -484h-96l-209 484l209 484h96zM463 282l-160 372l-160 -372l160 -372z" />
    <glyph glyph-name="uniF8FF" unicode="&#xf8ff;" horiz-adv-x="665" 
d="M138 1l71 226l-192 146h239l74 226l78 -226h239l-192 -146l71 -226l-196 136zM264 200h28v76l29 -55h23l30 55v-76h28v131h-27l-42 -79l-42 79h-27v-131z" />
    <glyph glyph-name="Iacute_J.loclNLD" horiz-adv-x="644" 
d="M77 0v712h129v-712h-129zM181 773h-81l103 155h121zM281 -73q51 -7 72 -7q49 0 67 24t18 86v682h129v-682q0 -114 -43 -165.5t-147 -51.5q-48 0 -96 8v106zM542 773h-81l103 155h121z" />
    <glyph glyph-name="i.loclTRK" horiz-adv-x="261" 
d="M68 0v505h124v-505h-124zM60 734h139v-123h-139v123z" />
    <glyph glyph-name="iacute_j.loclNLD" horiz-adv-x="522" 
d="M68 0v505h124v-505h-124zM170 570h-81l100 206h128zM249 -119q36 0 58 21t22 68v535h124v-541q0 -90 -45.5 -138t-129.5 -48q-45 0 -78 11v100q27 -8 49 -8zM431 570h-81l100 206h128z" />
    <glyph glyph-name="I_J.loclNLD" horiz-adv-x="644" 
d="M77 0v712h129v-712h-129zM281 -73q51 -7 72 -7q49 0 67 24t18 86v682h129v-682q0 -114 -43 -165.5t-147 -51.5q-48 0 -96 8v106z" />
    <glyph glyph-name="i_j.loclNLD" horiz-adv-x="522" 
d="M68 0v505h124v-505h-124zM60 734h139v-123h-139v123zM249 -119q36 0 58 21t22 68v535h124v-541q0 -90 -45.5 -138t-129.5 -48q-45 0 -78 11v100q27 -8 49 -8zM321 734h139v-123h-139v123z" />
    <glyph glyph-name="zero.dnom" horiz-adv-x="380" 
d="M67 51.5q-44 55.5 -44 163.5q0 106 44 161t123 55t123 -55t44 -162t-44 -162.5t-123 -55.5t-123 55.5zM235.5 109q14.5 32 14.5 105q0 71 -15 103.5t-45 32.5q-31 0 -46 -32.5t-15 -103.5q0 -72 15 -104.5t46 -32.5t45.5 32z" />
    <glyph glyph-name="one.dnom" horiz-adv-x="380" 
d="M271 86h79v-86h-267v86h79v224l-74 -42v101l105 58h78v-341z" />
    <glyph glyph-name="two.dnom" horiz-adv-x="380" 
d="M345 86v-86h-299v80l138 147q41 46 41 77q0 21 -14 32.5t-41 11.5q-26 0 -56 -10.5t-59 -28.5l-23 78q30 20 72 32t84 12q67 0 106.5 -33t39.5 -87q0 -37 -17.5 -70t-61.5 -74l-83 -81h173z" />
    <glyph glyph-name="three.dnom" horiz-adv-x="380" 
d="M324.5 182.5q20.5 -26.5 20.5 -65.5q0 -53 -42.5 -87t-119.5 -34q-42 0 -84.5 12t-71.5 32l22 78q62 -39 126 -39q68 0 68 47q0 48 -67 48h-65v83h54q66 0 66 48q0 20 -14.5 31.5t-41.5 11.5q-58 0 -120 -39l-23 78q29 19 71 31.5t79 12.5q72 0 112 -33t40 -84
q0 -33 -17.5 -58t-48.5 -36q36 -11 56.5 -37.5z" />
    <glyph glyph-name="four.dnom" horiz-adv-x="380" 
d="M369 152v-80h-61v-72h-98v72h-191v76l203 279h86v-275h61zM110 152h100v137z" />
    <glyph glyph-name="five.dnom" horiz-adv-x="380" 
d="M316 241.5q38 -36.5 38 -99.5q0 -67 -46.5 -106.5t-119.5 -39.5q-40 0 -82 12t-70 32l22 78q58 -38 120 -38q36 0 55.5 15t19.5 42q0 28 -18.5 42.5t-51.5 14.5q-42 0 -82 -24h-52v257h282v-85h-184v-82q32 18 72 18q59 0 97 -36.5z" />
    <glyph glyph-name="six.dnom" horiz-adv-x="380" 
d="M317 238q38 -35 38 -98q0 -67 -43.5 -105.5t-111.5 -38.5q-79 0 -126 52.5t-47 157.5q0 109 52 167t138 58q33 0 69 -11.5t66 -32.5l-22 -78q-59 38 -111 38q-41 0 -63 -26.5t-26 -85.5q16 18 40.5 28t51.5 10q57 0 95 -35zM244.5 89q16.5 17 16.5 46q0 30 -16 46.5
t-44 16.5q-30 0 -47 -16.5t-17 -46.5q0 -29 16.5 -46t45.5 -17t45.5 17z" />
    <glyph glyph-name="seven.dnom" horiz-adv-x="380" 
d="M34 427h313v-87l-176 -341l-122 1l180 338h-195v89z" />
    </font>
</defs>
</svg>
